<svg width="196" height="12" viewBox="0 0 196 12" fill="none" xmlns="http://www.w3.org/2000/svg">
<path d="M196 5.99998L186 0.226481L186 11.7735L196 5.99998ZM8.74228e-08 7L1.96 7L1.96 5L-8.74228e-08 5L8.74228e-08 7ZM5.88 7L9.8 7L9.8 5L5.88 5L5.88 7ZM13.72 7L17.64 7L17.64 5L13.72 5L13.72 7ZM21.56 7L25.48 7L25.48 5L21.56 5L21.56 7ZM29.4 7L33.32 7L33.32 5L29.4 5L29.4 7ZM37.24 7L41.16 7L41.16 5L37.24 5L37.24 7ZM45.08 7L49 7L49 5L45.08 5L45.08 7ZM52.92 7L56.84 7L56.84 5L52.92 5L52.92 7ZM60.76 6.99999L64.68 6.99999L64.68 4.99999L60.76 4.99999L60.76 6.99999ZM68.6 6.99999L72.52 6.99999L72.52 4.99999L68.6 4.99999L68.6 6.99999ZM76.44 6.99999L80.36 6.99999L80.36 4.99999L76.44 4.99999L76.44 6.99999ZM84.28 6.99999L88.2 6.99999L88.2 4.99999L84.28 4.99999L84.28 6.99999ZM92.12 6.99999L96.04 6.99999L96.04 4.99999L92.12 4.99999L92.12 6.99999ZM99.96 6.99999L103.88 6.99999L103.88 4.99999L99.96 4.99999L99.96 6.99999ZM107.8 6.99999L111.72 6.99999L111.72 4.99999L107.8 4.99999L107.8 6.99999ZM115.64 6.99999L119.56 6.99999L119.56 4.99999L115.64 4.99999L115.64 6.99999ZM123.48 6.99999L127.4 6.99999L127.4 4.99999L123.48 4.99999L123.48 6.99999ZM131.32 6.99999L135.24 6.99999L135.24 4.99999L131.32 4.99999L131.32 6.99999ZM139.16 6.99999L143.08 6.99999L143.08 4.99999L139.16 4.99999L139.16 6.99999ZM147 6.99999L150.92 6.99999L150.92 4.99999L147 4.99999L147 6.99999ZM154.84 6.99999L158.76 6.99999L158.76 4.99999L154.84 4.99999L154.84 6.99999ZM162.68 6.99999L166.6 6.99999L166.6 4.99999L162.68 4.99999L162.68 6.99999ZM170.52 6.99999L174.44 6.99998L174.44 4.99998L170.52 4.99999L170.52 6.99999ZM178.36 6.99998L182.28 6.99998L182.28 4.99998L178.36 4.99998L178.36 6.99998ZM186.2 6.99998L190.12 6.99998L190.12 4.99998L186.2 4.99998L186.2 6.99998Z" fill="url(#paint0_linear_59_212)"/>
<defs>
<linearGradient id="paint0_linear_59_212" x1="4.37514e-08" y1="6.50046" x2="196" y2="6.50044" gradientUnits="userSpaceOnUse">
<stop stop-color="#0AC389"/>
<stop offset="1" stop-color="#0472E2"/>
</linearGradient>
</defs>
</svg>
