<svg width="245" height="48" viewBox="0 0 245 48" fill="none" xmlns="http://www.w3.org/2000/svg">
<path d="M22.2812 8.71875C18.6354 8.71875 15.8125 10.0938 13.8125 12.8438C11.8125 15.5729 10.8125 19.3854 10.8125 24.2812C10.8125 34.4688 14.6354 39.5625 22.2812 39.5625C25.4896 39.5625 29.375 38.7604 33.9375 37.1562V45.2812C30.1875 46.8438 26 47.625 21.375 47.625C14.7292 47.625 9.64583 45.6146 6.125 41.5938C2.60417 37.5521 0.84375 31.7604 0.84375 24.2188C0.84375 19.4688 1.70833 15.3125 3.4375 11.75C5.16667 8.16667 7.64583 5.42708 10.875 3.53125C14.125 1.61458 17.9271 0.65625 22.2812 0.65625C26.7188 0.65625 31.1771 1.72917 35.6562 3.875L32.5312 11.75C30.8229 10.9375 29.1042 10.2292 27.375 9.625C25.6458 9.02083 23.9479 8.71875 22.2812 8.71875ZM50.5312 29.4688C50.5312 32.9271 51.0938 35.5417 52.2188 37.3125C53.3646 39.0833 55.2188 39.9688 57.7812 39.9688C60.3229 39.9688 62.1458 39.0938 63.25 37.3438C64.375 35.5729 64.9375 32.9479 64.9375 29.4688C64.9375 26.0104 64.375 23.4167 63.25 21.6875C62.125 19.9583 60.2812 19.0938 57.7188 19.0938C55.1771 19.0938 53.3438 19.9583 52.2188 21.6875C51.0938 23.3958 50.5312 25.9896 50.5312 29.4688ZM74.6875 29.4688C74.6875 35.1562 73.1875 39.6042 70.1875 42.8125C67.1875 46.0208 63.0104 47.625 57.6562 47.625C54.3021 47.625 51.3438 46.8958 48.7812 45.4375C46.2188 43.9583 44.25 41.8438 42.875 39.0938C41.5 36.3438 40.8125 33.1354 40.8125 29.4688C40.8125 23.7604 42.3021 19.3229 45.2812 16.1562C48.2604 12.9896 52.4479 11.4062 57.8438 11.4062C61.1979 11.4062 64.1562 12.1354 66.7188 13.5938C69.2812 15.0521 71.25 17.1458 72.625 19.875C74 22.6042 74.6875 25.8021 74.6875 29.4688ZM114.812 47H105.281V26.5938C105.281 24.0729 104.833 22.1875 103.938 20.9375C103.042 19.6667 101.615 19.0312 99.6562 19.0312C96.9896 19.0312 95.0625 19.9271 93.875 21.7188C92.6875 23.4896 92.0938 26.4375 92.0938 30.5625V47H82.5625V12.0625H89.8438L91.125 16.5312H91.6562C92.7188 14.8438 94.1771 13.5729 96.0312 12.7188C97.9062 11.8438 100.031 11.4062 102.406 11.4062C106.469 11.4062 109.552 12.5104 111.656 14.7188C113.76 16.9062 114.812 20.0729 114.812 24.2188V47ZM139.344 40.0312C141.01 40.0312 143.01 39.6667 145.344 38.9375V46.0312C142.969 47.0938 140.052 47.625 136.594 47.625C132.781 47.625 130 46.6667 128.25 44.75C126.521 42.8125 125.656 39.9167 125.656 36.0625V19.2188H121.094V15.1875L126.344 12L129.094 4.625H135.188V12.0625H144.969V19.2188H135.188V36.0625C135.188 37.4167 135.562 38.4167 136.312 39.0625C137.083 39.7083 138.094 40.0312 139.344 40.0312ZM174.625 47L172.781 42.25H172.531C170.927 44.2708 169.271 45.6771 167.562 46.4688C165.875 47.2396 163.667 47.625 160.938 47.625C157.583 47.625 154.938 46.6667 153 44.75C151.083 42.8333 150.125 40.1042 150.125 36.5625C150.125 32.8542 151.417 30.125 154 28.375C156.604 26.6042 160.521 25.625 165.75 25.4375L171.812 25.25V23.7188C171.812 20.1771 170 18.4062 166.375 18.4062C163.583 18.4062 160.302 19.25 156.531 20.9375L153.375 14.5C157.396 12.3958 161.854 11.3438 166.75 11.3438C171.438 11.3438 175.031 12.3646 177.531 14.4062C180.031 16.4479 181.281 19.5521 181.281 23.7188V47H174.625ZM171.812 30.8125L168.125 30.9375C165.354 31.0208 163.292 31.5208 161.938 32.4375C160.583 33.3542 159.906 34.75 159.906 36.625C159.906 39.3125 161.448 40.6562 164.531 40.6562C166.74 40.6562 168.5 40.0208 169.812 38.75C171.146 37.4792 171.812 35.7917 171.812 33.6875V30.8125ZM205.312 47.625C194.438 47.625 189 41.6562 189 29.7188C189 23.7812 190.479 19.25 193.438 16.125C196.396 12.9792 200.635 11.4062 206.156 11.4062C210.198 11.4062 213.823 12.1979 217.031 13.7812L214.219 21.1562C212.719 20.5521 211.323 20.0625 210.031 19.6875C208.74 19.2917 207.448 19.0938 206.156 19.0938C201.198 19.0938 198.719 22.6146 198.719 29.6562C198.719 36.4896 201.198 39.9062 206.156 39.9062C207.99 39.9062 209.688 39.6667 211.25 39.1875C212.812 38.6875 214.375 37.9167 215.938 36.875V45.0312C214.396 46.0104 212.833 46.6875 211.25 47.0625C209.688 47.4375 207.708 47.625 205.312 47.625ZM238.781 40.0312C240.448 40.0312 242.448 39.6667 244.781 38.9375V46.0312C242.406 47.0938 239.49 47.625 236.031 47.625C232.219 47.625 229.438 46.6667 227.688 44.75C225.958 42.8125 225.094 39.9167 225.094 36.0625V19.2188H220.531V15.1875L225.781 12L228.531 4.625H234.625V12.0625H244.406V19.2188H234.625V36.0625C234.625 37.4167 235 38.4167 235.75 39.0625C236.521 39.7083 237.531 40.0312 238.781 40.0312Z" fill="url(#paint0_linear_77_628)"/>
<defs>
<linearGradient id="paint0_linear_77_628" x1="122" y1="-21" x2="122" y2="113.519" gradientUnits="userSpaceOnUse">
<stop stop-color="white" stop-opacity="0.1"/>
<stop offset="0.536458" stop-color="white" stop-opacity="0"/>
</linearGradient>
</defs>
</svg>
