<svg width="15" height="23" viewBox="0 0 15 23" fill="none" xmlns="http://www.w3.org/2000/svg">
<path d="M2.18752 8.47909L7.18752 6.29159C7.39586 6.18742 7.60419 6.18742 7.91669 6.29159L12.9167 8.47909C13.3334 8.68742 13.75 8.16659 13.4375 7.74992L8.22919 1.39575C7.91669 0.979085 7.29169 0.979085 6.97919 1.39575L1.77086 7.74992C1.35419 8.16659 1.77086 8.68742 2.18752 8.47909ZM2.18752 14.5208L7.18752 16.7083C7.39586 16.8124 7.60419 16.8124 7.91669 16.7083L12.9167 14.5208C13.3334 14.3124 13.75 14.8333 13.4375 15.2499L8.22919 21.6041C7.91669 22.0208 7.29169 22.0208 6.97919 21.6041L1.77086 15.2499C1.35419 14.8333 1.77086 14.3124 2.18752 14.5208ZM7.50002 8.79159L2.08336 11.4999L7.50002 14.2083L12.9167 11.4999L7.50002 8.79159Z" stroke="black" stroke-width="1.5" stroke-miterlimit="10" stroke-linecap="round" stroke-linejoin="round"/>
</svg>
