<svg width="25" height="25" viewBox="0 0 25 25" fill="none" xmlns="http://www.w3.org/2000/svg">
<path d="M7.18752 9.47909L12.1875 7.29159C12.3959 7.18742 12.6042 7.18742 12.9167 7.29159L17.9167 9.47909C18.3334 9.68742 18.75 9.16659 18.4375 8.74992L13.2292 2.39575C12.9167 1.97909 12.2917 1.97909 11.9792 2.39575L6.77086 8.74992C6.35419 9.16659 6.77086 9.68742 7.18752 9.47909ZM7.18752 15.5208L12.1875 17.7083C12.3959 17.8124 12.6042 17.8124 12.9167 17.7083L17.9167 15.5208C18.3334 15.3124 18.75 15.8333 18.4375 16.2499L13.2292 22.6041C12.9167 23.0208 12.2917 23.0208 11.9792 22.6041L6.77086 16.2499C6.35419 15.8333 6.77086 15.3124 7.18752 15.5208ZM12.5 9.79159L7.08336 12.4999L12.5 15.2083L17.9167 12.4999L12.5 9.79159Z" stroke="url(#paint0_linear_76_553)" stroke-width="1.5" stroke-miterlimit="10" stroke-linecap="round" stroke-linejoin="round"/>
<defs>
<linearGradient id="paint0_linear_76_553" x1="12.5724" y1="2.08325" x2="12.5724" y2="22.9166" gradientUnits="userSpaceOnUse">
<stop stop-color="#0AC389"/>
<stop offset="1" stop-color="#0472E2"/>
</linearGradient>
</defs>
</svg>
