<svg width="121" height="58" viewBox="0 0 121 58" fill="none" xmlns="http://www.w3.org/2000/svg">
<path d="M9.65625 47H0.125V1.3125H26.3125V9.25H9.65625V21.0312H25.1562V28.9375H9.65625V47ZM63.2188 47L59.9062 36.125H43.25L39.9375 47H29.5L45.625 1.125H57.4688L73.6562 47H63.2188ZM57.5938 28C54.5312 18.1458 52.8021 12.5729 52.4062 11.2812C52.0312 9.98958 51.7604 8.96875 51.5938 8.21875C50.9062 10.8854 48.9375 17.4792 45.6875 28H57.5938ZM120.906 24.0938C120.906 29.4688 119.948 33.9792 118.031 37.625C116.135 41.25 113.344 43.9062 109.656 45.5938L120.656 57.875H108.25L99.875 47.625H99.1562C92.1562 47.625 86.7812 45.5938 83.0312 41.5312C79.2812 37.4688 77.4062 31.6354 77.4062 24.0312C77.4062 16.4271 79.2812 10.625 83.0312 6.625C86.8021 2.60417 92.1979 0.59375 99.2188 0.59375C106.24 0.59375 111.604 2.61458 115.312 6.65625C119.042 10.6979 120.906 16.5104 120.906 24.0938ZM87.5625 24.0938C87.5625 29.1979 88.5312 33.0417 90.4688 35.625C92.4062 38.2083 95.3021 39.5 99.1562 39.5C106.885 39.5 110.75 34.3646 110.75 24.0938C110.75 13.8021 106.906 8.65625 99.2188 8.65625C95.3646 8.65625 92.4583 9.95833 90.5 12.5625C88.5417 15.1458 87.5625 18.9896 87.5625 24.0938Z" fill="url(#paint0_linear_76_617)"/>
<defs>
<linearGradient id="paint0_linear_76_617" x1="59.5" y1="-21" x2="59.5" y2="113.519" gradientUnits="userSpaceOnUse">
<stop stop-color="white" stop-opacity="0.1"/>
<stop offset="0.536458" stop-color="white" stop-opacity="0"/>
</linearGradient>
</defs>
</svg>
