<svg width="273" height="47" viewBox="0 0 273 47" fill="none" xmlns="http://www.w3.org/2000/svg">
<path d="M9.6875 46H0.15625V0.3125H26.3438V8.25H9.6875V20.0312H25.1875V27.9375H9.6875V46ZM49 17.1875C46.9792 17.1875 45.3958 17.8333 44.25 19.125C43.1042 20.3958 42.4479 22.2083 42.2812 24.5625H55.6562C55.6146 22.2083 55 20.3958 53.8125 19.125C52.625 17.8333 51.0208 17.1875 49 17.1875ZM50.3438 46.625C44.7188 46.625 40.3229 45.0729 37.1562 41.9688C33.9896 38.8646 32.4062 34.4688 32.4062 28.7812C32.4062 22.9271 33.8646 18.4062 36.7812 15.2188C39.7188 12.0104 43.7708 10.4062 48.9375 10.4062C53.875 10.4062 57.7188 11.8125 60.4688 14.625C63.2188 17.4375 64.5938 21.3229 64.5938 26.2812V30.9062H42.0625C42.1667 33.6146 42.9688 35.7292 44.4688 37.25C45.9688 38.7708 48.0729 39.5312 50.7812 39.5312C52.8854 39.5312 54.875 39.3125 56.75 38.875C58.625 38.4375 60.5833 37.7396 62.625 36.7812V44.1562C60.9583 44.9896 59.1771 45.6042 57.2812 46C55.3854 46.4167 53.0729 46.625 50.3438 46.625ZM94.5312 46L92.6875 41.25H92.4375C90.8333 43.2708 89.1771 44.6771 87.4688 45.4688C85.7812 46.2396 83.5729 46.625 80.8438 46.625C77.4896 46.625 74.8438 45.6667 72.9062 43.75C70.9896 41.8333 70.0312 39.1042 70.0312 35.5625C70.0312 31.8542 71.3229 29.125 73.9062 27.375C76.5104 25.6042 80.4271 24.625 85.6562 24.4375L91.7188 24.25V22.7188C91.7188 19.1771 89.9062 17.4062 86.2812 17.4062C83.4896 17.4062 80.2083 18.25 76.4375 19.9375L73.2812 13.5C77.3021 11.3958 81.7604 10.3438 86.6562 10.3438C91.3438 10.3438 94.9375 11.3646 97.4375 13.4062C99.9375 15.4479 101.188 18.5521 101.188 22.7188V46H94.5312ZM91.7188 29.8125L88.0312 29.9375C85.2604 30.0208 83.1979 30.5208 81.8438 31.4375C80.4896 32.3542 79.8125 33.75 79.8125 35.625C79.8125 38.3125 81.3542 39.6562 84.4375 39.6562C86.6458 39.6562 88.4062 39.0208 89.7188 37.75C91.0521 36.4792 91.7188 34.7917 91.7188 32.6875V29.8125ZM125.75 39.0312C127.417 39.0312 129.417 38.6667 131.75 37.9375V45.0312C129.375 46.0938 126.458 46.625 123 46.625C119.188 46.625 116.406 45.6667 114.656 43.75C112.927 41.8125 112.062 38.9167 112.062 35.0625V18.2188H107.5V14.1875L112.75 11L115.5 3.625H121.594V11.0625H131.375V18.2188H121.594V35.0625C121.594 36.4167 121.969 37.4167 122.719 38.0625C123.49 38.7083 124.5 39.0312 125.75 39.0312ZM163.594 46L162.312 41.5312H161.812C160.792 43.1562 159.344 44.4167 157.469 45.3125C155.594 46.1875 153.458 46.625 151.062 46.625C146.958 46.625 143.865 45.5312 141.781 43.3438C139.698 41.1354 138.656 37.9688 138.656 33.8438V11.0625H148.188V31.4688C148.188 33.9896 148.635 35.8854 149.531 37.1562C150.427 38.4062 151.854 39.0312 153.812 39.0312C156.479 39.0312 158.406 38.1458 159.594 36.375C160.781 34.5833 161.375 31.625 161.375 27.5V11.0625H170.906V46H163.594ZM200.406 10.4062C201.698 10.4062 202.771 10.5 203.625 10.6875L202.906 19.625C202.135 19.4167 201.198 19.3125 200.094 19.3125C197.052 19.3125 194.677 20.0938 192.969 21.6562C191.281 23.2188 190.438 25.4062 190.438 28.2188V46H180.906V11.0625H188.125L189.531 16.9375H190C191.083 14.9792 192.542 13.4062 194.375 12.2188C196.229 11.0104 198.24 10.4062 200.406 10.4062ZM224.438 17.1875C222.417 17.1875 220.833 17.8333 219.688 19.125C218.542 20.3958 217.885 22.2083 217.719 24.5625H231.094C231.052 22.2083 230.438 20.3958 229.25 19.125C228.062 17.8333 226.458 17.1875 224.438 17.1875ZM225.781 46.625C220.156 46.625 215.76 45.0729 212.594 41.9688C209.427 38.8646 207.844 34.4688 207.844 28.7812C207.844 22.9271 209.302 18.4062 212.219 15.2188C215.156 12.0104 219.208 10.4062 224.375 10.4062C229.312 10.4062 233.156 11.8125 235.906 14.625C238.656 17.4375 240.031 21.3229 240.031 26.2812V30.9062H217.5C217.604 33.6146 218.406 35.7292 219.906 37.25C221.406 38.7708 223.51 39.5312 226.219 39.5312C228.323 39.5312 230.312 39.3125 232.188 38.875C234.062 38.4375 236.021 37.7396 238.062 36.7812V44.1562C236.396 44.9896 234.615 45.6042 232.719 46C230.823 46.4167 228.51 46.625 225.781 46.625ZM272.156 35.625C272.156 39.2083 270.906 41.9375 268.406 43.8125C265.927 45.6875 262.208 46.625 257.25 46.625C254.708 46.625 252.542 46.4479 250.75 46.0938C248.958 45.7604 247.281 45.2604 245.719 44.5938V36.7188C247.49 37.5521 249.479 38.25 251.688 38.8125C253.917 39.375 255.875 39.6562 257.562 39.6562C261.021 39.6562 262.75 38.6562 262.75 36.6562C262.75 35.9062 262.521 35.3021 262.062 34.8438C261.604 34.3646 260.812 33.8333 259.688 33.25C258.562 32.6458 257.062 31.9479 255.188 31.1562C252.5 30.0312 250.521 28.9896 249.25 28.0312C248 27.0729 247.083 25.9792 246.5 24.75C245.938 23.5 245.656 21.9688 245.656 20.1562C245.656 17.0521 246.854 14.6562 249.25 12.9688C251.667 11.2604 255.083 10.4062 259.5 10.4062C263.708 10.4062 267.802 11.3229 271.781 13.1562L268.906 20.0312C267.156 19.2812 265.521 18.6667 264 18.1875C262.479 17.7083 260.927 17.4688 259.344 17.4688C256.531 17.4688 255.125 18.2292 255.125 19.75C255.125 20.6042 255.573 21.3438 256.469 21.9688C257.385 22.5938 259.375 23.5208 262.438 24.75C265.167 25.8542 267.167 26.8854 268.438 27.8438C269.708 28.8021 270.646 29.9062 271.25 31.1562C271.854 32.4062 272.156 33.8958 272.156 35.625Z" fill="url(#paint0_linear_76_332)"/>
<defs>
<linearGradient id="paint0_linear_76_332" x1="134.5" y1="-22" x2="134.5" y2="112.519" gradientUnits="userSpaceOnUse">
<stop stop-color="white" stop-opacity="0.1"/>
<stop offset="0.536458" stop-color="white" stop-opacity="0"/>
</linearGradient>
</defs>
</svg>
