<svg width="550" height="166" viewBox="0 0 550 166" fill="none" xmlns="http://www.w3.org/2000/svg">
<path d="M49.9907 126L21.6313 33.5903H20.9062C21.9268 52.3892 22.437 64.9307 22.437 71.2148V126H0.120117V8.21191H34.1191L61.9951 98.2852H62.4785L92.0464 8.21191H126.045V126H102.762V70.248C102.762 67.6162 102.789 64.5815 102.842 61.144C102.95 57.7065 103.326 48.5757 103.97 33.7515H103.245L72.8716 126H49.9907ZM152.793 12.6431C152.793 4.64014 157.251 0.638672 166.167 0.638672C175.083 0.638672 179.542 4.64014 179.542 12.6431C179.542 16.4565 178.414 19.4375 176.158 21.5859C173.956 23.6807 170.625 24.728 166.167 24.728C157.251 24.728 152.793 20.6997 152.793 12.6431ZM178.414 126H153.841V35.9268H178.414V126ZM287.42 126H262.847V73.3901C262.847 66.8911 261.692 62.0303 259.383 58.8076C257.073 55.5312 253.394 53.8931 248.345 53.8931C241.47 53.8931 236.502 56.2026 233.44 60.8218C230.379 65.3872 228.848 72.9873 228.848 83.6221V126H204.275V35.9268H223.047L226.351 47.4478H227.72C230.459 43.0972 234.219 39.8208 239 37.6187C243.833 35.3628 249.312 34.2349 255.435 34.2349C265.909 34.2349 273.858 37.0815 279.283 42.7749C284.708 48.4146 287.42 56.5786 287.42 67.2671V126ZM311.67 12.6431C311.67 4.64014 316.128 0.638672 325.044 0.638672C333.96 0.638672 338.418 4.64014 338.418 12.6431C338.418 16.4565 337.291 19.4375 335.035 21.5859C332.833 23.6807 329.502 24.728 325.044 24.728C316.128 24.728 311.67 20.6997 311.67 12.6431ZM337.291 126H312.718V35.9268H337.291V126ZM446.297 126H421.724V73.3901C421.724 66.8911 420.569 62.0303 418.26 58.8076C415.95 55.5312 412.271 53.8931 407.222 53.8931C400.347 53.8931 395.379 56.2026 392.317 60.8218C389.256 65.3872 387.725 72.9873 387.725 83.6221V126H363.152V35.9268H381.924L385.228 47.4478H386.597C389.336 43.0972 393.096 39.8208 397.876 37.6187C402.71 35.3628 408.189 34.2349 414.312 34.2349C424.786 34.2349 432.735 37.0815 438.16 42.7749C443.584 48.4146 446.297 56.5786 446.297 67.2671V126ZM549.986 35.9268V48.4146L535.887 52.04C538.465 56.0684 539.754 60.5801 539.754 65.5752C539.754 75.2432 536.37 82.7896 529.603 88.2144C522.889 93.5854 513.543 96.271 501.565 96.271L497.134 96.0293L493.509 95.6265C490.984 97.5601 489.722 99.7085 489.722 102.072C489.722 105.617 494.234 107.389 503.257 107.389H518.565C528.448 107.389 535.967 109.511 541.124 113.754C546.333 117.997 548.938 124.228 548.938 132.445C548.938 142.973 544.534 151.137 535.726 156.938C526.971 162.738 514.375 165.639 497.94 165.639C485.372 165.639 475.757 163.437 469.097 159.032C462.491 154.682 459.188 148.559 459.188 140.663C459.188 135.238 460.879 130.7 464.263 127.047C467.647 123.395 472.615 120.79 479.168 119.232C476.644 118.158 474.441 116.413 472.562 113.996C470.682 111.525 469.742 108.92 469.742 106.181C469.742 102.743 470.735 99.8965 472.723 97.6406C474.71 95.3311 477.583 93.0752 481.343 90.873C476.617 88.832 472.857 85.5557 470.064 81.0439C467.325 76.5322 465.955 71.2148 465.955 65.0918C465.955 55.2627 469.151 47.6626 475.542 42.2915C481.934 36.9204 491.065 34.2349 502.935 34.2349C505.459 34.2349 508.44 34.4766 511.878 34.96C515.369 35.3896 517.598 35.7119 518.565 35.9268H549.986ZM480.457 138.729C480.457 142.113 482.068 144.772 485.291 146.706C488.567 148.639 493.133 149.606 498.987 149.606C507.796 149.606 514.698 148.397 519.693 145.98C524.688 143.563 527.186 140.26 527.186 136.071C527.186 132.687 525.708 130.351 522.754 129.062C519.8 127.772 515.235 127.128 509.058 127.128H496.329C491.817 127.128 488.03 128.175 484.969 130.27C481.961 132.418 480.457 135.238 480.457 138.729ZM489.4 65.4141C489.4 70.3018 490.501 74.1689 492.703 77.0156C494.959 79.8623 498.37 81.2856 502.935 81.2856C507.554 81.2856 510.938 79.8623 513.086 77.0156C515.235 74.1689 516.309 70.3018 516.309 65.4141C516.309 54.5645 511.851 49.1396 502.935 49.1396C493.912 49.1396 489.4 54.5645 489.4 65.4141Z" fill="url(#paint0_linear_5_466)"/>
<defs>
<linearGradient id="paint0_linear_5_466" x1="268.5" y1="-51" x2="268.5" y2="296.894" gradientUnits="userSpaceOnUse">
<stop stop-color="white" stop-opacity="0.1"/>
<stop offset="0.536458" stop-color="white" stop-opacity="0"/>
</linearGradient>
</defs>
</svg>
