<svg width="214" height="65" viewBox="0 0 214 65" fill="none" xmlns="http://www.w3.org/2000/svg">
<path d="M10.6562 24.8125H13.8438C16.8229 24.8125 19.0521 24.2292 20.5312 23.0625C22.0104 21.875 22.75 20.1562 22.75 17.9062C22.75 15.6354 22.125 13.9583 20.875 12.875C19.6458 11.7917 17.7083 11.25 15.0625 11.25H10.6562V24.8125ZM32.5312 17.5625C32.5312 22.4792 30.9896 26.2396 27.9062 28.8438C24.8438 31.4479 20.4792 32.75 14.8125 32.75H10.6562V49H0.96875V3.3125H15.5625C21.1042 3.3125 25.3125 4.51042 28.1875 6.90625C31.0833 9.28125 32.5312 12.8333 32.5312 17.5625ZM59.9062 13.4062C61.1979 13.4062 62.2708 13.5 63.125 13.6875L62.4062 22.625C61.6354 22.4167 60.6979 22.3125 59.5938 22.3125C56.5521 22.3125 54.1771 23.0938 52.4688 24.6562C50.7812 26.2188 49.9375 28.4062 49.9375 31.2188V49H40.4062V14.0625H47.625L49.0312 19.9375H49.5C50.5833 17.9792 52.0417 16.4062 53.875 15.2188C55.7292 14.0104 57.7396 13.4062 59.9062 13.4062ZM69.0625 5.03125C69.0625 1.92708 70.7917 0.375 74.25 0.375C77.7083 0.375 79.4375 1.92708 79.4375 5.03125C79.4375 6.51042 79 7.66667 78.125 8.5C77.2708 9.3125 75.9792 9.71875 74.25 9.71875C70.7917 9.71875 69.0625 8.15625 69.0625 5.03125ZM79 49H69.4688V14.0625H79V49ZM103.219 49.625C92.3438 49.625 86.9062 43.6562 86.9062 31.7188C86.9062 25.7812 88.3854 21.25 91.3438 18.125C94.3021 14.9792 98.5417 13.4062 104.062 13.4062C108.104 13.4062 111.729 14.1979 114.938 15.7812L112.125 23.1562C110.625 22.5521 109.229 22.0625 107.938 21.6875C106.646 21.2917 105.354 21.0938 104.062 21.0938C99.1042 21.0938 96.625 24.6146 96.625 31.6562C96.625 38.4896 99.1042 41.9062 104.062 41.9062C105.896 41.9062 107.594 41.6667 109.156 41.1875C110.719 40.6875 112.281 39.9167 113.844 38.875V47.0312C112.302 48.0104 110.74 48.6875 109.156 49.0625C107.594 49.4375 105.615 49.625 103.219 49.625ZM121.562 5.03125C121.562 1.92708 123.292 0.375 126.75 0.375C130.208 0.375 131.938 1.92708 131.938 5.03125C131.938 6.51042 131.5 7.66667 130.625 8.5C129.771 9.3125 128.479 9.71875 126.75 9.71875C123.292 9.71875 121.562 8.15625 121.562 5.03125ZM131.5 49H121.969V14.0625H131.5V49ZM173.781 49H164.25V28.5938C164.25 26.0729 163.802 24.1875 162.906 22.9375C162.01 21.6667 160.583 21.0312 158.625 21.0312C155.958 21.0312 154.031 21.9271 152.844 23.7188C151.656 25.4896 151.062 28.4375 151.062 32.5625V49H141.531V14.0625H148.812L150.094 18.5312H150.625C151.688 16.8438 153.146 15.5729 155 14.7188C156.875 13.8438 159 13.4062 161.375 13.4062C165.438 13.4062 168.521 14.5104 170.625 16.7188C172.729 18.9062 173.781 22.0729 173.781 26.2188V49ZM214 14.0625V18.9062L208.531 20.3125C209.531 21.875 210.031 23.625 210.031 25.5625C210.031 29.3125 208.719 32.2396 206.094 34.3438C203.49 36.4271 199.865 37.4688 195.219 37.4688L193.5 37.375L192.094 37.2188C191.115 37.9688 190.625 38.8021 190.625 39.7188C190.625 41.0938 192.375 41.7812 195.875 41.7812H201.812C205.646 41.7812 208.562 42.6042 210.562 44.25C212.583 45.8958 213.594 48.3125 213.594 51.5C213.594 55.5833 211.885 58.75 208.469 61C205.073 63.25 200.188 64.375 193.812 64.375C188.938 64.375 185.208 63.5208 182.625 61.8125C180.062 60.125 178.781 57.75 178.781 54.6875C178.781 52.5833 179.438 50.8229 180.75 49.4062C182.062 47.9896 183.99 46.9792 186.531 46.375C185.552 45.9583 184.698 45.2812 183.969 44.3438C183.24 43.3854 182.875 42.375 182.875 41.3125C182.875 39.9792 183.26 38.875 184.031 38C184.802 37.1042 185.917 36.2292 187.375 35.375C185.542 34.5833 184.083 33.3125 183 31.5625C181.938 29.8125 181.406 27.75 181.406 25.375C181.406 21.5625 182.646 18.6146 185.125 16.5312C187.604 14.4479 191.146 13.4062 195.75 13.4062C196.729 13.4062 197.885 13.5 199.219 13.6875C200.573 13.8542 201.438 13.9792 201.812 14.0625H214ZM187.031 53.9375C187.031 55.25 187.656 56.2812 188.906 57.0312C190.177 57.7812 191.948 58.1562 194.219 58.1562C197.635 58.1562 200.312 57.6875 202.25 56.75C204.188 55.8125 205.156 54.5312 205.156 52.9062C205.156 51.5938 204.583 50.6875 203.438 50.1875C202.292 49.6875 200.521 49.4375 198.125 49.4375H193.188C191.438 49.4375 189.969 49.8438 188.781 50.6562C187.615 51.4896 187.031 52.5833 187.031 53.9375ZM190.5 25.5C190.5 27.3958 190.927 28.8958 191.781 30C192.656 31.1042 193.979 31.6562 195.75 31.6562C197.542 31.6562 198.854 31.1042 199.688 30C200.521 28.8958 200.938 27.3958 200.938 25.5C200.938 21.2917 199.208 19.1875 195.75 19.1875C192.25 19.1875 190.5 21.2917 190.5 25.5Z" fill="url(#paint0_linear_76_521)"/>
<defs>
<linearGradient id="paint0_linear_76_521" x1="105" y1="-19" x2="105" y2="115.519" gradientUnits="userSpaceOnUse">
<stop stop-color="white" stop-opacity="0.1"/>
<stop offset="0.536458" stop-color="white" stop-opacity="0"/>
</linearGradient>
</defs>
</svg>
