<svg width="295" height="65" viewBox="0 0 295 65" fill="none" xmlns="http://www.w3.org/2000/svg">
<path d="M9.875 23.5938H13C16.0625 23.5938 18.3229 23.0833 19.7812 22.0625C21.2396 21.0417 21.9688 19.4375 21.9688 17.25C21.9688 15.0833 21.2188 13.5417 19.7188 12.625C18.2396 11.7083 15.9375 11.25 12.8125 11.25H9.875V23.5938ZM9.875 31.4688V49H0.1875V3.3125H13.5C19.7083 3.3125 24.3021 4.44792 27.2812 6.71875C30.2604 8.96875 31.75 12.3958 31.75 17C31.75 19.6875 31.0104 22.0833 29.5312 24.1875C28.0521 26.2708 25.9583 27.9062 23.25 29.0938C30.125 39.3646 34.6042 46 36.6875 49H25.9375L15.0312 31.4688H9.875ZM49.2812 31.4688C49.2812 34.9271 49.8438 37.5417 50.9688 39.3125C52.1146 41.0833 53.9688 41.9688 56.5312 41.9688C59.0729 41.9688 60.8958 41.0938 62 39.3438C63.125 37.5729 63.6875 34.9479 63.6875 31.4688C63.6875 28.0104 63.125 25.4167 62 23.6875C60.875 21.9583 59.0312 21.0938 56.4688 21.0938C53.9271 21.0938 52.0938 21.9583 50.9688 23.6875C49.8438 25.3958 49.2812 27.9896 49.2812 31.4688ZM73.4375 31.4688C73.4375 37.1562 71.9375 41.6042 68.9375 44.8125C65.9375 48.0208 61.7604 49.625 56.4062 49.625C53.0521 49.625 50.0938 48.8958 47.5312 47.4375C44.9688 45.9583 43 43.8438 41.625 41.0938C40.25 38.3438 39.5625 35.1354 39.5625 31.4688C39.5625 25.7604 41.0521 21.3229 44.0312 18.1562C47.0104 14.9896 51.1979 13.4062 56.5938 13.4062C59.9479 13.4062 62.9062 14.1354 65.4688 15.5938C68.0312 17.0521 70 19.1458 71.375 21.875C72.75 24.6042 73.4375 27.8021 73.4375 31.4688ZM103.5 49L101.656 44.25H101.406C99.8021 46.2708 98.1458 47.6771 96.4375 48.4688C94.75 49.2396 92.5417 49.625 89.8125 49.625C86.4583 49.625 83.8125 48.6667 81.875 46.75C79.9583 44.8333 79 42.1042 79 38.5625C79 34.8542 80.2917 32.125 82.875 30.375C85.4792 28.6042 89.3958 27.625 94.625 27.4375L100.688 27.25V25.7188C100.688 22.1771 98.875 20.4062 95.25 20.4062C92.4583 20.4062 89.1771 21.25 85.4062 22.9375L82.25 16.5C86.2708 14.3958 90.7292 13.3438 95.625 13.3438C100.312 13.3438 103.906 14.3646 106.406 16.4062C108.906 18.4479 110.156 21.5521 110.156 25.7188V49H103.5ZM100.688 32.8125L97 32.9375C94.2292 33.0208 92.1667 33.5208 90.8125 34.4375C89.4583 35.3542 88.7812 36.75 88.7812 38.625C88.7812 41.3125 90.3229 42.6562 93.4062 42.6562C95.6146 42.6562 97.375 42.0208 98.6875 40.75C100.021 39.4792 100.688 37.7917 100.688 35.6875V32.8125ZM131.062 49.625C126.958 49.625 123.729 48.0312 121.375 44.8438C119.042 41.6562 117.875 37.2396 117.875 31.5938C117.875 25.8646 119.062 21.4062 121.438 18.2188C123.833 15.0104 127.125 13.4062 131.312 13.4062C135.708 13.4062 139.062 15.1146 141.375 18.5312H141.688C141.208 15.9271 140.969 13.6042 140.969 11.5625V0.375H150.531V49H143.219L141.375 44.4688H140.969C138.802 47.9062 135.5 49.625 131.062 49.625ZM134.406 42.0312C136.844 42.0312 138.625 41.3229 139.75 39.9062C140.896 38.4896 141.521 36.0833 141.625 32.6875V31.6562C141.625 27.9062 141.042 25.2188 139.875 23.5938C138.729 21.9688 136.854 21.1562 134.25 21.1562C132.125 21.1562 130.469 22.0625 129.281 23.875C128.115 25.6667 127.531 28.2812 127.531 31.7188C127.531 35.1562 128.125 37.7396 129.312 39.4688C130.5 41.1771 132.198 42.0312 134.406 42.0312ZM191.781 49H182.25V28.5938C182.25 26.0729 181.823 24.1875 180.969 22.9375C180.135 21.6667 178.812 21.0312 177 21.0312C174.562 21.0312 172.792 21.9271 171.688 23.7188C170.583 25.5104 170.031 28.4583 170.031 32.5625V49H160.5V14.0625H167.781L169.062 18.5312H169.594C170.531 16.9271 171.885 15.6771 173.656 14.7812C175.427 13.8646 177.458 13.4062 179.75 13.4062C184.979 13.4062 188.521 15.1146 190.375 18.5312H191.219C192.156 16.9062 193.531 15.6458 195.344 14.75C197.177 13.8542 199.24 13.4062 201.531 13.4062C205.49 13.4062 208.479 14.4271 210.5 16.4688C212.542 18.4896 213.562 21.7396 213.562 26.2188V49H204V28.5938C204 26.0729 203.573 24.1875 202.719 22.9375C201.885 21.6667 200.562 21.0312 198.75 21.0312C196.417 21.0312 194.667 21.8646 193.5 23.5312C192.354 25.1979 191.781 27.8438 191.781 31.4688V49ZM245.562 49L243.719 44.25H243.469C241.865 46.2708 240.208 47.6771 238.5 48.4688C236.812 49.2396 234.604 49.625 231.875 49.625C228.521 49.625 225.875 48.6667 223.938 46.75C222.021 44.8333 221.062 42.1042 221.062 38.5625C221.062 34.8542 222.354 32.125 224.938 30.375C227.542 28.6042 231.458 27.625 236.688 27.4375L242.75 27.25V25.7188C242.75 22.1771 240.938 20.4062 237.312 20.4062C234.521 20.4062 231.24 21.25 227.469 22.9375L224.312 16.5C228.333 14.3958 232.792 13.3438 237.688 13.3438C242.375 13.3438 245.969 14.3646 248.469 16.4062C250.969 18.4479 252.219 21.5521 252.219 25.7188V49H245.562ZM242.75 32.8125L239.062 32.9375C236.292 33.0208 234.229 33.5208 232.875 34.4375C231.521 35.3542 230.844 36.75 230.844 38.625C230.844 41.3125 232.385 42.6562 235.469 42.6562C237.677 42.6562 239.438 42.0208 240.75 40.75C242.083 39.4792 242.75 37.7917 242.75 35.6875V32.8125ZM281.25 49.625C277.146 49.625 273.927 48.1354 271.594 45.1562H271.094C271.427 48.0729 271.594 49.7604 271.594 50.2188V64.375H262.062V14.0625H269.812L271.156 18.5938H271.594C273.823 15.1354 277.125 13.4062 281.5 13.4062C285.625 13.4062 288.854 15 291.188 18.1875C293.521 21.375 294.688 25.8021 294.688 31.4688C294.688 35.1979 294.135 38.4375 293.031 41.1875C291.948 43.9375 290.396 46.0312 288.375 47.4688C286.354 48.9062 283.979 49.625 281.25 49.625ZM278.438 21.0312C276.083 21.0312 274.365 21.7604 273.281 23.2188C272.198 24.6562 271.635 27.0417 271.594 30.375V31.4062C271.594 35.1562 272.146 37.8438 273.25 39.4688C274.375 41.0938 276.146 41.9062 278.562 41.9062C282.833 41.9062 284.969 38.3854 284.969 31.3438C284.969 27.9062 284.438 25.3333 283.375 23.625C282.333 21.8958 280.688 21.0312 278.438 21.0312Z" fill="url(#paint0_linear_76_491)"/>
<defs>
<linearGradient id="paint0_linear_76_491" x1="146" y1="-19" x2="146" y2="115.519" gradientUnits="userSpaceOnUse">
<stop stop-color="white" stop-opacity="0.1"/>
<stop offset="0.536458" stop-color="white" stop-opacity="0"/>
</linearGradient>
</defs>
</svg>
