<svg width="625" height="512" viewBox="0 0 625 512" fill="none" xmlns="http://www.w3.org/2000/svg">
<path d="M528.645 281.699C528.645 280.169 494.67 231.634 449.72 205.18C411.854 182.946 387.106 183.82 387.106 183.82C387.106 183.82 443.621 225.665 469.375 258.306C481.283 273.11 490.927 289.599 497.993 307.235L528.645 281.699Z" fill="#E0E0E0"/>
<path d="M528.644 281.699L528.163 282.158L526.655 283.448L520.752 288.52L498.212 307.563L497.84 307.869L497.665 307.41C493.997 298.236 489.565 289.387 484.416 280.956C478.215 270.635 471.103 260.889 463.166 251.835C453.887 241.605 444.041 231.904 433.673 222.779C422.742 213.094 411.133 203.387 398.846 193.724C394.758 190.488 390.648 187.34 386.756 184.432L385.379 183.383H387.084C393.27 183.571 399.415 184.451 405.405 186.007C411.187 187.441 416.869 189.252 422.414 191.428C432.862 195.496 442.917 200.508 452.453 206.404C461.048 211.681 469.227 217.609 476.917 224.135C484.219 230.147 490.538 236.269 496.178 241.931C505.032 250.867 513.306 260.36 520.949 270.352C523.66 273.872 525.605 276.693 526.895 278.638C527.529 279.622 527.988 280.387 528.294 280.825C528.601 281.262 528.644 281.677 528.644 281.677C528.644 281.677 528.448 281.371 528.185 280.89C527.923 280.409 527.354 279.622 526.72 278.704C525.365 276.802 523.375 274.004 520.621 270.549C512.857 260.669 504.513 251.258 495.632 242.368C489.969 236.772 483.629 230.716 476.349 224.747C468.65 218.324 460.488 212.478 451.928 207.257C442.428 201.421 432.418 196.459 422.02 192.434C416.511 190.28 410.865 188.49 405.121 187.078C399.238 185.547 393.203 184.682 387.128 184.498L387.434 183.471C391.347 186.378 395.457 189.548 399.567 192.784C411.854 202.469 423.616 212.176 434.416 221.905C444.805 231.077 454.659 240.836 463.931 251.135C471.879 260.277 478.984 270.119 485.16 280.54C490.273 289.047 494.661 297.969 498.277 307.213L497.731 307.082L520.38 288.367L526.436 283.426L528.032 282.158C528.426 281.83 528.622 281.677 528.644 281.699Z" fill="#263238"/>
<path d="M571.583 343.942C573.047 344.467 609.099 391.537 620.074 441.559C629.322 483.732 620.424 506.25 620.424 506.25C620.424 506.25 598.211 440.531 574.95 406.163C564.358 390.281 551.497 376.036 536.777 363.881L571.583 343.942Z" fill="#E0E0E0"/>
<path d="M571.582 343.942C571.399 344.093 571.201 344.224 570.992 344.336L569.243 345.385L562.465 349.364L536.952 364.187V363.597C553.812 377.539 568.266 394.158 579.737 412.787C586.705 424.584 592.969 436.783 598.495 449.32C604.42 462.437 610.06 476.408 615.482 490.859C617.406 496.018 619.243 501.156 620.926 506.031H619.855C621.666 500.311 622.796 494.396 623.222 488.41C623.707 482.593 623.802 476.75 623.506 470.92C622.918 459.936 621.308 449.03 618.696 438.345C616.376 428.702 613.298 419.257 609.492 410.098C606.06 401.463 602.277 393.701 598.67 386.705C592.965 375.705 586.599 365.06 579.606 354.83C577.157 351.2 575.124 348.49 573.747 346.653L572.129 344.62L571.539 343.964C571.775 344.141 572.001 344.331 572.216 344.532C572.61 344.992 573.2 345.626 573.921 346.522C575.364 348.315 577.441 351.004 579.956 354.589C587.091 364.753 593.569 375.364 599.348 386.356C603.385 393.971 607.033 401.786 610.279 409.77C614.141 418.981 617.262 428.485 619.614 438.192C622.279 448.945 623.926 459.924 624.533 470.986C624.849 476.866 624.761 482.761 624.271 488.629C623.85 494.728 622.698 500.754 620.839 506.578L620.314 508.13L619.789 506.556C618.106 501.725 616.269 496.587 614.345 491.427C608.945 476.954 603.414 463.006 597.424 449.888C591.932 437.38 585.712 425.203 578.797 413.421C567.443 394.855 553.148 378.257 536.471 364.274L536.055 363.946L536.493 363.684L562.291 349.102L569.112 345.298L570.861 344.336L571.582 343.942Z" fill="#263238"/>
<path d="M528.054 276.519L483.586 311.652L527.464 375.25L574.906 344.271L528.054 276.519Z" fill="#0AC389"/>
<path d="M564.958 333.208L534.875 294.161L343.905 437.668L345.37 503.955L564.958 333.208Z" fill="url(#paint0_linear_247_113)"/>
<g opacity="0.3">
<path d="M395.632 398.796C395.632 398.796 411.483 407.869 417.495 420.418C422.13 429.906 426.24 441.012 426.24 441.012L416.314 448.73L386.778 405.529L395.632 398.796Z" fill="black"/>
</g>
<path d="M527.464 375.25C526.75 374.554 526.112 373.785 525.562 372.954L520.73 366.395C516.685 360.82 511.176 353.103 505.164 344.533C499.151 335.963 493.795 328.092 489.991 322.364C486.187 316.636 483.891 312.919 484.307 312.876L506.169 343.877L521.473 365.958L526.021 372.714C526.587 373.508 527.07 374.357 527.464 375.25V375.25Z" fill="#263238"/>
<path d="M233.631 204.371C232.581 181.11 231.641 157.695 234.614 134.586C237.588 111.477 244.627 88.4996 258.248 69.6103C260.303 66.7463 276.306 48.1194 279.608 49.3874C281.969 50.2837 270.229 68.539 270.863 70.9876C277.028 94.2713 273.552 119.282 265.309 141.91C257.099 163.845 246.466 184.795 233.609 204.371" fill="#263238"/>
<path d="M211.024 297.309L258.882 120.66C272.546 63.8169 313.145 21.8188 369.528 37.057L375.54 39.0684C400.214 47.2791 420.889 64.4824 433.449 87.2519C446.009 110.021 449.531 136.686 443.315 161.936C431.137 211.324 417.079 265.98 408.05 291.713C389.642 344.664 333.717 335.175 333.717 335.175C333.717 335.175 331.968 335.984 327.443 351.813L211.134 297.156L211.024 297.309Z" fill="#FFBF9D"/>
<path d="M333.608 335.263C333.608 335.263 299.437 326.037 271.212 291.691C271.212 291.691 272.677 338.958 327.334 351.9L333.608 335.263Z" fill="#FF9A6C"/>
<path d="M250.18 161.171C249.393 160.471 217.255 138.171 206.28 174.9C195.305 211.629 234.439 215.084 234.833 214.056C235.226 213.029 250.18 161.171 250.18 161.171Z" fill="#FFBF9D"/>
<path d="M227.115 196.741C226.984 196.566 226.328 196.981 225.104 197.156C223.387 197.363 221.659 196.884 220.294 195.823C216.84 193.243 215.419 186.116 217.211 179.426C218.054 176.251 219.601 173.307 221.737 170.812C222.421 169.765 223.35 168.901 224.443 168.295C225.537 167.69 226.762 167.36 228.012 167.336C228.807 167.358 229.569 167.659 230.165 168.186C230.76 168.714 231.151 169.434 231.269 170.221C231.466 171.38 231.007 172.058 231.269 172.167C231.531 172.276 232.231 171.795 232.406 170.178C232.462 169.207 232.193 168.245 231.641 167.445C230.849 166.39 229.683 165.678 228.383 165.455C226.785 165.309 225.177 165.572 223.708 166.218C222.24 166.864 220.96 167.873 219.988 169.15C217.476 171.864 215.667 175.152 214.719 178.726C212.73 186.203 214.457 194.27 219.31 197.397C220.21 197.979 221.23 198.351 222.294 198.483C223.358 198.616 224.438 198.506 225.454 198.162C226.765 197.593 227.224 196.828 227.115 196.741Z" fill="#FF9A6C"/>
<path d="M436.822 94.9931C443.73 93.4409 431.421 68.9548 418.697 58.0672C399.458 41.6265 367.452 25.6668 345.348 25.5575C318.764 25.4045 294.802 31.7446 276 50.5464C257.198 69.3483 245.021 94.053 238.353 119.807C236.32 127.656 234.767 136.007 237.041 143.856C239.818 153.476 248.213 161.455 244.54 172.562C243.812 174.556 243.487 176.674 243.585 178.795C243.682 180.915 244.2 182.995 245.108 184.914C249.765 194.031 259.953 189.68 265.703 184.039C277.968 171.949 283.849 154.984 289.336 138.653C293.25 127.066 297.207 115.194 297.141 102.951C297.141 96.3923 295.895 89.6586 296.245 83.0124C296.595 76.3662 298.825 69.3483 304.181 65.3693C305.403 64.5257 306.698 63.794 308.051 63.1831C314.485 60.1867 321.6 58.9577 328.666 59.6224C335.732 60.2872 342.494 62.8216 348.256 66.9653C366.861 80.3015 399.109 101.486 410.412 97.1356C426.634 90.8611 431.728 85.1768 431.728 85.1768L436.822 94.9931Z" fill="#263238"/>
<path d="M349.043 173.938C347.797 173.938 343.511 168.735 335.466 164.515C327.421 160.296 320.162 159.334 319.703 158.328C319.419 157.869 320.927 157.432 324.076 157.782C328.64 158.442 333.047 159.923 337.084 162.154C341.055 164.171 344.591 166.95 347.49 170.331C349.371 172.561 349.633 173.938 349.043 173.938Z" fill="#263238"/>
<path d="M330.219 181.394C329.657 183.224 328.405 184.765 326.729 185.69C325.053 186.616 323.083 186.855 321.234 186.357C320.317 186.147 319.452 185.756 318.69 185.206C317.927 184.657 317.282 183.96 316.793 183.157C316.304 182.354 315.981 181.461 315.842 180.531C315.704 179.602 315.753 178.653 315.987 177.743C316.545 175.914 317.792 174.374 319.465 173.448C321.137 172.522 323.105 172.283 324.951 172.78C325.867 172.99 326.733 173.381 327.497 173.931C328.26 174.48 328.906 175.176 329.397 175.979C329.888 176.781 330.214 177.673 330.355 178.603C330.496 179.533 330.45 180.482 330.219 181.394Z" fill="#263238"/>
<path d="M357.504 232.902C357.504 232.443 362.838 233.142 371.19 234.629C373.376 235.066 375.344 235.263 376.131 233.973C376.918 232.683 376.896 230.191 376.655 227.414C376.284 221.883 375.912 216.09 375.497 209.924C374.054 185.22 373.682 165.15 374.688 165.106C375.693 165.062 377.661 185.045 379.06 209.771C379.366 215.849 379.672 221.643 379.935 227.261C379.935 229.819 380.481 232.858 378.492 235.591C377.961 236.23 377.291 236.737 376.533 237.075C375.775 237.412 374.949 237.57 374.119 237.537C372.896 237.484 371.684 237.278 370.512 236.925C362.313 234.913 357.285 233.383 357.504 232.902Z" fill="#263238"/>
<path d="M357.503 171.468C355.142 172.605 350.551 166.003 343.184 160.078C335.816 154.153 328.47 150.699 329.257 148.228C329.651 147.091 332.274 146.436 336.144 146.982C341.011 147.793 345.576 149.883 349.371 153.038C353.15 156.084 356.023 160.106 357.678 164.669C358.946 168.276 358.706 170.943 357.503 171.468Z" fill="#263238"/>
<path d="M430.415 177.087C429.41 179.514 421.67 177.634 412.138 178.136C402.606 178.639 394.911 180.935 393.861 178.574C393.402 177.437 394.911 175.207 398.234 173.042C402.392 170.381 407.183 168.872 412.116 168.67C416.973 168.421 421.806 169.509 426.087 171.818C429.3 173.808 430.853 175.928 430.415 177.087Z" fill="#263238"/>
<path d="M349.371 259.027C349.721 258.065 342.353 256.207 336.909 249.626C334.638 246.733 332.763 243.549 331.334 240.16C330.11 237.515 329.148 235.787 328.82 236.006C328.492 236.225 328.623 237.952 329.367 240.86C330.318 244.753 332.117 248.389 334.635 251.507C337.199 254.646 340.57 257.027 344.386 258.393C347.359 259.355 349.283 259.333 349.371 259.027Z" fill="#263238"/>
<path d="M424.993 186.575C423.944 187.231 417.582 185.11 408.509 185.657C399.436 186.203 392.79 189.024 391.806 188.477C391.325 188.258 392.396 187.143 395.304 185.854C399.552 184.1 404.071 183.094 408.662 182.88C413.088 182.536 417.539 183.033 421.78 184.345C424.578 185.307 425.518 186.247 424.993 186.575Z" fill="#263238"/>
<path d="M403.568 206.186C403.015 208.023 401.765 209.57 400.086 210.498C398.407 211.425 396.432 211.659 394.583 211.149C393.669 210.939 392.806 210.548 392.045 210C391.284 209.452 390.64 208.758 390.151 207.957C389.662 207.157 389.338 206.267 389.198 205.339C389.058 204.412 389.105 203.466 389.336 202.557C389.894 200.724 391.144 199.18 392.822 198.253C394.499 197.327 396.472 197.09 398.321 197.594C399.235 197.804 400.098 198.195 400.859 198.743C401.62 199.291 402.264 199.986 402.753 200.786C403.241 201.587 403.565 202.477 403.705 203.404C403.845 204.331 403.799 205.277 403.568 206.186Z" fill="#263238"/>
<path d="M333.696 197.506C333.543 197.615 332.712 196.588 331.094 195.32C329.009 193.547 326.605 192.19 324.01 191.319C321.411 190.468 318.674 190.112 315.943 190.27C314.809 190.463 313.661 190.558 312.511 190.554C313.523 189.933 314.671 189.566 315.856 189.483C318.714 189.073 321.628 189.333 324.367 190.244C327.107 191.154 329.597 192.69 331.641 194.73C332.533 195.481 333.237 196.432 333.696 197.506Z" fill="#FF9A6C"/>
<path d="M498.518 168.757C498.518 168.757 473.55 175.906 432.121 166.068C390.691 156.23 371.124 144.97 347.797 136.991C328.12 130.279 269.682 113.926 248.409 110.646C227.137 107.367 223.071 107.41 223.071 107.41L232.887 90.0515L467.648 139.68C467.648 139.68 467.429 141.341 474.206 147.332C480.984 153.322 512.838 166.571 498.518 168.757Z" fill="#455A64"/>
<path d="M474.097 171.249C459.952 171.151 445.865 169.413 432.121 166.068C410.79 160.975 389.931 154.078 369.769 145.451C362.292 142.412 355.23 139.527 347.797 136.991C337.806 133.58 318.085 127.765 298.693 122.517C276.131 116.418 257.81 112.089 248.409 110.646C227.727 107.454 223.267 107.41 223.071 107.41L232.887 90.0515L467.626 139.636C467.626 139.636 467.626 141.385 474.184 147.244C477.898 150.004 481.832 152.453 485.947 154.568C494.189 159.181 502.715 163.969 502.212 166.745C502.037 167.707 500.835 168.341 498.539 168.691C492.748 170.082 486.828 170.873 480.874 171.052C478.841 171.184 476.589 171.249 474.097 171.249ZM223.158 107.301C223.88 107.301 229.039 107.542 248.431 110.537C257.832 111.98 276.153 116.308 298.715 122.408C318.107 127.655 337.849 133.471 347.819 136.881C355.274 139.417 362.335 142.303 369.812 145.364C389.972 153.973 410.823 160.862 432.143 165.958C448.074 169.849 464.463 171.541 480.853 170.987C486.799 170.804 492.711 170.013 498.496 168.626V168.626C500.682 168.298 501.928 167.664 502.081 166.767C502.584 164.056 493.708 159.094 485.881 154.699C481.755 152.592 477.813 150.142 474.097 147.375C467.997 141.931 467.538 140.029 467.538 139.723L232.996 90.1608L223.158 107.301Z" fill="#263238"/>
<path d="M368.435 4.0226C368.435 4.0226 437.587 17.3151 453.044 68.2768C459.953 91.6144 464.839 115.504 467.648 139.68L330.482 116.287L232.887 90.0519C232.887 90.0519 261.986 -22.0813 368.435 4.0226Z" fill="url(#paint1_linear_247_113)"/>
<path d="M467.713 139.724L330.482 116.287L232.887 90.0518C234.546 84.1979 236.621 78.4699 239.096 72.9115C244.616 60.0608 251.893 48.0383 260.718 37.188C271.68 23.5079 285.988 12.8898 302.257 6.36173C321.934 -1.20273 344.059 -2.03351 368.348 3.93498C381.02 6.78358 393.291 11.1896 404.88 17.0525C415.291 22.1424 424.873 28.7761 433.302 36.7289C442.455 45.394 449.23 56.2643 452.978 68.2985C459.886 91.6363 464.772 115.526 467.582 139.702L467.713 139.724ZM233.04 90.0518L330.504 116.134L467.582 139.592C464.767 115.417 459.881 91.5284 452.978 68.1892C449.216 56.1806 442.442 45.335 433.302 36.6851C424.883 28.7197 415.299 22.0846 404.88 17.0088C393.318 11.1997 381.075 6.85906 368.435 4.088V4.088C344.168 -1.88049 321.955 -1.04971 302.388 6.51475C286.125 13.0314 271.817 23.6339 260.849 37.2973C252.025 48.1404 244.749 60.1555 239.227 72.9989C236.773 78.5333 234.706 84.2313 233.04 90.0518V90.0518Z" fill="url(#paint2_linear_247_113)"/>
<path d="M441.893 135.307H441.325L439.707 135.46C437.623 135.69 435.529 135.815 433.433 135.832C425.725 135.941 418.021 135.451 410.39 134.367C391.019 131.896 364.697 125.622 336.516 116.068C322.393 111.346 309.231 106.077 297.163 101.77C291.107 99.5834 285.292 97.7251 279.804 96.1292C274.317 94.5332 269.135 93.3307 264.347 92.4125C256.789 90.9425 249.113 90.1523 241.414 90.0514C238.703 89.9202 236.582 90.0514 235.161 90.0514H233.521C233.34 90.0857 233.155 90.0857 232.974 90.0514C233.156 90.0224 233.34 90.0224 233.521 90.0514L235.139 89.9421C236.582 89.9421 238.703 89.6579 241.414 89.7235C249.134 89.6467 256.844 90.3203 264.435 91.7348C269.245 92.6093 274.448 93.7899 280.001 95.3203C285.554 96.8507 291.37 98.7527 297.491 100.895C309.669 105.158 322.83 110.384 336.844 115.106C360.787 123.477 385.429 129.696 410.477 133.689C418.069 134.83 425.733 135.429 433.411 135.482C436.144 135.482 438.243 135.482 439.664 135.351H441.303L441.893 135.307Z" fill="#263238"/>
<path d="M278.317 31.2407C278.708 31.1215 279.112 31.0553 279.52 31.0439C280.329 31.0439 281.509 30.8034 283.018 30.7378C287.326 30.5352 291.643 30.7255 295.917 31.3063C302.266 32.179 308.475 33.8692 314.391 36.3347C317.883 37.7909 321.253 39.5235 324.469 41.5161C326.231 42.5234 327.874 43.7262 329.367 45.1016C330.957 46.5764 332.081 48.4837 332.602 50.5891C333.52 54.9616 332.209 59.028 331.4 62.7884C330.591 66.5488 329.651 70.2654 328.842 73.7197C327.18 80.672 325.694 86.8373 324.469 92.281C323.245 97.7248 322.283 101.682 321.408 104.786C321.059 106.142 320.753 107.279 320.512 108.175C320.417 108.57 320.293 108.957 320.14 109.334C320.141 108.921 320.192 108.51 320.293 108.11C320.468 107.213 320.709 106.076 320.971 104.677L323.682 92.1062C324.885 86.7498 326.306 80.4534 327.858 73.4792C328.66 69.9812 329.49 66.3374 330.35 62.5479C331.181 58.7657 332.384 54.7648 331.531 50.8733C330.678 46.9818 327.158 44.4676 323.945 42.4781C320.773 40.52 317.463 38.7956 314.041 37.3185C304.26 33.1481 293.715 31.0703 283.083 31.2188C280.001 31.197 278.339 31.35 278.317 31.2407Z" fill="#263238"/>
<g opacity="0.3">
<path d="M462.116 131.262L390.144 117.554C387.958 125.709 391.74 134.563 397.796 140.444C403.852 146.326 411.898 149.649 419.987 152.01C427.63 154.265 435.47 155.788 443.402 156.557C447.257 157.091 451.176 156.966 454.989 156.186C456.887 155.78 458.682 154.988 460.261 153.86C461.841 152.732 463.172 151.291 464.171 149.627C467.144 143.943 464.63 137.1 462.116 131.262Z" fill="black"/>
</g>
<path d="M438.833 64.7566C446.762 64.697 454.58 66.629 461.57 70.3753C469.418 74.7478 477.18 82.4653 476.873 95.6266C476.086 121.862 463.603 143.484 446.441 146.37C429.279 149.256 412.379 138.149 405.383 134.127C398.387 130.104 385.247 118.495 387.762 101.333C388.564 94.6661 391.014 88.3044 394.893 82.823C398.771 77.3415 403.954 72.9131 409.974 69.938C417.22 66.3562 425.22 64.5644 433.301 64.7129L438.833 64.7566Z" fill="#455A64"/>
<path d="M438.833 64.757H438.133H436.078C434.263 64.757 431.596 64.757 428.186 65.0412C424.053 65.4295 419.98 66.3027 416.052 67.6429C413.613 68.4813 411.256 69.5425 409.012 70.813C406.457 72.187 404.059 73.8365 401.863 75.732C396.812 80.0595 392.952 85.6059 390.647 91.8448C388.264 98.4036 386.778 106.427 389.358 114.057C392.179 122.012 397.673 128.742 404.902 133.1C412.494 138.1 420.751 142.008 429.432 144.709C433.834 145.925 438.403 146.427 442.965 146.195C447.384 145.993 451.673 144.636 455.405 142.26C458.991 139.944 462.112 136.978 464.609 133.515C467.026 130.185 469.058 126.591 470.665 122.802C473.542 115.72 475.347 108.248 476.021 100.634C476.021 98.8408 476.261 97.0918 476.327 95.3647C476.363 93.6822 476.253 91.9998 475.999 90.3363C475.526 87.2068 474.466 84.195 472.873 81.4601C469.94 76.8327 465.837 73.0618 460.979 70.5288C457.34 68.5204 453.43 67.0477 449.37 66.1562C446.806 65.6004 444.205 65.2277 441.587 65.0412L439.532 64.9101H438.833C439.065 64.8914 439.299 64.8914 439.532 64.9101H441.587C444.231 65.0102 446.862 65.3172 449.458 65.8283C453.586 66.6235 457.573 68.0309 461.285 70.0041C466.296 72.5392 470.532 76.3753 473.55 81.1103C475.208 83.8566 476.335 86.8897 476.873 90.0521C477.142 91.7657 477.267 93.499 477.245 95.2335C477.245 96.9825 477.07 98.7534 476.961 100.568C476.324 108.285 474.526 115.862 471.627 123.043C469.999 126.907 467.938 130.574 465.483 133.974C462.923 137.578 459.704 140.664 455.995 143.069C452.118 145.559 447.654 146.984 443.052 147.201C438.365 147.454 433.668 146.937 429.148 145.671C419.943 143.266 411.898 138.565 404.333 134.061C396.88 129.561 391.228 122.603 388.352 114.385C387.113 110.543 386.703 106.482 387.149 102.47C387.557 98.7297 388.438 95.0564 389.773 91.5387C393.303 82.4321 400.014 74.9135 408.662 70.3757C410.955 69.1074 413.364 68.0606 415.855 67.2494C419.841 65.9292 423.976 65.1067 428.164 64.8007C430.8 64.6509 433.442 64.6509 436.078 64.8007H438.133C438.364 64.7582 438.599 64.7435 438.833 64.757V64.757Z" fill="#263238"/>
<path d="M420.556 100.567C416.773 123.742 427.114 135.285 440.494 138.106C453.874 140.926 465.461 124.201 467.298 107.673C469.178 90.7074 468.369 80.1477 455.033 77.3493C441.697 74.5509 423.245 84.1486 420.556 100.567Z" fill="white"/>
<path d="M420.556 100.568C420.615 99.9797 420.709 99.3956 420.84 98.819C421.178 97.1297 421.714 95.486 422.436 93.9217C423.553 91.4469 425.026 89.1488 426.808 87.1006C429.243 84.4285 432.102 82.1756 435.269 80.4325C439.111 78.2888 443.353 76.9568 447.731 76.5191C452.819 75.895 457.965 77.079 462.269 79.8641C464.527 81.5008 466.228 83.7898 467.145 86.4228C468.034 89.141 468.499 91.9801 468.522 94.84C468.594 97.7585 468.492 100.679 468.216 103.585C468.022 106.592 467.606 109.581 466.97 112.527C466.318 115.484 465.373 118.37 464.15 121.141C462.967 123.839 461.501 126.403 459.777 128.793C458.127 131.13 456.137 133.207 453.874 134.958C451.71 136.69 449.173 137.895 446.463 138.478C443.87 139.009 441.184 138.874 438.658 138.084C436.283 137.451 434.009 136.487 431.902 135.22C428.093 132.956 424.995 129.668 422.961 125.732C420.171 120.02 418.999 113.654 419.572 107.323C419.662 105.615 419.859 103.913 420.162 102.23C420.23 101.64 420.34 101.055 420.49 100.48C420.508 101.08 420.471 101.68 420.381 102.273C420.25 103.432 420.075 105.137 420.031 107.345C419.629 113.565 420.882 119.781 423.66 125.36C425.672 129.13 428.702 132.258 432.405 134.389C434.449 135.606 436.658 136.519 438.964 137.1C441.335 137.841 443.857 137.961 446.288 137.45C448.843 136.886 451.231 135.733 453.262 134.083C455.428 132.393 457.329 130.389 458.903 128.137C460.58 125.815 461.995 123.315 463.122 120.682C464.32 117.983 465.243 115.17 465.877 112.286C466.498 109.405 466.907 106.482 467.101 103.541C467.383 100.672 467.493 97.7881 467.429 94.9055C467.408 92.1597 466.973 89.4327 466.139 86.8164C465.342 84.3646 463.817 82.2139 461.767 80.6511C459.716 79.2485 457.404 78.2743 454.967 77.7871C452.648 77.3505 450.28 77.2255 447.928 77.4155C443.665 77.8009 439.528 79.0585 435.772 81.1103C432.642 82.7624 429.805 84.9193 427.377 87.4941C425.628 89.4718 424.157 91.6783 423.004 94.0529C422.249 95.5655 421.663 97.1564 421.255 98.7971C421.076 99.4072 420.842 99.9998 420.556 100.568V100.568Z" fill="#263238"/>
<path d="M416.227 140.073C415.913 139.905 415.626 139.691 415.374 139.439C414.591 138.767 413.86 138.036 413.188 137.253C410.743 134.377 408.812 131.101 407.482 127.568C405.498 122.33 404.361 116.81 404.115 111.215C403.75 104.347 404.776 97.4754 407.132 91.0137C409.525 84.5399 413.51 78.7731 418.719 74.2451C422.937 70.5216 427.901 67.7413 433.28 66.0903C436.894 64.9889 440.686 64.5882 444.452 64.9097C445.476 64.9851 446.493 65.146 447.49 65.3907C447.839 65.4421 448.178 65.5453 448.496 65.6968C448.149 65.7547 447.794 65.7547 447.447 65.6968C446.448 65.5397 445.44 65.4448 444.43 65.4126C440.726 65.272 437.026 65.7826 433.498 66.9211C428.284 68.6443 423.483 71.4283 419.397 75.0977C414.36 79.5521 410.507 85.1858 408.181 91.4947C405.878 97.7881 404.845 104.476 405.143 111.171C405.328 116.662 406.368 122.091 408.225 127.262C409.463 130.757 411.249 134.034 413.516 136.969C415.178 139.024 416.292 140.008 416.227 140.073Z" fill="#263238"/>
<g opacity="0.3">
<path d="M281.422 31.2633L274.098 30.9135C290.59 26.9435 307.895 28.0174 323.77 33.9961C328.919 35.5327 333.489 38.5791 336.887 42.7411C340.101 47.3323 340.67 53.3008 340.473 58.9195C339.926 75.8192 332.056 92.4567 321.081 105.312C324.251 91.2761 328.864 77.2403 332.012 63.2045C333.149 58.2199 334.198 52.5574 331.247 48.3598C329.323 45.5833 321.999 40.8172 319.091 39.1557C308.772 33.2746 301.929 32.0941 289.883 31.5475" fill="black"/>
</g>
<path d="M409.253 107.038C409.105 106.527 409.039 105.996 409.056 105.464C409.006 104.004 409.064 102.543 409.231 101.092C410.354 91.4733 415.033 82.6225 422.348 76.2776C423.435 75.3242 424.597 74.4614 425.825 73.6978C426.699 73.1513 427.202 72.8889 427.246 72.9545C427.289 73.02 425.497 74.3974 422.873 76.8679C419.504 80.1153 416.664 83.8701 414.456 87.9959C412.321 92.1127 410.846 96.5391 410.083 101.114C409.449 104.786 409.449 107.038 409.253 107.038Z" fill="white"/>
<path d="M384.898 92.2386C384.443 91.1153 384.234 89.9076 384.285 88.6968C384.239 85.7571 384.774 82.8372 385.859 80.1048C386.942 77.3754 388.563 74.892 390.626 72.8027C392.222 71.2286 393.424 70.6165 393.511 70.6165C390.642 73.4118 388.392 76.7795 386.908 80.5007C385.424 84.2219 384.739 88.2136 384.898 92.2167V92.2386Z" fill="white"/>
<path d="M400.376 21.3384C401.063 21.4573 401.731 21.663 402.366 21.9505C404.125 22.6334 405.847 23.4069 407.525 24.268C418.691 29.9524 428.139 38.5102 434.897 49.0601C435.921 50.6391 436.855 52.2741 437.696 53.9574C438.056 54.5565 438.329 55.2044 438.505 55.8813C438.33 55.8813 436.931 53.3889 434.132 49.4974C430.608 44.4595 426.539 39.8258 421.998 35.6802C417.43 31.5617 412.414 27.9683 407.044 24.9675C403 22.672 400.289 21.5133 400.376 21.3384Z" fill="white"/>
<path d="M0.00647256 512C0.00647256 512 -1.39275 379.557 36.9543 352.666C73.2024 327.261 157.898 311.389 191.217 306.754L211.024 281.787C211.024 281.787 292.091 322.036 325.475 338.411C340.123 345.604 332.034 363.903 332.034 363.903C332.034 363.903 403.415 400.501 413.931 429.644C424.447 458.787 433.301 511.082 433.301 511.082L0.00647256 512Z" fill="#263238"/>
<path d="M226.853 318.823C227.996 309.677 232.222 301.195 238.834 294.774C239.118 294.992 235.095 299.605 231.816 306.295C228.536 312.985 227.203 318.888 226.853 318.823Z" fill="#455A64"/>
<path d="M268.02 339.394C272.382 331.18 274.38 321.917 273.792 312.635C274.304 313.93 274.571 315.309 274.579 316.701C275.07 323.404 273.621 330.106 270.403 336.006C269.817 337.268 269.01 338.416 268.02 339.394V339.394Z" fill="#455A64"/>
<path d="M298.89 355.551C300.91 351.313 302.421 346.852 303.394 342.259C303.984 337.602 304.036 332.892 303.547 328.223C304.154 329.502 304.524 330.879 304.64 332.29C305.138 335.663 305.101 339.094 304.531 342.456C303.965 345.815 302.865 349.063 301.273 352.075C300.693 353.367 299.886 354.544 298.89 355.551V355.551Z" fill="#455A64"/>
<path d="M544.647 180.52C543.869 180.119 543.136 179.635 542.461 179.077C541.062 178.093 539.051 176.628 536.624 174.704C531.749 170.987 525.146 165.653 518.106 159.4C511.067 153.148 504.989 147.332 500.616 142.96C498.43 140.773 496.747 139.002 495.588 137.734C494.941 137.112 494.362 136.423 493.861 135.679C494.6 136.179 495.281 136.758 495.894 137.406L501.141 142.522C505.514 146.742 511.788 152.492 518.784 158.679C525.78 164.866 532.317 170.244 537.061 174.114L542.658 178.727C543.388 179.246 544.055 179.847 544.647 180.52Z" fill="#263238"/>
<path d="M583.891 132.028C583.891 132.356 565.592 129.602 543.161 125.907C520.73 122.212 502.562 118.954 502.606 118.627C502.649 118.299 520.883 121.075 543.336 124.77C565.788 128.465 583.934 131.722 583.891 132.028Z" fill="#263238"/>
<path d="M562.728 84.2144C562.728 84.5205 549.151 88.3245 532.251 92.7189C515.352 97.1133 501.644 100.436 501.513 100.13C501.381 99.8242 515.067 96.0202 531.967 91.6258C548.867 87.2314 562.64 83.9083 562.728 84.2144Z" fill="#263238"/>
<path d="M204.772 357.235C198.999 366.452 190.628 373.752 180.713 378.218C170.798 382.683 159.782 384.114 149.055 382.328C138.329 380.542 128.37 375.621 120.436 368.185C112.502 360.748 106.947 351.129 104.472 340.54C101.997 329.951 102.711 318.866 106.526 308.683C110.341 298.5 117.086 289.674 125.909 283.318C134.733 276.962 145.241 273.361 156.108 272.968C166.975 272.575 177.716 275.408 186.975 281.11C193.159 284.925 198.527 289.924 202.772 295.821C207.016 301.718 210.052 308.397 211.706 315.471C213.36 322.546 213.599 329.878 212.409 337.046C211.219 344.213 208.623 351.075 204.772 357.235V357.235Z" fill="#0AC389"/>
<g opacity="0.1">
<path d="M186.975 281.11C180.805 277.306 173.945 274.756 166.788 273.607C159.631 272.458 152.317 272.733 145.267 274.414C138.216 276.096 131.566 279.151 125.697 283.407C119.829 287.662 114.858 293.033 111.068 299.212C111.068 299.212 143.053 321.074 159.166 312.657C175.279 304.24 186.975 281.11 186.975 281.11Z" fill="white"/>
</g>
<path d="M193.25 349.081C188.854 356.082 182.484 361.624 174.942 365.01C167.401 368.396 159.026 369.474 150.873 368.107C142.72 366.741 135.154 362.991 129.129 357.331C123.104 351.671 118.889 344.354 117.016 336.302C115.143 328.251 115.695 319.825 118.604 312.087C121.512 304.349 126.646 297.645 133.359 292.82C140.071 287.995 148.062 285.266 156.324 284.975C164.585 284.685 172.748 286.847 179.783 291.189C184.482 294.093 188.561 297.898 191.784 302.385C195.008 306.871 197.311 311.951 198.563 317.332C199.815 322.713 199.99 328.289 199.078 333.737C198.166 339.186 196.185 344.401 193.25 349.081V349.081Z" fill="#0AC389"/>
<g opacity="0.2">
<path d="M193.25 349.081C188.854 356.082 182.484 361.624 174.942 365.01C167.401 368.396 159.026 369.474 150.873 368.107C142.72 366.741 135.154 362.991 129.129 357.331C123.104 351.671 118.889 344.354 117.016 336.302C115.143 328.251 115.695 319.825 118.604 312.087C121.512 304.349 126.646 297.645 133.359 292.82C140.071 287.995 148.062 285.266 156.324 284.975C164.585 284.685 172.748 286.847 179.783 291.189C184.482 294.093 188.561 297.898 191.784 302.385C195.008 306.871 197.311 311.951 198.563 317.332C199.815 322.713 199.99 328.289 199.078 333.737C198.166 339.186 196.185 344.401 193.25 349.081V349.081Z" fill="black"/>
</g>
<path d="M193.338 351.201C189.002 358.115 182.717 363.59 175.274 366.936C167.831 370.283 159.564 371.35 151.515 370.004C143.467 368.659 135.996 364.96 130.047 359.374C124.098 353.788 119.936 346.566 118.086 338.618C116.236 330.67 116.78 322.352 119.651 314.713C122.522 307.074 127.591 300.456 134.218 295.694C140.845 290.932 148.734 288.239 156.889 287.955C165.045 287.67 173.102 289.807 180.045 294.096C184.679 296.962 188.701 300.715 191.88 305.141C195.058 309.567 197.33 314.577 198.566 319.884C199.801 325.191 199.975 330.69 199.078 336.064C198.18 341.439 196.23 346.583 193.338 351.201V351.201Z" fill="#0AC389"/>
<g opacity="0.2">
<path d="M193.338 351.201C189.002 358.115 182.717 363.59 175.274 366.936C167.831 370.283 159.564 371.35 151.515 370.004C143.467 368.659 135.996 364.96 130.047 359.374C124.098 353.788 119.936 346.566 118.086 338.618C116.236 330.67 116.78 322.352 119.651 314.713C122.522 307.074 127.591 300.456 134.218 295.694C140.845 290.932 148.734 288.239 156.889 287.955C165.045 287.67 173.102 289.807 180.045 294.096C184.679 296.962 188.701 300.715 191.88 305.141C195.058 309.567 197.33 314.577 198.566 319.884C199.801 325.191 199.975 330.69 199.078 336.064C198.18 341.439 196.23 346.583 193.338 351.201V351.201Z" fill="white"/>
</g>
<path d="M170.141 348.447C173.399 343.812 173.29 339.264 170.885 335.766C172.759 335.791 174.608 335.334 176.254 334.438C177.9 333.542 179.289 332.238 180.286 330.65C181.862 328.591 182.619 326.021 182.409 323.436C182.199 320.851 181.037 318.436 179.149 316.658L183.084 311.04L177.903 307.389L174.23 312.614L171.278 310.559L174.951 305.334L169.748 301.704L166.097 306.93L161.374 303.606L158.073 301.311L154.444 306.492L157.723 308.81L140.058 334.039L136.407 331.503L132.778 336.685L136.429 339.243L141.173 342.544L136.801 348.622L142.004 352.251L146.245 346.173L149.197 348.359L144.934 354.437L150.137 358.066L154.51 351.792C161.046 354.962 166.446 353.716 170.141 348.447ZM164.304 313.467L171.344 318.407C175.235 321.118 176.307 324.31 173.989 327.612C171.672 330.913 168.37 330.957 164.457 328.224L156.477 322.627L163.364 312.811L164.304 313.467ZM154.794 344.424L146.289 338.477L145.677 338.062L152.892 327.765L161.987 334.149C166.228 337.122 167.43 340.314 164.938 343.877C162.446 347.441 159.035 347.332 154.794 344.358V344.424Z" fill="#0AC389"/>
<g opacity="0.3">
<path d="M170.141 348.447C173.399 343.812 173.29 339.264 170.885 335.766C172.759 335.791 174.608 335.334 176.254 334.438C177.9 333.542 179.289 332.238 180.286 330.65C181.862 328.591 182.619 326.021 182.409 323.436C182.199 320.851 181.037 318.436 179.149 316.658L183.084 311.04L177.903 307.389L174.23 312.614L171.278 310.559L174.951 305.334L169.748 301.704L166.097 306.93L161.374 303.606L158.073 301.311L154.444 306.492L157.723 308.81L140.058 334.039L136.407 331.503L132.778 336.685L136.429 339.243L141.173 342.544L136.801 348.622L142.004 352.251L146.245 346.173L149.197 348.359L144.934 354.437L150.137 358.066L154.51 351.792C161.046 354.962 166.446 353.716 170.141 348.447ZM164.304 313.467L171.344 318.407C175.235 321.118 176.307 324.31 173.989 327.612C171.672 330.913 168.37 330.957 164.457 328.224L156.477 322.627L163.364 312.811L164.304 313.467ZM154.794 344.424L146.289 338.477L145.677 338.062L152.892 327.765L161.987 334.149C166.228 337.122 167.43 340.314 164.938 343.877C162.446 347.441 159.035 347.332 154.794 344.358V344.424Z" fill="black"/>
</g>
<path d="M167.627 346.676C170.863 342.042 170.753 337.494 168.37 333.996C170.242 334.034 172.09 333.585 173.735 332.692C175.379 331.798 176.763 330.492 177.75 328.902C179.33 326.842 180.091 324.269 179.886 321.681C179.68 319.092 178.521 316.672 176.635 314.888L180.57 309.269L175.367 305.64L171.672 310.865L168.72 308.788L172.371 303.563L167.299 299.934L163.648 305.159L158.904 301.836L155.625 299.541L151.995 304.722L155.297 307.04L137.61 332.269L133.981 329.733L130.264 334.914L133.893 337.472L138.616 340.773L134.374 346.851L139.556 350.502L143.819 344.425L146.77 346.48L142.507 352.557L147.688 356.187L152.061 349.912C158.554 353.191 163.932 351.945 167.627 346.676ZM161.79 311.696L168.808 316.615C172.721 319.348 173.792 322.518 171.475 325.819C169.158 329.121 165.834 329.164 161.943 326.432L153.963 320.857L160.85 311.019L161.79 311.696ZM152.258 342.632L143.775 336.685L143.163 336.27L150.356 325.994L159.472 332.356C163.714 335.33 164.894 338.522 162.402 342.085C159.91 345.649 156.521 345.561 152.258 342.588V342.632Z" fill="#0AC389"/>
<path d="M227.727 479.906H88.1346V511.083H227.727V479.906Z" fill="#0AC389"/>
<path d="M224.054 418.451H84.4615V449.627H224.054V418.451Z" fill="#0AC389"/>
<path d="M244.015 448.73H104.422V479.906H244.015V448.73Z" fill="#0AC389"/>
<path d="M226.197 449.626C226.197 449.932 194.452 450.194 155.318 450.194C116.184 450.194 84.4179 449.932 84.4179 449.626C84.4179 449.32 116.162 449.057 155.318 449.057C194.474 449.057 226.197 449.32 226.197 449.626Z" fill="#263238"/>
<path d="M244.015 479.906C244.015 480.212 209.034 480.474 165.703 480.474C122.371 480.474 87.3472 480.212 87.3472 479.906C87.3472 479.6 122.327 479.338 165.703 479.338C209.078 479.338 244.015 479.6 244.015 479.906Z" fill="#263238"/>
<path d="M99.5247 448.906C98.7668 438.768 98.7668 428.588 99.5247 418.451C100.283 428.588 100.283 438.768 99.5247 448.906Z" fill="#263238"/>
<path d="M115.157 448.906C114.399 438.768 114.399 428.588 115.157 418.451C115.915 428.588 115.915 438.768 115.157 448.906V448.906Z" fill="#263238"/>
<path d="M130.81 448.906C130.052 438.768 130.052 428.588 130.81 418.451C131.568 428.588 131.568 438.768 130.81 448.906V448.906Z" fill="#263238"/>
<path d="M146.442 448.906C145.684 438.768 145.684 428.588 146.442 418.451C147.2 428.588 147.2 438.768 146.442 448.906V448.906Z" fill="#263238"/>
<path d="M162.096 448.906C161.338 438.768 161.338 428.588 162.096 418.451C162.854 428.588 162.854 438.768 162.096 448.906V448.906Z" fill="#263238"/>
<path d="M177.749 448.906C176.991 438.768 176.991 428.588 177.749 418.451C178.507 428.588 178.507 438.768 177.749 448.906Z" fill="#263238"/>
<path d="M193.381 448.906C192.623 438.768 192.623 428.588 193.381 418.451C194.139 428.588 194.139 438.768 193.381 448.906V448.906Z" fill="#263238"/>
<path d="M209.035 448.906C208.277 438.768 208.277 428.588 209.035 418.451C209.793 428.588 209.793 438.768 209.035 448.906V448.906Z" fill="#263238"/>
<path d="M119.201 480.825C118.443 470.695 118.443 460.522 119.201 450.392C119.959 460.522 119.959 470.695 119.201 480.825V480.825Z" fill="#263238"/>
<path d="M134.855 480.825C134.097 470.695 134.097 460.522 134.855 450.392C135.613 460.522 135.613 470.695 134.855 480.825V480.825Z" fill="#263238"/>
<path d="M150.509 480.825C149.722 470.696 149.722 460.521 150.509 450.392C151.267 460.522 151.267 470.695 150.509 480.825V480.825Z" fill="#263238"/>
<path d="M166.14 480.825C165.382 470.695 165.382 460.522 166.14 450.392C166.898 460.522 166.898 470.695 166.14 480.825V480.825Z" fill="#263238"/>
<path d="M181.794 480.825C181.036 470.695 181.036 460.522 181.794 450.392C182.552 460.522 182.552 470.695 181.794 480.825V480.825Z" fill="#263238"/>
<path d="M197.448 480.825C196.69 470.695 196.69 460.522 197.448 450.392C198.206 460.522 198.206 470.695 197.448 480.825V480.825Z" fill="#263238"/>
<path d="M213.079 480.825C212.321 470.695 212.321 460.522 213.079 450.392C213.837 460.522 213.837 470.695 213.079 480.825V480.825Z" fill="#263238"/>
<path d="M228.733 480.825C227.975 470.695 227.975 460.522 228.733 450.392C229.491 460.522 229.491 470.695 228.733 480.825V480.825Z" fill="#263238"/>
<path d="M102.892 510.711C102.134 500.581 102.134 490.408 102.892 480.278C103.65 490.408 103.65 500.581 102.892 510.711V510.711Z" fill="#263238"/>
<path d="M118.545 510.711C117.787 500.581 117.787 490.408 118.545 480.278C119.303 490.408 119.303 500.581 118.545 510.711V510.711Z" fill="#263238"/>
<path d="M134.199 510.711C133.441 500.581 133.441 490.408 134.199 480.278C134.957 490.408 134.957 500.581 134.199 510.711V510.711Z" fill="#263238"/>
<path d="M149.809 510.711C149.051 500.581 149.051 490.408 149.809 480.278C150.596 490.407 150.596 500.582 149.809 510.711V510.711Z" fill="#263238"/>
<path d="M165.485 510.711C164.727 500.581 164.727 490.408 165.485 480.278C166.243 490.408 166.243 500.581 165.485 510.711V510.711Z" fill="#263238"/>
<path d="M181.138 510.711C180.38 500.581 180.38 490.408 181.138 480.278C181.896 490.408 181.896 500.581 181.138 510.711V510.711Z" fill="#263238"/>
<path d="M196.792 510.711C196.034 500.581 196.034 490.408 196.792 480.278C197.55 490.408 197.55 500.581 196.792 510.711V510.711Z" fill="#263238"/>
<path d="M212.424 510.711C211.666 500.581 211.666 490.408 212.424 480.278C213.181 490.408 213.181 500.581 212.424 510.711V510.711Z" fill="#263238"/>
<defs>
<linearGradient id="paint0_linear_247_113" x1="537.354" y1="307.069" x2="405.078" y2="415.724" gradientUnits="userSpaceOnUse">
<stop offset="0.234375" stop-color="#0AC389"/>
<stop offset="1" stop-color="#3EA4CC"/>
</linearGradient>
<linearGradient id="paint1_linear_247_113" x1="350.268" y1="0.0820312" x2="350.268" y2="139.68" gradientUnits="userSpaceOnUse">
<stop stop-color="#3EA4CC"/>
<stop offset="1" stop-color="#0AC389"/>
</linearGradient>
<linearGradient id="paint2_linear_247_113" x1="350.3" y1="0" x2="350.3" y2="139.724" gradientUnits="userSpaceOnUse">
<stop stop-color="#3EA4CC"/>
<stop offset="1" stop-color="#0AC389"/>
</linearGradient>
</defs>
</svg>
