<svg width="48" height="40" viewBox="0 0 48 40" fill="none" xmlns="http://www.w3.org/2000/svg">
<path d="M40.6182 21.6443C40.6182 21.5267 38.0077 17.7975 34.5541 15.7649C31.6446 14.0566 29.7431 14.1238 29.7431 14.1238C29.7431 14.1238 34.0854 17.3389 36.0642 19.8469C36.9791 20.9843 37.7202 22.2512 38.2631 23.6063L40.6182 21.6443Z" fill="#E0E0E0"/>
<path d="M40.6182 21.6443L40.5812 21.6795L40.4653 21.7786L40.0118 22.1684L38.2799 23.6315L38.2513 23.655L38.2379 23.6197C37.9561 22.9149 37.6156 22.235 37.2199 21.5871C36.7434 20.7941 36.197 20.0453 35.5872 19.3496C34.8742 18.5636 34.1177 17.8183 33.3211 17.1172C32.4812 16.373 31.5892 15.6272 30.6452 14.8847C30.331 14.6361 30.0152 14.3942 29.7162 14.1708L29.6104 14.0902H29.7414C30.2167 14.1046 30.6889 14.1722 31.1491 14.2918C31.5934 14.402 32.0299 14.5411 32.456 14.7083C33.2588 15.0208 34.0313 15.406 34.7641 15.859C35.4245 16.2645 36.0529 16.7199 36.6438 17.2213C37.2048 17.6833 37.6903 18.1536 38.1237 18.5887C38.804 19.2753 39.4397 20.0047 40.0269 20.7724C40.2352 21.0429 40.3847 21.2596 40.4838 21.4091C40.5325 21.4847 40.5678 21.5435 40.5913 21.5771C40.6148 21.6107 40.6182 21.6426 40.6182 21.6426C40.6182 21.6426 40.6031 21.6191 40.5829 21.5821C40.5627 21.5452 40.5191 21.4847 40.4703 21.4141C40.3662 21.268 40.2133 21.053 40.0017 20.7876C39.4052 20.0284 38.764 19.3054 38.0817 18.6223C37.6466 18.1923 37.1594 17.727 36.6001 17.2684C36.0085 16.7749 35.3814 16.3257 34.7237 15.9245C33.9938 15.4761 33.2247 15.0949 32.4258 14.7856C32.0024 14.6201 31.5687 14.4826 31.1273 14.3741C30.6753 14.2565 30.2116 14.19 29.7448 14.1759L29.7683 14.0969C30.069 14.3203 30.3848 14.5639 30.7006 14.8125C31.6447 15.5566 32.5484 16.3025 33.3782 17.05C34.1764 17.7547 34.9335 18.5046 35.6459 19.2959C36.2566 19.9983 36.8026 20.7545 37.277 21.5552C37.6699 22.2088 38.0071 22.8944 38.2849 23.6046L38.2429 23.5945L39.9832 22.1566L40.4485 21.777L40.5711 21.6795C40.6014 21.6543 40.6165 21.6426 40.6182 21.6443Z" fill="#263238"/>
<path d="M43.9173 26.4267C44.0298 26.467 46.7998 30.0836 47.6431 33.927C48.3536 37.1673 47.67 38.8975 47.67 38.8975C47.67 38.8975 45.9633 33.848 44.176 31.2074C43.3622 29.9871 42.374 28.8926 41.243 27.9586L43.9173 26.4267Z" fill="#E0E0E0"/>
<path d="M43.9173 26.4267C43.9032 26.4382 43.888 26.4483 43.872 26.4569L43.7376 26.5375L43.2168 26.8433L41.2565 27.9822V27.9368C42.5519 29.0081 43.6625 30.285 44.5439 31.7164C45.0793 32.6228 45.5605 33.5601 45.9851 34.5233C46.4404 35.5312 46.8738 36.6046 47.2904 37.7149C47.4382 38.1114 47.5793 38.5061 47.7086 38.8807H47.6263C47.7655 38.4412 47.8523 37.9867 47.885 37.5268C47.9223 37.0799 47.9296 36.6309 47.9068 36.183C47.8617 35.339 47.7379 34.5011 47.5373 33.6801C47.359 32.9391 47.1225 32.2135 46.8301 31.5098C46.5664 30.8462 46.2758 30.2499 45.9986 29.7124C45.5603 28.8671 45.0711 28.0492 44.5338 27.2632C44.3457 26.9844 44.1894 26.7761 44.0836 26.635L43.9593 26.4787L43.914 26.4283C43.9321 26.442 43.9495 26.4565 43.966 26.472C43.9963 26.5073 44.0416 26.556 44.097 26.6249C44.2079 26.7626 44.3675 26.9692 44.5607 27.2447C45.1089 28.0257 45.6066 28.8409 46.0507 29.6855C46.3609 30.2706 46.6412 30.8711 46.8906 31.4846C47.1873 32.1923 47.4271 32.9225 47.6078 33.6683C47.8126 34.4945 47.9391 35.3381 47.9858 36.188C48.01 36.6398 48.0033 37.0927 47.9656 37.5436C47.9333 38.0122 47.8448 38.4752 47.7019 38.9227L47.6616 39.042L47.6213 38.921C47.4919 38.5498 47.3508 38.1551 47.203 37.7586C46.7881 36.6466 46.3631 35.5749 45.9028 34.567C45.4809 33.6059 45.003 32.6703 44.4716 31.7651C43.5992 30.3385 42.5009 29.0632 41.2195 27.9889L41.1876 27.9637L41.2212 27.9435L43.2034 26.8231L43.7275 26.5308L43.8619 26.4569L43.9173 26.4267Z" fill="#263238"/>
<path d="M40.5729 21.2462L37.1561 23.9456L40.5275 28.8322L44.1727 26.4519L40.5729 21.2462Z" fill="#0AC389"/>
<path d="M43.4083 25.6019L41.0969 22.6017L26.4238 33.628L26.5364 38.7211L43.4083 25.6019Z" fill="url(#paint0_linear_5_759)"/>
<g opacity="0.3">
<path d="M30.3982 30.6413C30.3982 30.6413 31.6161 31.3384 32.078 32.3026C32.4341 33.0317 32.7499 33.885 32.7499 33.885L31.9873 34.478L29.7179 31.1587L30.3982 30.6413Z" fill="black"/>
</g>
<path d="M40.5275 28.8321C40.4726 28.7787 40.4236 28.7195 40.3813 28.6557L40.0101 28.1518C39.6993 27.7234 39.276 27.1305 38.8141 26.472C38.3521 25.8135 37.9406 25.2088 37.6483 24.7687C37.356 24.3286 37.1796 24.043 37.2115 24.0396L38.8913 26.4216L40.0672 28.1182L40.4166 28.6373C40.4601 28.6983 40.4972 28.7636 40.5275 28.8321Z" fill="#263238"/>
<path d="M17.9509 15.7028C17.8703 13.9155 17.7981 12.1164 18.0265 10.3408C18.255 8.56528 18.7959 6.79981 19.8424 5.34846C20.0003 5.1284 21.2299 3.69721 21.4835 3.79464C21.665 3.86351 20.7629 5.26615 20.8116 5.45428C21.2853 7.24328 21.0182 9.16497 20.385 10.9036C19.7541 12.5889 18.9371 14.1986 17.9492 15.7028" fill="#263238"/>
<path d="M16.214 22.8437L19.8911 9.27084C20.941 4.90334 24.0604 1.67644 28.3926 2.84726L28.8545 3.0018C30.7503 3.63267 32.3389 4.95448 33.3039 6.70397C34.2689 8.45346 34.5396 10.5022 34.0619 12.4423C33.1263 16.237 32.0461 20.4365 31.3524 22.4136C29.938 26.4821 25.641 25.7531 25.641 25.7531C25.641 25.7531 25.5067 25.8152 25.1589 27.0314L16.2224 22.8319L16.214 22.8437Z" fill="#FFBF9D"/>
<path d="M25.6326 25.7598C25.6326 25.7598 23.0071 25.0509 20.8384 22.4119C20.8384 22.4119 20.951 26.0437 25.1505 27.0381L25.6326 25.7598Z" fill="#FF9A6C"/>
<path d="M19.2225 12.3835C19.162 12.3297 16.6927 10.6163 15.8494 13.4384C15.0062 16.2605 18.013 16.5259 18.0433 16.4469C18.0735 16.368 19.2225 12.3835 19.2225 12.3835Z" fill="#FFBF9D"/>
<path d="M17.4503 15.1165C17.4402 15.1031 17.3899 15.135 17.2958 15.1485C17.1639 15.1643 17.0311 15.1275 16.9262 15.046C16.6608 14.8478 16.5516 14.3002 16.6894 13.7861C16.7541 13.5422 16.8729 13.316 17.0371 13.1243C17.0896 13.0439 17.161 12.9775 17.245 12.931C17.329 12.8844 17.4232 12.8591 17.5192 12.8572C17.5803 12.8589 17.6389 12.882 17.6846 12.9226C17.7304 12.9631 17.7604 13.0185 17.7695 13.0789C17.7846 13.168 17.7493 13.22 17.7695 13.2284C17.7896 13.2368 17.8434 13.1999 17.8568 13.0756C17.8611 13.001 17.8404 12.9271 17.798 12.8656C17.7372 12.7845 17.6477 12.7298 17.5478 12.7127C17.425 12.7015 17.3014 12.7217 17.1886 12.7713C17.0757 12.821 16.9774 12.8985 16.9027 12.9966C16.7097 13.2052 16.5707 13.4578 16.4979 13.7324C16.345 14.3069 16.4777 14.9267 16.8506 15.1669C16.9198 15.2117 16.9982 15.2403 17.0799 15.2504C17.1617 15.2606 17.2446 15.2522 17.3227 15.2257C17.4234 15.1821 17.4587 15.1233 17.4503 15.1165Z" fill="#FF9A6C"/>
<path d="M33.563 7.29872C34.0938 7.17946 33.1481 5.29807 32.1704 4.46153C30.6922 3.19832 28.233 1.97206 26.5347 1.96366C24.4921 1.9519 22.651 2.43905 21.2064 3.88368C19.7617 5.32831 18.8261 7.22649 18.3137 9.2053C18.1575 9.80834 18.0382 10.45 18.2129 11.0531C18.4263 11.7922 19.0713 12.4053 18.7891 13.2587C18.7332 13.4119 18.7082 13.5747 18.7157 13.7376C18.7232 13.9005 18.763 14.0603 18.8328 14.2078C19.1906 14.9082 19.9734 14.5739 20.4152 14.1406C21.3575 13.2116 21.8094 11.9081 22.231 10.6533C22.5317 9.76299 22.8358 8.85086 22.8307 7.91017C22.8307 7.40623 22.735 6.88885 22.7619 6.37819C22.7887 5.86753 22.9601 5.32831 23.3716 5.02259C23.4655 4.95777 23.565 4.90154 23.6689 4.85461C24.1633 4.62438 24.71 4.52995 25.2529 4.58103C25.7959 4.6321 26.3154 4.82684 26.7581 5.14521C28.1876 6.16989 30.6653 7.79762 31.5338 7.46334C32.7802 6.98124 33.1716 6.54449 33.1716 6.54449L33.563 7.29872Z" fill="#263238"/>
<path d="M26.8185 13.3645C26.7228 13.3645 26.3935 12.9647 25.7754 12.6405C25.1572 12.3163 24.5995 12.2424 24.5642 12.1651C24.5424 12.1299 24.6583 12.0963 24.9002 12.1231C25.2509 12.1739 25.5895 12.2877 25.8997 12.4591C26.2048 12.6141 26.4765 12.8275 26.6993 13.0873C26.8437 13.2587 26.8639 13.3645 26.8185 13.3645Z" fill="#263238"/>
<path d="M25.3723 13.9373C25.329 14.0779 25.2329 14.1963 25.1041 14.2674C24.9753 14.3386 24.8239 14.3569 24.6819 14.3186C24.6115 14.3025 24.545 14.2725 24.4864 14.2302C24.4278 14.188 24.3782 14.1345 24.3407 14.0728C24.3031 14.0111 24.2783 13.9425 24.2676 13.871C24.257 13.7996 24.2608 13.7268 24.2787 13.6568C24.3216 13.5163 24.4174 13.398 24.546 13.3268C24.6745 13.2557 24.8256 13.2373 24.9674 13.2755C25.0379 13.2916 25.1044 13.3217 25.1631 13.3639C25.2217 13.4061 25.2714 13.4596 25.3091 13.5212C25.3468 13.5829 25.3718 13.6514 25.3827 13.7229C25.3935 13.7944 25.39 13.8673 25.3723 13.9373Z" fill="#263238"/>
<path d="M27.4687 17.8949C27.4687 17.8597 27.8785 17.9134 28.5202 18.0276C28.6882 18.0612 28.8394 18.0763 28.8999 17.9772C28.9603 17.8781 28.9587 17.6866 28.9402 17.4733C28.9116 17.0483 28.8831 16.6032 28.8511 16.1295C28.7403 14.2313 28.7117 12.6892 28.789 12.6859C28.8663 12.6825 29.0174 14.2178 29.125 16.1177C29.1485 16.5847 29.172 17.0298 29.1921 17.4615C29.1921 17.6581 29.2341 17.8916 29.0813 18.1016C29.0405 18.1506 28.989 18.1896 28.9308 18.2155C28.8725 18.2415 28.809 18.2536 28.7453 18.251C28.6513 18.247 28.5582 18.2312 28.4682 18.204C27.8382 18.0495 27.4519 17.9319 27.4687 17.8949Z" fill="#263238"/>
<path d="M27.4687 13.1747C27.2872 13.262 26.9345 12.7547 26.3684 12.2995C25.8023 11.8443 25.2379 11.5789 25.2983 11.389C25.3286 11.3017 25.5302 11.2513 25.8275 11.2933C26.2015 11.3556 26.5522 11.5162 26.8438 11.7586C27.1341 11.9926 27.3549 12.3017 27.4821 12.6523C27.5795 12.9294 27.561 13.1344 27.4687 13.1747Z" fill="#263238"/>
<path d="M33.0708 13.6064C32.9935 13.7929 32.3989 13.6484 31.6665 13.687C30.9341 13.7257 30.3428 13.9021 30.2622 13.7206C30.2269 13.6333 30.3428 13.4619 30.5981 13.2956C30.9177 13.0912 31.2858 12.9752 31.6648 12.9597C32.038 12.9405 32.4093 13.0242 32.7382 13.2016C32.9851 13.3544 33.1044 13.5174 33.0708 13.6064Z" fill="#263238"/>
<path d="M26.8438 19.9023C26.8707 19.8284 26.3046 19.6856 25.8863 19.18C25.7118 18.9577 25.5677 18.7131 25.458 18.4526C25.3639 18.2494 25.29 18.1167 25.2648 18.1335C25.2396 18.1503 25.2497 18.283 25.3068 18.5064C25.3798 18.8056 25.5181 19.0849 25.7116 19.3245C25.9086 19.5656 26.1676 19.7486 26.4608 19.8536C26.6892 19.9275 26.8371 19.9258 26.8438 19.9023Z" fill="#263238"/>
<path d="M32.6542 14.3354C32.5736 14.3858 32.0848 14.2229 31.3876 14.2649C30.6905 14.3069 30.1799 14.5236 30.1043 14.4816C30.0673 14.4648 30.1496 14.3791 30.373 14.28C30.6994 14.1453 31.0467 14.068 31.3994 14.0515C31.7395 14.0251 32.0814 14.0633 32.4073 14.1641C32.6223 14.238 32.6945 14.3102 32.6542 14.3354Z" fill="#263238"/>
<path d="M31.008 15.8422C30.9655 15.9833 30.8695 16.1022 30.7404 16.1735C30.6114 16.2447 30.4597 16.2627 30.3176 16.2235C30.2474 16.2074 30.1811 16.1774 30.1226 16.1352C30.0641 16.0931 30.0147 16.0398 29.9771 15.9783C29.9395 15.9168 29.9147 15.8484 29.9039 15.7771C29.8931 15.7059 29.8967 15.6332 29.9144 15.5633C29.9573 15.4225 30.0534 15.3039 30.1823 15.2327C30.3112 15.1615 30.4628 15.1433 30.6048 15.182C30.6751 15.1982 30.7414 15.2282 30.7998 15.2703C30.8583 15.3124 30.9078 15.3658 30.9453 15.4273C30.9829 15.4888 31.0078 15.5572 31.0185 15.6284C31.0293 15.6997 31.0257 15.7723 31.008 15.8422Z" fill="#263238"/>
<path d="M25.6393 15.1753C25.6276 15.1837 25.5637 15.1048 25.4394 15.0073C25.2792 14.8712 25.0945 14.7668 24.8952 14.6999C24.6954 14.6345 24.4852 14.6072 24.2753 14.6193C24.1882 14.6341 24.1 14.6414 24.0116 14.6411C24.0894 14.5935 24.1776 14.5652 24.2686 14.5588C24.4882 14.5273 24.7121 14.5474 24.9226 14.6173C25.1331 14.6873 25.3244 14.8053 25.4814 14.962C25.55 15.0198 25.6041 15.0928 25.6393 15.1753Z" fill="#FF9A6C"/>
<path d="M38.3034 12.9664C38.3034 12.9664 36.385 13.5157 33.2018 12.7598C30.0186 12.0039 28.5152 11.1388 26.7228 10.5256C25.211 10.0099 20.7209 8.75345 19.0864 8.50148C17.452 8.24951 17.1395 8.25286 17.1395 8.25286L17.8938 6.9191L35.9315 10.7323C35.9315 10.7323 35.9147 10.8599 36.4354 11.3202C36.9562 11.7805 39.4036 12.7984 38.3034 12.9664Z" fill="#455A64"/>
<path d="M36.427 13.1579C35.3402 13.1504 34.2579 13.0168 33.2018 12.7598C31.5629 12.3685 29.9602 11.8385 28.411 11.1757C27.8365 10.9422 27.2939 10.7205 26.7228 10.5256C25.9551 10.2636 24.4399 9.81676 22.95 9.41361C21.2164 8.94494 19.8087 8.61234 19.0864 8.50148C17.4973 8.25622 17.1546 8.25286 17.1395 8.25286L17.8938 6.9191L35.9298 10.7289C35.9298 10.7289 35.9298 10.8633 36.4338 11.3135C36.7191 11.5255 37.0213 11.7137 37.3375 11.8762C37.9708 12.2306 38.6259 12.5985 38.5873 12.8118C38.5738 12.8858 38.4814 12.9345 38.3051 12.9614C37.86 13.0682 37.4052 13.129 36.9478 13.1428C36.7916 13.1528 36.6185 13.1579 36.427 13.1579ZM17.1462 8.24447C17.2017 8.24447 17.5981 8.26294 19.0881 8.49307C19.8104 8.60394 21.2181 8.93654 22.9516 9.40521C24.4416 9.80836 25.9585 10.2552 26.7245 10.5172C27.2973 10.7121 27.8399 10.9338 28.4144 11.169C29.9633 11.8305 31.5654 12.3598 33.2035 12.7514C34.4276 13.0503 35.6868 13.1803 36.9461 13.1377C37.403 13.1237 37.8572 13.0629 38.3017 12.9563C38.4697 12.9311 38.5654 12.8824 38.5772 12.8135C38.6158 12.6052 37.9338 12.2239 37.3324 11.8863C37.0154 11.7244 36.7126 11.5361 36.427 11.3235C35.9584 10.9053 35.9231 10.7591 35.9231 10.7356L17.9022 6.9275L17.1462 8.24447Z" fill="#263238"/>
<path d="M28.3086 0.309058C28.3086 0.309058 33.6218 1.33038 34.8094 5.246C35.3403 7.03914 35.7157 8.87467 35.9315 10.7322L25.3924 8.93485L17.8938 6.91909C17.8938 6.91909 20.1296 -1.69663 28.3086 0.309058Z" fill="url(#paint1_linear_5_759)"/>
<path d="M35.9366 10.7356L25.3924 8.93486L17.8938 6.91909C18.0213 6.46931 18.1807 6.0292 18.3709 5.60212C18.795 4.61475 19.3541 3.69101 20.0322 2.85733C20.8744 1.80622 21.9738 0.990381 23.2238 0.488801C24.7356 -0.0924114 26.4356 -0.156244 28.3019 0.302343C29.2755 0.521213 30.2183 0.859747 31.1088 1.31023C31.9087 1.7013 32.6449 2.211 33.2926 2.82205C33.9959 3.48783 34.5164 4.32304 34.8044 5.24769C35.3352 7.04084 35.7106 8.87636 35.9265 10.7339L35.9366 10.7356ZM17.9056 6.91909L25.3941 8.9231L35.9265 10.7255C35.7102 8.86804 35.3348 7.03255 34.8044 5.23929C34.5153 4.31661 33.9948 3.48329 33.2926 2.81869C32.6457 2.20667 31.9094 1.69686 31.1088 1.30686C30.2204 0.860522 29.2797 0.527013 28.3086 0.3141C26.444 -0.144487 24.7373 -0.0806541 23.2339 0.500558C21.9843 1.00126 20.885 1.8159 20.0423 2.86572C19.3643 3.69885 18.8052 4.62203 18.3809 5.60884C18.1924 6.03408 18.0335 6.47188 17.9056 6.91909Z" fill="url(#paint2_linear_5_759)"/>
<path d="M33.9527 10.3963H33.9091L33.7847 10.4081C33.6246 10.4258 33.4637 10.4353 33.3026 10.4366C32.7104 10.445 32.1185 10.4074 31.5321 10.3241C30.0438 10.1343 28.0213 9.65215 25.8561 8.91807C24.7709 8.55524 23.7597 8.1504 22.8324 7.81948C22.3671 7.6515 21.9203 7.50872 21.4987 7.38609C21.077 7.26347 20.6789 7.17108 20.311 7.10053C19.7303 6.98758 19.1405 6.92686 18.5489 6.91911C18.3406 6.90903 18.1777 6.91911 18.0685 6.91911H17.9425C17.9286 6.92174 17.9144 6.92174 17.9005 6.91911C17.9144 6.91688 17.9286 6.91688 17.9425 6.91911L18.0668 6.91071C18.1777 6.91071 18.3406 6.88887 18.5489 6.89391C19.1422 6.88801 19.7345 6.93977 20.3178 7.04845C20.6873 7.11565 21.0871 7.20636 21.5138 7.32394C21.9404 7.44153 22.3873 7.58767 22.8576 7.75229C23.7933 8.07985 24.8045 8.48133 25.8813 8.84416C27.7209 9.48732 29.6143 9.96516 31.5388 10.272C32.1222 10.3596 32.7111 10.4057 33.301 10.4097C33.5109 10.4097 33.6722 10.4097 33.7814 10.3997H33.9074L33.9527 10.3963Z" fill="#263238"/>
<path d="M21.3844 2.40044C21.4144 2.39127 21.4455 2.38619 21.4768 2.38532C21.5389 2.38532 21.6296 2.36684 21.7456 2.3618C22.0766 2.34623 22.4083 2.36085 22.7366 2.40548C23.2245 2.47253 23.7016 2.60239 24.1561 2.79183C24.4244 2.90372 24.6833 3.03685 24.9305 3.18994C25.0658 3.26734 25.1921 3.35975 25.3067 3.46543C25.4289 3.57874 25.5153 3.72529 25.5553 3.88706C25.6259 4.22302 25.5251 4.53547 25.463 4.82439C25.4008 5.11332 25.3286 5.39889 25.2664 5.66429C25.1388 6.19847 25.0245 6.67217 24.9305 7.09045C24.8364 7.50872 24.7625 7.81276 24.6953 8.05129C24.6684 8.15544 24.6449 8.2428 24.6264 8.31167C24.6191 8.34201 24.6096 8.37177 24.5979 8.4007C24.5979 8.36898 24.6018 8.33738 24.6096 8.30663C24.6231 8.23776 24.6415 8.1504 24.6617 8.0429L24.87 7.07701C24.9624 6.66546 25.0716 6.18167 25.1908 5.64582C25.2524 5.37705 25.3163 5.09708 25.3823 4.80591C25.4462 4.51531 25.5385 4.2079 25.473 3.9089C25.4075 3.60989 25.1371 3.41672 24.8901 3.26386C24.6465 3.11341 24.3921 2.98091 24.1292 2.86742C23.3777 2.54699 22.5675 2.38734 21.7506 2.39875C21.5137 2.39707 21.3861 2.40883 21.3844 2.40044Z" fill="#263238"/>
<g opacity="0.3">
<path d="M35.5065 10.0855L29.9766 9.03229C29.8086 9.65885 30.0992 10.3392 30.5645 10.791C31.0298 11.2429 31.648 11.4982 32.2695 11.6797C32.8568 11.8529 33.4592 11.9699 34.0686 12.0291C34.3648 12.0701 34.6659 12.0604 34.9589 12.0005C35.1047 11.9693 35.2426 11.9085 35.364 11.8218C35.4854 11.7351 35.5876 11.6244 35.6644 11.4966C35.8929 11.0598 35.6997 10.534 35.5065 10.0855Z" fill="black"/>
</g>
<path d="M33.7175 4.97557C34.3268 4.971 34.9275 5.11944 35.4645 5.40728C36.0676 5.74324 36.6639 6.33621 36.6404 7.34745C36.5799 9.36322 35.6207 11.0245 34.3021 11.2463C32.9834 11.468 31.685 10.6147 31.1474 10.3056C30.6099 9.99651 29.6003 9.10453 29.7935 7.78589C29.8551 7.27366 30.0434 6.78486 30.3414 6.36369C30.6394 5.94253 31.0377 5.60227 31.5002 5.37369C32.0569 5.09848 32.6716 4.9608 33.2925 4.97221L33.7175 4.97557Z" fill="#455A64"/>
<path d="M33.7175 4.97555H33.6638H33.5059C33.3664 4.97555 33.1615 4.97555 32.8995 4.99739C32.5819 5.02722 32.269 5.09431 31.9672 5.19729C31.7798 5.26171 31.5987 5.34324 31.4263 5.44086C31.2299 5.54643 31.0457 5.67317 30.877 5.81881C30.4889 6.15131 30.1923 6.57747 30.0152 7.05683C29.8321 7.56077 29.7179 8.17726 29.9161 8.76351C30.1329 9.37474 30.555 9.89184 31.1105 10.2266C31.6938 10.6108 32.3283 10.9111 32.9952 11.1186C33.3335 11.212 33.6845 11.2506 34.035 11.2328C34.3746 11.2173 34.7041 11.113 34.9908 10.9305C35.2664 10.7525 35.5062 10.5246 35.698 10.2585C35.8837 10.0027 36.0398 9.72652 36.1633 9.43543C36.3844 8.89128 36.5231 8.31719 36.5749 7.73211C36.5749 7.59437 36.5933 7.45998 36.5984 7.32728C36.6011 7.19801 36.5927 7.06874 36.5732 6.94092C36.5369 6.70047 36.4554 6.46906 36.333 6.25892C36.1076 5.90338 35.7924 5.61365 35.4192 5.41902C35.1395 5.26471 34.8391 5.15155 34.5272 5.08306C34.3301 5.04035 34.1303 5.01172 33.9292 4.99739L33.7713 4.98731H33.7175C33.7354 4.98588 33.7534 4.98588 33.7713 4.98731H33.9292C34.1323 4.995 34.3345 5.01859 34.5339 5.05786C34.8511 5.11896 35.1574 5.2271 35.4427 5.37871C35.8276 5.57349 36.1531 5.86824 36.3851 6.23205C36.5124 6.44306 36.599 6.67611 36.6404 6.91909C36.661 7.05075 36.6706 7.18393 36.6689 7.3172C36.6689 7.45158 36.6555 7.58765 36.6471 7.72707C36.5982 8.32003 36.46 8.9022 36.2372 9.45391C36.1121 9.75082 35.9538 10.0326 35.7652 10.2938C35.5685 10.5707 35.3211 10.8078 35.0362 10.9926C34.7383 11.1839 34.3953 11.2934 34.0417 11.3101C33.6816 11.3295 33.3207 11.2898 32.9734 11.1925C32.2662 11.0077 31.648 10.6466 31.0668 10.3005C30.4941 9.95475 30.0599 9.42013 29.8388 8.78871C29.7437 8.49351 29.7122 8.18148 29.7465 7.87321C29.7777 7.58583 29.8455 7.30359 29.948 7.03331C30.2193 6.33361 30.7349 5.75592 31.3994 5.40726C31.5756 5.30981 31.7606 5.22938 31.952 5.16705C32.2583 5.06561 32.576 5.00242 32.8978 4.97891C33.1003 4.9674 33.3033 4.9674 33.5059 4.97891H33.6638C33.6815 4.97564 33.6995 4.97452 33.7175 4.97555Z" fill="#263238"/>
<path d="M32.3132 7.72706C32.0226 9.50766 32.8172 10.3946 33.8452 10.6113C34.8732 10.828 35.7635 9.54293 35.9046 8.273C36.0491 6.96947 35.9869 6.15813 34.9623 5.94311C33.9376 5.7281 32.5198 6.46553 32.3132 7.72706Z" fill="white"/>
<path d="M32.3132 7.72707C32.3177 7.68187 32.325 7.637 32.335 7.59269C32.361 7.46289 32.4022 7.3366 32.4577 7.21641C32.5435 7.02626 32.6567 6.84969 32.7936 6.69231C32.9807 6.487 33.2004 6.31391 33.4437 6.17997C33.7389 6.01526 34.0648 5.91292 34.4012 5.87929C34.7922 5.83134 35.1876 5.9223 35.5183 6.1363C35.6917 6.26205 35.8224 6.43793 35.8929 6.64024C35.9612 6.84909 35.9969 7.06723 35.9987 7.28696C36.0042 7.51121 35.9963 7.73558 35.9752 7.95889C35.9603 8.18995 35.9283 8.41959 35.8794 8.64593C35.8293 8.87318 35.7567 9.09489 35.6627 9.30777C35.5718 9.51506 35.4592 9.71214 35.3268 9.8957C35.2 10.0753 35.0471 10.2349 34.8732 10.3694C34.707 10.5025 34.512 10.5951 34.3038 10.6399C34.1045 10.6807 33.8982 10.6703 33.7041 10.6096C33.5216 10.5609 33.3469 10.4869 33.185 10.3896C32.8924 10.2156 32.6543 9.963 32.498 9.66053C32.2837 9.22168 32.1936 8.73253 32.2376 8.24613C32.2445 8.11484 32.2596 7.98412 32.283 7.85474C32.2882 7.80941 32.2966 7.7645 32.3082 7.72035C32.3095 7.76643 32.3067 7.81253 32.2998 7.8581C32.2897 7.94713 32.2762 8.07815 32.2729 8.24781C32.242 8.72572 32.3382 9.20328 32.5517 9.63197C32.7063 9.92161 32.9391 10.162 33.2237 10.3257C33.3807 10.4192 33.5504 10.4894 33.7276 10.534C33.9098 10.5909 34.1035 10.6002 34.2903 10.5609C34.4866 10.5175 34.6701 10.429 34.8262 10.3022C34.9926 10.1723 35.1387 10.0183 35.2596 9.84531C35.3884 9.66691 35.4972 9.4748 35.5838 9.27249C35.6758 9.06514 35.7468 8.84904 35.7954 8.62745C35.8432 8.40608 35.8746 8.1815 35.8895 7.95553C35.9112 7.73506 35.9196 7.51348 35.9147 7.292C35.9131 7.08103 35.8796 6.8715 35.8156 6.67048C35.7544 6.48209 35.6372 6.31685 35.4796 6.19677C35.3221 6.089 35.1444 6.01415 34.9572 5.97672C34.779 5.94317 34.5971 5.93357 34.4163 5.94816C34.0888 5.97777 33.7709 6.0744 33.4823 6.23205C33.2418 6.35899 33.0239 6.52471 32.8373 6.72255C32.703 6.8745 32.5899 7.04404 32.5013 7.22649C32.4433 7.34271 32.3983 7.46495 32.367 7.59101C32.3532 7.63788 32.3352 7.68342 32.3132 7.72707Z" fill="#263238"/>
<path d="M31.9806 10.7625C31.9565 10.7495 31.9345 10.7331 31.9151 10.7138C31.855 10.6621 31.7988 10.6059 31.7471 10.5458C31.5593 10.3248 31.4109 10.0731 31.3087 9.80162C31.1563 9.3992 31.0689 8.97504 31.05 8.54513C31.022 8.01741 31.1008 7.48947 31.2818 6.99299C31.4657 6.49558 31.7719 6.05249 32.1721 5.70458C32.4962 5.41848 32.8776 5.20487 33.2909 5.07801C33.5686 4.99338 33.86 4.9626 34.1493 4.9873C34.228 4.99309 34.3061 5.00545 34.3828 5.02426C34.4095 5.02821 34.4356 5.03614 34.46 5.04778C34.4333 5.05222 34.4061 5.05222 34.3794 5.04778C34.3027 5.0357 34.2252 5.02841 34.1476 5.02594C33.863 5.01514 33.5787 5.05437 33.3077 5.14184C32.907 5.27425 32.5382 5.48815 32.2242 5.77009C31.8372 6.11234 31.5411 6.54521 31.3625 7.02994C31.1855 7.5135 31.1061 8.02735 31.129 8.54177C31.1432 8.96368 31.2231 9.3808 31.3658 9.7781C31.461 10.0467 31.5982 10.2984 31.7723 10.5239C31.9 10.6818 31.9857 10.7574 31.9806 10.7625Z" fill="#263238"/>
<g opacity="0.3">
<path d="M21.623 2.40209L21.0602 2.37521C22.3274 2.07018 23.657 2.15269 24.8768 2.61206C25.2724 2.73012 25.6235 2.96419 25.8846 3.28398C26.1316 3.63674 26.1753 4.09533 26.1601 4.52704C26.1181 5.82553 25.5134 7.10386 24.6701 8.09158C24.9137 7.01315 25.2682 5.93471 25.5101 4.85628C25.5974 4.47328 25.678 4.03821 25.4513 3.71569C25.3034 3.50236 24.7407 3.13616 24.5173 3.0085C23.7244 2.55663 23.1986 2.46592 22.2731 2.42392" fill="black"/>
</g>
<path d="M31.4448 8.22431C31.4335 8.18503 31.4284 8.14422 31.4297 8.10336C31.4258 7.9912 31.4303 7.8789 31.4431 7.7674C31.5294 7.02838 31.8889 6.34834 32.451 5.86083C32.5345 5.78757 32.6238 5.72128 32.7181 5.66261C32.7853 5.62062 32.8239 5.60046 32.8273 5.6055C32.8306 5.61053 32.6929 5.71636 32.4913 5.90618C32.2324 6.1557 32.0142 6.4442 31.8446 6.7612C31.6806 7.07751 31.5672 7.41761 31.5086 7.76908C31.4599 8.05129 31.4599 8.22431 31.4448 8.22431Z" fill="white"/>
<path d="M29.5734 7.08708C29.5385 7.00077 29.5225 6.90798 29.5264 6.81495C29.5228 6.58908 29.5639 6.36473 29.6473 6.15479C29.7305 5.94507 29.855 5.75426 30.0135 5.59373C30.1362 5.47279 30.2286 5.42575 30.2353 5.42575C30.0148 5.64053 29.8419 5.89928 29.7279 6.1852C29.6139 6.47112 29.5613 6.77782 29.5734 7.0854V7.08708Z" fill="white"/>
<path d="M30.7628 1.63947C30.8155 1.6486 30.8669 1.66441 30.9157 1.6865C31.0508 1.73897 31.1831 1.7984 31.3121 1.86456C32.17 2.30132 32.8959 2.95886 33.4152 3.76946C33.4938 3.89078 33.5656 4.0164 33.6302 4.14573C33.6579 4.19177 33.6789 4.24155 33.6924 4.29355C33.6789 4.29355 33.5714 4.10206 33.3564 3.80305C33.0856 3.41597 32.773 3.05994 32.4241 2.74142C32.0731 2.42497 31.6877 2.14887 31.2751 1.91831C30.9644 1.74193 30.7561 1.6529 30.7628 1.63947Z" fill="white"/>
<path d="M0.000497317 39.3393C0.000497317 39.3393 -0.107011 29.1631 2.83937 27.0969C5.62448 25.145 12.132 23.9255 14.6921 23.5693L16.214 21.651C16.214 21.651 22.4427 24.7435 25.0077 26.0017C26.1332 26.5543 25.5117 27.9603 25.5117 27.9603C25.5117 27.9603 30.9962 30.7723 31.8042 33.0115C32.6122 35.2507 33.2925 39.2688 33.2925 39.2688L0.000497317 39.3393Z" fill="#263238"/>
<path d="M17.4302 24.4966C17.518 23.7939 17.8427 23.1421 18.3507 22.6488C18.3725 22.6656 18.0635 23.02 17.8115 23.534C17.5595 24.048 17.4571 24.5016 17.4302 24.4966Z" fill="#455A64"/>
<path d="M20.5932 26.0773C20.9283 25.4461 21.0818 24.7344 21.0367 24.0212C21.076 24.1207 21.0965 24.2266 21.0971 24.3336C21.1349 24.8486 21.0235 25.3636 20.7763 25.8169C20.7313 25.9139 20.6693 26.0021 20.5932 26.0773Z" fill="#455A64"/>
<path d="M22.9651 27.3186C23.1203 26.993 23.2364 26.6502 23.3111 26.2973C23.3565 25.9395 23.3604 25.5776 23.3229 25.2189C23.3695 25.3171 23.398 25.4229 23.4069 25.5313C23.4451 25.7905 23.4423 26.0541 23.3985 26.3124C23.355 26.5706 23.2705 26.8201 23.1482 27.0515C23.1036 27.1508 23.0416 27.2413 22.9651 27.3186Z" fill="#455A64"/>
<path d="M41.8478 13.8701C41.788 13.8393 41.7316 13.8022 41.6798 13.7592C41.5723 13.6837 41.4178 13.5711 41.2313 13.4233C40.8567 13.1377 40.3494 12.7278 39.8085 12.2474C39.2676 11.767 38.8006 11.3202 38.4647 10.9842C38.2967 10.8162 38.1673 10.6802 38.0783 10.5827C38.0286 10.5349 37.9842 10.482 37.9456 10.4248C38.0024 10.4632 38.0548 10.5077 38.1018 10.5575L38.505 10.9506C38.841 11.2748 39.3231 11.7166 39.8606 12.192C40.3981 12.6674 40.9004 13.0806 41.2649 13.3779L41.6949 13.7324C41.751 13.7723 41.8023 13.8185 41.8478 13.8701Z" fill="#263238"/>
<path d="M44.863 10.1443C44.863 10.1695 43.457 9.95786 41.7335 9.67397C40.0101 9.39009 38.6141 9.1398 38.6175 9.1146C38.6209 9.0894 40.0218 9.30274 41.747 9.58663C43.4721 9.87051 44.8664 10.1208 44.863 10.1443Z" fill="#263238"/>
<path d="M43.237 6.47059C43.237 6.49411 42.1938 6.78639 40.8953 7.12403C39.5968 7.46167 38.5436 7.717 38.5335 7.69348C38.5234 7.66997 39.575 7.37768 40.8735 7.04004C42.172 6.7024 43.2303 6.44707 43.237 6.47059Z" fill="#263238"/>
<path d="M15.7335 27.448C15.29 28.1561 14.6468 28.7171 13.885 29.0602C13.1231 29.4033 12.2768 29.5132 11.4526 29.376C10.6284 29.2388 9.86327 28.8607 9.25366 28.2893C8.64405 27.7179 8.21724 26.9788 8.02705 26.1652C7.83685 25.3516 7.89177 24.4999 8.1849 23.7175C8.47802 22.9351 8.99623 22.2569 9.67418 21.7686C10.3521 21.2802 11.1595 21.0035 11.9945 20.9733C12.8295 20.9431 13.6547 21.1608 14.3662 21.5989C14.8413 21.892 15.2537 22.2762 15.5799 22.7293C15.906 23.1824 16.1393 23.6955 16.2664 24.2391C16.3934 24.7827 16.4118 25.346 16.3203 25.8967C16.2289 26.4475 16.0295 26.9746 15.7335 27.448Z" fill="#0AC389"/>
<g opacity="0.1">
<path d="M14.3662 21.5989C13.8921 21.3066 13.365 21.1107 12.8151 21.0225C12.2652 20.9342 11.7032 20.9553 11.1615 21.0844C10.6197 21.2136 10.1088 21.4484 9.65789 21.7754C9.20701 22.1023 8.82505 22.515 8.53387 22.9898C8.53387 22.9898 10.9914 24.6696 12.2294 24.0229C13.4675 23.3761 14.3662 21.5989 14.3662 21.5989Z" fill="white"/>
</g>
<path d="M14.8482 26.8214C14.5105 27.3593 14.021 27.7852 13.4416 28.0454C12.8621 28.3055 12.2186 28.3883 11.5922 28.2833C10.9658 28.1783 10.3845 27.8902 9.92152 27.4553C9.45858 27.0205 9.13474 26.4583 8.99083 25.8396C8.84691 25.221 8.88936 24.5736 9.11283 23.979C9.33629 23.3844 9.73076 22.8693 10.2465 22.4986C10.7623 22.1279 11.3763 21.9182 12.011 21.8959C12.6458 21.8736 13.273 22.0397 13.8135 22.3733C14.1746 22.5964 14.488 22.8888 14.7356 23.2335C14.9833 23.5783 15.1603 23.9686 15.2565 24.382C15.3526 24.7955 15.3661 25.2239 15.296 25.6425C15.226 26.0612 15.0738 26.4618 14.8482 26.8214Z" fill="#0AC389"/>
<g opacity="0.2">
<path d="M14.8482 26.8214C14.5105 27.3593 14.021 27.7852 13.4416 28.0454C12.8621 28.3055 12.2186 28.3883 11.5922 28.2833C10.9658 28.1783 10.3845 27.8902 9.92152 27.4553C9.45858 27.0205 9.13474 26.4583 8.99083 25.8396C8.84691 25.221 8.88936 24.5736 9.11283 23.979C9.33629 23.3844 9.73076 22.8693 10.2465 22.4986C10.7623 22.1279 11.3763 21.9182 12.011 21.8959C12.6458 21.8736 13.273 22.0397 13.8135 22.3733C14.1746 22.5964 14.488 22.8888 14.7356 23.2335C14.9833 23.5783 15.1603 23.9686 15.2565 24.382C15.3526 24.7955 15.3661 25.2239 15.296 25.6425C15.226 26.0612 15.0738 26.4618 14.8482 26.8214Z" fill="black"/>
</g>
<path d="M14.855 26.9844C14.5219 27.5156 14.039 27.9363 13.4671 28.1934C12.8952 28.4505 12.26 28.5326 11.6416 28.4291C11.0232 28.3257 10.4492 28.0415 9.99208 27.6123C9.53497 27.1832 9.21517 26.6282 9.07302 26.0176C8.93087 25.4069 8.97273 24.7678 9.19332 24.1808C9.41392 23.5939 9.80336 23.0854 10.3126 22.7196C10.8217 22.3537 11.4279 22.1467 12.0545 22.1249C12.6811 22.103 13.3002 22.2672 13.8337 22.5967C14.1897 22.8169 14.4987 23.1053 14.743 23.4454C14.9872 23.7854 15.1618 24.1704 15.2567 24.5782C15.3516 24.9859 15.365 25.4084 15.296 25.8214C15.2271 26.2343 15.0772 26.6296 14.855 26.9844Z" fill="#0AC389"/>
<g opacity="0.2">
<path d="M14.855 26.9844C14.5219 27.5156 14.039 27.9363 13.4671 28.1934C12.8952 28.4505 12.26 28.5326 11.6416 28.4291C11.0232 28.3257 10.4492 28.0415 9.99208 27.6123C9.53497 27.1832 9.21517 26.6282 9.07302 26.0176C8.93087 25.4069 8.97273 24.7678 9.19332 24.1808C9.41392 23.5939 9.80336 23.0854 10.3126 22.7196C10.8217 22.3537 11.4279 22.1467 12.0545 22.1249C12.6811 22.103 13.3002 22.2672 13.8337 22.5967C14.1897 22.8169 14.4987 23.1053 14.743 23.4454C14.9872 23.7854 15.1618 24.1704 15.2567 24.5782C15.3516 24.9859 15.365 25.4084 15.296 25.8214C15.2271 26.2343 15.0772 26.6296 14.855 26.9844Z" fill="white"/>
</g>
<path d="M13.0728 26.7727C13.323 26.4166 13.3146 26.0672 13.1299 25.7984C13.2739 25.8003 13.4159 25.7652 13.5424 25.6963C13.6689 25.6275 13.7756 25.5273 13.8522 25.4054C13.9733 25.2472 14.0315 25.0496 14.0153 24.851C13.9992 24.6524 13.9099 24.4669 13.7648 24.3303L14.0672 23.8986L13.6691 23.618L13.3869 24.0195L13.1601 23.8616L13.4423 23.4601L13.0425 23.1813L12.762 23.5828L12.3992 23.3274L12.1455 23.1511L11.8667 23.5492L12.1186 23.7272L10.7613 25.6657L10.4808 25.4709L10.202 25.869L10.4825 26.0655L10.847 26.3192L10.511 26.7862L10.9108 27.065L11.2367 26.598L11.4635 26.766L11.1359 27.233L11.5357 27.5118L11.8717 27.0297C12.374 27.2733 12.7889 27.1776 13.0728 26.7727ZM12.6242 24.085L13.1651 24.4647C13.4641 24.673 13.5465 24.9182 13.3684 25.1719C13.1903 25.4255 12.9367 25.4289 12.636 25.2189L12.0229 24.7889L12.552 24.0346L12.6242 24.085ZM11.8935 26.4636L11.2401 26.0067L11.193 25.9748L11.7474 25.1836L12.4462 25.6741C12.7721 25.9026 12.8645 26.1478 12.673 26.4216C12.4815 26.6954 12.2194 26.6871 11.8935 26.4586V26.4636Z" fill="#0AC389"/>
<g opacity="0.3">
<path d="M13.0728 26.7727C13.323 26.4166 13.3146 26.0672 13.1299 25.7984C13.2739 25.8003 13.4159 25.7652 13.5424 25.6963C13.6689 25.6275 13.7756 25.5273 13.8522 25.4054C13.9733 25.2472 14.0315 25.0496 14.0153 24.851C13.9992 24.6524 13.9099 24.4669 13.7648 24.3303L14.0672 23.8986L13.6691 23.618L13.3869 24.0195L13.1601 23.8616L13.4423 23.4601L13.0425 23.1813L12.762 23.5828L12.3992 23.3274L12.1455 23.1511L11.8667 23.5492L12.1186 23.7272L10.7613 25.6657L10.4808 25.4709L10.202 25.869L10.4825 26.0655L10.847 26.3192L10.511 26.7862L10.9108 27.065L11.2367 26.598L11.4635 26.766L11.1359 27.233L11.5357 27.5118L11.8717 27.0297C12.374 27.2733 12.7889 27.1776 13.0728 26.7727ZM12.6242 24.085L13.1651 24.4647C13.4641 24.673 13.5465 24.9182 13.3684 25.1719C13.1903 25.4255 12.9367 25.4289 12.636 25.2189L12.0229 24.7889L12.552 24.0346L12.6242 24.085ZM11.8935 26.4636L11.2401 26.0067L11.193 25.9748L11.7474 25.1836L12.4462 25.6741C12.7721 25.9026 12.8645 26.1478 12.673 26.4216C12.4815 26.6954 12.2194 26.6871 11.8935 26.4586V26.4636Z" fill="black"/>
</g>
<path d="M12.8795 26.6366C13.1281 26.2805 13.1197 25.9311 12.9366 25.6624C13.0804 25.6653 13.2224 25.6307 13.3488 25.5621C13.4752 25.4935 13.5815 25.3931 13.6573 25.271C13.7787 25.1127 13.8372 24.915 13.8214 24.7161C13.8056 24.5172 13.7166 24.3313 13.5716 24.1942L13.874 23.7625L13.4742 23.4836L13.1903 23.8851L12.9635 23.7255L13.244 23.3241L12.8543 23.0452L12.5738 23.4467L12.2093 23.1914L11.9573 23.015L11.6785 23.4131L11.9321 23.5912L10.5731 25.5297L10.2943 25.3348L10.0087 25.7329L10.2876 25.9294L10.6504 26.1831L10.3245 26.6501L10.7226 26.9306L11.0502 26.4636L11.277 26.6215L10.9494 27.0885L11.3475 27.3674L11.6835 26.8852C12.1824 27.1372 12.5956 27.0415 12.8795 26.6366ZM12.431 23.949L12.9702 24.3269C13.2709 24.5369 13.3532 24.7805 13.1752 25.0341C12.9971 25.2878 12.7418 25.2911 12.4428 25.0811L11.8296 24.6528L12.3588 23.8969L12.431 23.949ZM11.6986 26.3259L11.0468 25.869L10.9998 25.8371L11.5525 25.0475L12.2529 25.5364C12.5788 25.7648 12.6695 26.0101 12.478 26.2839C12.2865 26.5577 12.0262 26.551 11.6986 26.3225V26.3259Z" fill="#0AC389"/>
<path d="M17.4973 36.8734H6.77179V39.2688H17.4973V36.8734Z" fill="#0AC389"/>
<path d="M17.2151 32.1514H6.48956V34.5468H17.2151V32.1514Z" fill="#0AC389"/>
<path d="M18.7488 34.478H8.02325V36.8734H18.7488V34.478Z" fill="#0AC389"/>
<path d="M17.3797 34.5469C17.3797 34.5704 14.9407 34.5905 11.9338 34.5905C8.92696 34.5905 6.48621 34.5704 6.48621 34.5469C6.48621 34.5233 8.92528 34.5032 11.9338 34.5032C14.9423 34.5032 17.3797 34.5233 17.3797 34.5469Z" fill="#263238"/>
<path d="M18.7487 36.8734C18.7487 36.8969 16.061 36.9171 12.7317 36.9171C9.40229 36.9171 6.71124 36.8969 6.71124 36.8734C6.71124 36.8499 9.39893 36.8297 12.7317 36.8297C16.0644 36.8297 18.7487 36.8499 18.7487 36.8734Z" fill="#263238"/>
<path d="M7.64695 34.4914C7.58871 33.7125 7.58871 32.9303 7.64695 32.1514C7.70518 32.9303 7.70518 33.7125 7.64695 34.4914Z" fill="#263238"/>
<path d="M8.84806 34.4914C8.78982 33.7125 8.78982 32.9303 8.84806 32.1514C8.90629 32.9303 8.90629 33.7125 8.84806 34.4914Z" fill="#263238"/>
<path d="M10.0508 34.4914C9.99252 33.7125 9.99252 32.9303 10.0508 32.1514C10.109 32.9303 10.109 33.7125 10.0508 34.4914Z" fill="#263238"/>
<path d="M11.2518 34.4914C11.1936 33.7125 11.1936 32.9303 11.2518 32.1514C11.31 32.9303 11.31 33.7125 11.2518 34.4914Z" fill="#263238"/>
<path d="M12.4546 34.4914C12.3963 33.7125 12.3963 32.9303 12.4546 32.1514C12.5128 32.9303 12.5128 33.7125 12.4546 34.4914Z" fill="#263238"/>
<path d="M13.6573 34.4914C13.5991 33.7125 13.5991 32.9303 13.6573 32.1514C13.7156 32.9303 13.7156 33.7125 13.6573 34.4914Z" fill="#263238"/>
<path d="M14.8583 34.4914C14.8001 33.7125 14.8001 32.9303 14.8583 32.1514C14.9165 32.9303 14.9165 33.7125 14.8583 34.4914Z" fill="#263238"/>
<path d="M16.0611 34.4914C16.0028 33.7125 16.0028 32.9303 16.0611 32.1514C16.1193 32.9303 16.1193 33.7125 16.0611 34.4914Z" fill="#263238"/>
<path d="M9.15879 36.9439C9.10055 36.1656 9.10055 35.384 9.15879 34.6057C9.21702 35.384 9.21702 36.1656 9.15879 36.9439Z" fill="#263238"/>
<path d="M10.3615 36.9439C10.3033 36.1656 10.3033 35.384 10.3615 34.6057C10.4198 35.384 10.4198 36.1656 10.3615 36.9439Z" fill="#263238"/>
<path d="M11.5642 36.9439C11.5037 36.1657 11.5037 35.3839 11.5642 34.6057C11.6224 35.384 11.6224 36.1656 11.5642 36.9439Z" fill="#263238"/>
<path d="M12.7653 36.9439C12.7071 36.1656 12.7071 35.384 12.7653 34.6057C12.8235 35.384 12.8235 36.1656 12.7653 36.9439Z" fill="#263238"/>
<path d="M13.9681 36.9439C13.9098 36.1656 13.9098 35.384 13.9681 34.6057C14.0263 35.384 14.0263 36.1656 13.9681 36.9439Z" fill="#263238"/>
<path d="M15.1708 36.9439C15.1126 36.1656 15.1126 35.384 15.1708 34.6057C15.229 35.384 15.229 36.1656 15.1708 36.9439Z" fill="#263238"/>
<path d="M16.3718 36.9439C16.3136 36.1656 16.3136 35.384 16.3718 34.6057C16.43 35.384 16.43 36.1656 16.3718 36.9439Z" fill="#263238"/>
<path d="M17.5746 36.9439C17.5163 36.1656 17.5163 35.384 17.5746 34.6057C17.6328 35.384 17.6328 36.1656 17.5746 36.9439Z" fill="#263238"/>
<path d="M7.90561 39.2402C7.84738 38.4619 7.84738 37.6803 7.90561 36.9019C7.96384 37.6803 7.96384 38.4619 7.90561 39.2402Z" fill="#263238"/>
<path d="M9.10837 39.2402C9.05014 38.4619 9.05014 37.6803 9.10837 36.9019C9.1666 37.6803 9.1666 38.4619 9.10837 39.2402Z" fill="#263238"/>
<path d="M10.3111 39.2402C10.2529 38.4619 10.2529 37.6803 10.3111 36.9019C10.3694 37.6803 10.3694 38.4619 10.3111 39.2402Z" fill="#263238"/>
<path d="M11.5105 39.2402C11.4522 38.4619 11.4522 37.6803 11.5105 36.9019C11.5709 37.6802 11.5709 38.4619 11.5105 39.2402Z" fill="#263238"/>
<path d="M12.7149 39.2402C12.6567 38.4619 12.6567 37.6803 12.7149 36.9019C12.7732 37.6803 12.7732 38.4619 12.7149 39.2402Z" fill="#263238"/>
<path d="M13.9176 39.2402C13.8594 38.4619 13.8594 37.6803 13.9176 36.9019C13.9759 37.6803 13.9759 38.4619 13.9176 39.2402Z" fill="#263238"/>
<path d="M15.1204 39.2402C15.0622 38.4619 15.0622 37.6803 15.1204 36.9019C15.1786 37.6803 15.1786 38.4619 15.1204 39.2402Z" fill="#263238"/>
<path d="M16.3215 39.2402C16.2633 38.4619 16.2633 37.6803 16.3215 36.9019C16.3797 37.6803 16.3797 38.4619 16.3215 39.2402Z" fill="#263238"/>
<defs>
<linearGradient id="paint0_linear_5_759" x1="41.2873" y1="23.5935" x2="31.124" y2="31.9419" gradientUnits="userSpaceOnUse">
<stop offset="0.234375" stop-color="#0AC389"/>
<stop offset="1" stop-color="#3EA4CC"/>
</linearGradient>
<linearGradient id="paint1_linear_5_759" x1="26.9127" y1="0.00628662" x2="26.9127" y2="10.7322" gradientUnits="userSpaceOnUse">
<stop stop-color="#3EA4CC"/>
<stop offset="1" stop-color="#0AC389"/>
</linearGradient>
<linearGradient id="paint2_linear_5_759" x1="26.9152" y1="0" x2="26.9152" y2="10.7356" gradientUnits="userSpaceOnUse">
<stop stop-color="#3EA4CC"/>
<stop offset="1" stop-color="#0AC389"/>
</linearGradient>
</defs>
</svg>
