<svg width="254" height="55" viewBox="0 0 254 55" fill="none" xmlns="http://www.w3.org/2000/svg">
<path d="M55.9515 29.8149C55.9515 29.653 52.3557 24.516 47.5982 21.7162C43.5905 19.3629 40.9711 19.4555 40.9711 19.4555C40.9711 19.4555 46.9526 23.8843 49.6784 27.339C50.9388 28.9058 51.9595 30.651 52.7074 32.5176L55.9515 29.8149Z" fill="#E0E0E0"/>
<path d="M55.9515 29.8149L55.9006 29.8635L55.7409 30.0001L55.1162 30.5369L52.7305 32.5523L52.6912 32.5847L52.6727 32.5361C52.2845 31.5652 51.8154 30.6286 51.2704 29.7363C50.6141 28.6439 49.8614 27.6124 49.0213 26.6541C48.0392 25.5714 46.9971 24.5447 45.8998 23.5789C44.7428 22.5538 43.5141 21.5265 42.2137 20.5037C41.781 20.1612 41.346 19.828 40.9341 19.5203L40.7883 19.4092H40.9688C41.6235 19.4291 42.2739 19.5222 42.9079 19.6869C43.5198 19.8387 44.1212 20.0304 44.7081 20.2607C45.8139 20.6912 46.8781 21.2218 47.8875 21.8458C48.7972 22.4043 49.6628 23.0317 50.4767 23.7224C51.2496 24.3587 51.9183 25.0066 52.5153 25.6059C53.4524 26.5517 54.3281 27.5565 55.137 28.614C55.4239 28.9866 55.6299 29.2851 55.7664 29.491C55.8335 29.5951 55.8821 29.6761 55.9145 29.7224C55.9469 29.7687 55.9515 29.8126 55.9515 29.8126C55.9515 29.8126 55.9307 29.7802 55.9029 29.7293C55.8751 29.6784 55.815 29.5951 55.7479 29.4979C55.6044 29.2966 55.3938 29.0004 55.1023 28.6348C54.2806 27.5891 53.3974 26.5931 52.4575 25.6522C51.8582 25.0598 51.1871 24.4189 50.4166 23.7872C49.6017 23.1074 48.7378 22.4886 47.8319 21.936C46.8265 21.3183 45.767 20.7932 44.6665 20.3672C44.0833 20.1391 43.4858 19.9498 42.8778 19.8003C42.2552 19.6383 41.6164 19.5467 40.9734 19.5272L41.0058 19.4185C41.42 19.7262 41.855 20.0617 42.2901 20.4042C43.5905 21.4293 44.8354 22.4567 45.9785 23.4864C47.078 24.4571 48.1209 25.49 49.1023 26.5801C49.9435 27.5476 50.6955 28.5893 51.3491 29.6923C51.8903 30.5927 52.3548 31.537 52.7375 32.5153L52.6796 32.5014L55.0768 30.5207L55.7178 29.9977L55.8867 29.8635C55.9284 29.8288 55.9492 29.8126 55.9515 29.8149Z" fill="#263238"/>
<path d="M60.496 36.4027C60.6511 36.4582 64.4667 41.4401 65.6283 46.7344C66.6071 51.198 65.6653 53.5813 65.6653 53.5813C65.6653 53.5813 63.3144 46.6256 60.8524 42.9881C59.7313 41.3072 58.3702 39.7995 56.8123 38.513L60.496 36.4027Z" fill="#E0E0E0"/>
<path d="M60.496 36.4027C60.4766 36.4186 60.4557 36.4326 60.4336 36.4444L60.2484 36.5554L59.5311 36.9766L56.8308 38.5454V38.4829C58.6152 39.9586 60.145 41.7175 61.3591 43.6893C62.0966 44.9378 62.7596 46.2289 63.3445 47.5558C63.9716 48.9442 64.5686 50.4228 65.1424 51.9523C65.346 52.4984 65.5404 53.0422 65.7186 53.5582H65.6052C65.7969 52.9527 65.9165 52.3267 65.9615 51.6931C66.0129 51.0775 66.023 50.459 65.9916 49.842C65.9294 48.6794 65.7589 47.5252 65.4825 46.3943C65.237 45.3736 64.9112 44.374 64.5084 43.4047C64.1451 42.4907 63.7448 41.6692 63.363 40.9288C62.7592 39.7644 62.0854 38.6378 61.3453 37.555C61.0861 37.1709 60.8709 36.884 60.7251 36.6896L60.5539 36.4744L60.4914 36.405C60.5164 36.4238 60.5403 36.4438 60.5631 36.4652C60.6048 36.5138 60.6673 36.5809 60.7436 36.6758C60.8963 36.8655 61.1162 37.1501 61.3823 37.5296C62.1375 38.6053 62.8231 39.7283 63.4347 40.8917C63.862 41.6977 64.2482 42.5248 64.5917 43.3699C65.0004 44.3448 65.3308 45.3507 65.5797 46.3781C65.8617 47.5161 66.036 48.6782 66.1004 49.8489C66.1338 50.4713 66.1245 51.0952 66.0726 51.7163C66.0281 52.3618 65.9061 52.9996 65.7093 53.616L65.6538 53.7803L65.5982 53.6137C65.4201 53.1023 65.2257 52.5586 65.0221 52.0125C64.4505 50.4806 63.8651 49.0044 63.2311 47.616C62.6498 46.2921 61.9916 45.0033 61.2596 43.7564C60.0579 41.7913 58.545 40.0345 56.7799 38.5547L56.7359 38.52L56.7822 38.4922L59.5126 36.9488L60.2346 36.5462L60.4197 36.4444L60.496 36.4027Z" fill="#263238"/>
<path d="M55.889 29.2665L51.1825 32.985L55.8266 39.7162L60.8478 36.4374L55.889 29.2665Z" fill="#0AC389"/>
<path d="M59.7949 35.2666L56.611 31.1339L36.3988 46.3225L36.5538 53.3383L59.7949 35.2666Z" fill="url(#paint0_linear_5_431)"/>
<g opacity="0.3">
<path d="M41.8735 42.2083C41.8735 42.2083 43.5511 43.1686 44.1875 44.4968C44.678 45.5011 45.113 46.6765 45.113 46.6765L44.0625 47.4934L40.9364 42.921L41.8735 42.2083Z" fill="black"/>
</g>
<path d="M55.8265 39.7162C55.751 39.6426 55.6835 39.5612 55.6252 39.4733L55.1138 38.7791C54.6858 38.189 54.1026 37.3722 53.4663 36.4652C52.83 35.5581 52.2631 34.7251 51.8605 34.1188C51.4578 33.5126 51.2149 33.1192 51.2588 33.1146L53.5728 36.3957L55.1925 38.7328L55.6738 39.4478C55.7337 39.5319 55.7849 39.6218 55.8265 39.7162Z" fill="#263238"/>
<path d="M24.7274 21.6306C24.6163 19.1685 24.5168 16.6903 24.8315 14.2445C25.1462 11.7987 25.8913 9.36674 27.3328 7.36751C27.5503 7.06438 29.2441 5.09292 29.5935 5.22712C29.8434 5.322 28.6009 7.25413 28.668 7.51329C29.3205 9.97762 28.9526 12.6248 28.0802 15.0197C27.2112 17.3412 26.0859 19.5586 24.725 21.6306" fill="#263238"/>
<path d="M22.3348 31.4671L27.4 12.7705C28.8462 6.75433 33.1431 2.30928 39.1108 3.92208L39.7471 4.13496C42.3585 5.00398 44.5468 6.82477 45.8761 9.23469C47.2054 11.6446 47.5782 14.4668 46.9203 17.1392C45.6314 22.3664 44.1436 28.1512 43.1879 30.8747C41.2396 36.4791 35.3205 35.4748 35.3205 35.4748C35.3205 35.4748 35.1354 35.5604 34.6564 37.2357L22.3463 31.4509L22.3348 31.4671Z" fill="#FFBF9D"/>
<path d="M35.3089 35.4841C35.3089 35.4841 31.6922 34.5076 28.705 30.8724C28.705 30.8724 28.86 35.8751 34.6448 37.245L35.3089 35.4841Z" fill="#FF9A6C"/>
<path d="M26.479 17.0582C26.3957 16.9842 22.9942 14.624 21.8326 18.5114C20.671 22.3988 24.813 22.7644 24.8546 22.6556C24.8963 22.5469 26.479 17.0582 26.479 17.0582Z" fill="#FFBF9D"/>
<path d="M24.0378 20.823C24.0239 20.8045 23.9545 20.8485 23.8249 20.867C23.6432 20.8889 23.4603 20.8381 23.3158 20.7258C22.9502 20.4528 22.7998 19.6985 22.9896 18.9904C23.0787 18.6544 23.2424 18.3428 23.4686 18.0787C23.5409 17.9679 23.6392 17.8765 23.755 17.8124C23.8707 17.7483 24.0004 17.7134 24.1327 17.7108C24.2168 17.7131 24.2975 17.745 24.3606 17.8008C24.4236 17.8567 24.465 17.9329 24.4774 18.0162C24.4983 18.1389 24.4497 18.2106 24.4774 18.2222C24.5052 18.2337 24.5793 18.1828 24.5978 18.0116C24.6037 17.9089 24.5752 17.8071 24.5168 17.7224C24.433 17.6107 24.3096 17.5353 24.172 17.5118C24.0029 17.4963 23.8326 17.5241 23.6772 17.5925C23.5218 17.6609 23.3863 17.7677 23.2834 17.9028C23.0176 18.1901 22.8262 18.5381 22.7258 18.9163C22.5152 19.7077 22.698 20.5616 23.2117 20.8924C23.307 20.9541 23.4149 20.9934 23.5275 21.0075C23.6401 21.0215 23.7545 21.0099 23.8619 20.9734C24.0008 20.9133 24.0494 20.8323 24.0378 20.823Z" fill="#FF9A6C"/>
<path d="M46.233 10.054C46.9642 9.88969 45.6615 7.29808 44.3148 6.14575C42.2785 4.40567 38.8909 2.71651 36.5515 2.70494C33.7378 2.68874 31.2017 3.35978 29.2118 5.34975C27.2218 7.33973 25.9329 9.95447 25.2272 12.6803C25.012 13.511 24.8477 14.3949 25.0883 15.2256C25.3822 16.2437 26.2708 17.0883 25.882 18.2638C25.805 18.4748 25.7706 18.6991 25.7809 18.9235C25.7913 19.1479 25.8461 19.3681 25.9422 19.5712C26.4351 20.5361 27.5133 20.0756 28.1219 19.4786C29.42 18.199 30.0425 16.4034 30.6233 14.6749C31.0375 13.4485 31.4563 12.192 31.4493 10.8962C31.4493 10.2021 31.3174 9.48937 31.3545 8.78594C31.3915 8.08251 31.6275 7.33974 32.1944 6.9186C32.3237 6.82931 32.4608 6.75187 32.604 6.68721C33.2849 6.37008 34.038 6.24 34.7859 6.31036C35.5338 6.38071 36.2494 6.64896 36.8593 7.08752C38.8285 8.49901 42.2415 10.7412 43.4378 10.2807C45.1547 9.61664 45.6939 9.01502 45.6939 9.01502L46.233 10.054Z" fill="#263238"/>
<path d="M36.9426 18.4096C36.8107 18.4096 36.3571 17.8589 35.5056 17.4123C34.6541 16.9657 33.8859 16.8639 33.8373 16.7575C33.8072 16.7089 33.9668 16.6626 34.3 16.6996C34.7832 16.7695 35.2496 16.9263 35.6768 17.1624C36.0971 17.3759 36.4714 17.6699 36.7783 18.0278C36.9773 18.2638 37.005 18.4096 36.9426 18.4096Z" fill="#263238"/>
<path d="M34.9503 19.1986C34.8907 19.3924 34.7582 19.5554 34.5808 19.6534C34.4034 19.7513 34.1949 19.7766 33.9992 19.7239C33.9023 19.7017 33.8107 19.6603 33.73 19.6021C33.6492 19.544 33.581 19.4702 33.5292 19.3852C33.4775 19.3003 33.4433 19.2058 33.4286 19.1074C33.4139 19.0089 33.4191 18.9086 33.4439 18.8122C33.503 18.6187 33.635 18.4557 33.812 18.3577C33.989 18.2597 34.1972 18.2343 34.3926 18.287C34.4897 18.3092 34.5813 18.3506 34.6621 18.4087C34.7429 18.4669 34.8113 18.5406 34.8632 18.6255C34.9152 18.7104 34.9497 18.8049 34.9646 18.9033C34.9795 19.0017 34.9747 19.1021 34.9503 19.1986Z" fill="#263238"/>
<path d="M37.8381 24.6503C37.8381 24.6017 38.4027 24.6757 39.2866 24.8331C39.518 24.8793 39.7262 24.9002 39.8095 24.7636C39.8928 24.6271 39.8905 24.3633 39.8651 24.0695C39.8257 23.484 39.7864 22.8709 39.7424 22.2183C39.5897 19.6036 39.5504 17.4794 39.6568 17.4748C39.7633 17.4701 39.9715 19.5851 40.1196 22.2021C40.152 22.8454 40.1844 23.4586 40.2122 24.0533C40.2122 24.324 40.27 24.6456 40.0594 24.9349C40.0033 25.0025 39.9324 25.0562 39.8521 25.0919C39.7718 25.1276 39.6844 25.1444 39.5966 25.1408C39.4672 25.1352 39.3389 25.1134 39.2149 25.076C38.3471 24.8631 37.8149 24.7012 37.8381 24.6503Z" fill="#263238"/>
<path d="M37.838 18.1481C37.5881 18.2684 37.1022 17.5696 36.3224 16.9426C35.5426 16.3155 34.7651 15.9499 34.8484 15.6884C34.8901 15.5681 35.1677 15.4987 35.5773 15.5565C36.0925 15.6424 36.5756 15.8636 36.9772 16.1975C37.3772 16.5199 37.6813 16.9456 37.8565 17.4285C37.9907 17.8103 37.9653 18.0926 37.838 18.1481Z" fill="#263238"/>
<path d="M45.555 18.7428C45.4486 18.9996 44.6295 18.8006 43.6206 18.8539C42.6117 18.9071 41.7972 19.15 41.6861 18.9001C41.6375 18.7798 41.7972 18.5438 42.1489 18.3147C42.5891 18.0331 43.0961 17.8733 43.6183 17.8519C44.1323 17.8255 44.6438 17.9408 45.0969 18.1851C45.437 18.3957 45.6013 18.6202 45.555 18.7428Z" fill="#263238"/>
<path d="M36.9773 27.4154C37.0143 27.3136 36.2345 27.1169 35.6584 26.4204C35.418 26.1142 35.2195 25.7772 35.0683 25.4185C34.9387 25.1385 34.8369 24.9557 34.8022 24.9788C34.7675 25.002 34.7814 25.1848 34.8601 25.4925C34.9607 25.9046 35.1511 26.2894 35.4177 26.6194C35.6891 26.9516 36.0459 27.2036 36.4497 27.3483C36.7644 27.4501 36.9681 27.4478 36.9773 27.4154Z" fill="#263238"/>
<path d="M44.9811 19.747C44.87 19.8164 44.1967 19.592 43.2364 19.6498C42.2761 19.7077 41.5727 20.0062 41.4686 19.9483C41.4177 19.9252 41.531 19.8072 41.8388 19.6707C42.2884 19.4851 42.7667 19.3786 43.2526 19.356C43.721 19.3195 44.1921 19.3721 44.641 19.511C44.9372 19.6128 45.0366 19.7123 44.9811 19.747Z" fill="#263238"/>
<path d="M42.7135 21.8226C42.6549 22.017 42.5227 22.1808 42.345 22.2789C42.1673 22.3771 41.9582 22.4018 41.7625 22.3479C41.6657 22.3257 41.5744 22.2843 41.4939 22.2263C41.4133 22.1683 41.3452 22.0948 41.2935 22.01C41.2417 21.9253 41.2074 21.8311 41.1926 21.733C41.1778 21.6348 41.1827 21.5347 41.2071 21.4385C41.2662 21.2445 41.3986 21.0811 41.5761 20.983C41.7537 20.8849 41.9625 20.8599 42.1582 20.9132C42.2549 20.9355 42.3462 20.9768 42.4268 21.0348C42.5073 21.0928 42.5755 21.1664 42.6272 21.2511C42.6789 21.3358 42.7132 21.43 42.728 21.5281C42.7429 21.6263 42.7379 21.7264 42.7135 21.8226Z" fill="#263238"/>
<path d="M35.3182 20.904C35.302 20.9156 35.2141 20.8068 35.0428 20.6726C34.8222 20.485 34.5677 20.3413 34.2931 20.2492C34.018 20.159 33.7283 20.1214 33.4393 20.1381C33.3193 20.1585 33.1977 20.1686 33.076 20.1682C33.1832 20.1025 33.3046 20.0636 33.43 20.0548C33.7325 20.0114 34.0409 20.039 34.3309 20.1354C34.6208 20.2317 34.8844 20.3943 35.1007 20.6101C35.1952 20.6897 35.2697 20.7904 35.3182 20.904Z" fill="#FF9A6C"/>
<path d="M52.7629 17.8612C52.7629 17.8612 50.1204 18.6178 45.7355 17.5766C41.3506 16.5353 39.2796 15.3436 36.8106 14.499C34.7281 13.7887 28.543 12.0578 26.2915 11.7108C24.0401 11.3637 23.6097 11.3683 23.6097 11.3683L24.6486 9.53104L49.4956 14.7837C49.4956 14.7837 49.4725 14.9595 50.1898 15.5935C50.9071 16.2275 54.2785 17.6298 52.7629 17.8612Z" fill="#455A64"/>
<path d="M50.1782 18.125C48.6811 18.1146 47.1902 17.9306 45.7355 17.5766C43.4778 17.0375 41.2701 16.3076 39.1361 15.3945C38.3448 15.0729 37.5974 14.7675 36.8106 14.499C35.7532 14.1381 33.666 13.5226 31.6136 12.9672C29.2256 12.3216 27.2865 11.8635 26.2915 11.7108C24.1025 11.3729 23.6305 11.3683 23.6097 11.3683L24.6486 9.53104L49.4933 14.779C49.4933 14.779 49.4933 14.9641 50.1875 15.5843C50.5805 15.8764 50.9968 16.1356 51.4324 16.3594C52.3047 16.8477 53.2071 17.3544 53.1539 17.6483C53.1354 17.7501 53.0081 17.8172 52.7652 17.8542C52.1522 18.0014 51.5257 18.0852 50.8955 18.1041C50.6803 18.118 50.442 18.125 50.1782 18.125ZM23.6189 11.3567C23.6953 11.3567 24.2414 11.3822 26.2938 11.6992C27.2888 11.8519 29.2279 12.3101 31.6159 12.9556C33.6683 13.511 35.7578 14.1265 36.813 14.4875C37.602 14.7559 38.3494 15.0613 39.1408 15.3853C41.2744 16.2964 43.4813 17.0256 45.7378 17.565C47.4239 17.9768 49.1585 18.1558 50.8932 18.0972C51.5226 18.0779 52.1483 17.9941 52.7605 17.8473C52.9919 17.8126 53.1238 17.7455 53.14 17.6506C53.1933 17.3637 52.2538 16.8384 51.4254 16.3733C50.9887 16.1503 50.5715 15.891 50.1782 15.5982C49.5326 15.022 49.484 14.8207 49.484 14.7883L24.6602 9.54261L23.6189 11.3567Z" fill="#263238"/>
<path d="M38.995 0.425735C38.995 0.425735 46.314 1.8326 47.9499 7.22637C48.6812 9.69642 49.1983 12.2249 49.4956 14.7837L34.9781 12.3078L24.6487 9.53104C24.6487 9.53104 27.7285 -2.3371 38.995 0.425735Z" fill="url(#paint1_linear_5_431)"/>
<path d="M49.5026 14.7883L34.9781 12.3078L24.6487 9.53104C24.8243 8.91147 25.0439 8.30522 25.3058 7.71692C25.8901 6.35681 26.6603 5.08436 27.5943 3.93596C28.7545 2.48807 30.2688 1.36425 31.9908 0.673323C34.0733 -0.127297 36.415 -0.215226 38.9858 0.416477C40.327 0.717971 41.6257 1.1843 42.8524 1.80483C43.9542 2.34354 44.9684 3.04565 45.8605 3.88737C46.8293 4.80448 47.5463 5.95499 47.943 7.22868C48.6742 9.69875 49.1913 12.2272 49.4887 14.786L49.5026 14.7883ZM24.6649 9.53104L34.9804 12.2916L49.4887 14.7744C49.1907 12.2157 48.6736 9.68733 47.943 7.21711C47.5448 5.94613 46.8279 4.79823 45.8605 3.88274C44.9695 3.03968 43.9551 2.33743 42.8524 1.8002C41.6286 1.18537 40.3328 0.72596 38.995 0.432672C36.4266 -0.19903 34.0756 -0.111101 32.0047 0.689518C30.2833 1.37924 28.769 2.50141 27.6082 3.94753C26.6743 5.09516 25.9041 6.36684 25.3197 7.72618C25.06 8.31194 24.8412 8.915 24.6649 9.53104Z" fill="url(#paint2_linear_5_431)"/>
<path d="M46.7698 14.3209H46.7097L46.5384 14.3371C46.3179 14.3615 46.0962 14.3746 45.8743 14.3764C45.0586 14.388 44.2432 14.3361 43.4354 14.2214C41.3853 13.9599 38.5993 13.2958 35.6167 12.2846C34.1219 11.7848 32.7289 11.2272 31.4516 10.7713C30.8106 10.5399 30.1951 10.3432 29.6143 10.1743C29.0335 10.0054 28.4851 9.87813 27.9784 9.78095C27.1784 9.62536 26.366 9.54173 25.5511 9.53105C25.2642 9.51716 25.0397 9.53105 24.8893 9.53105H24.7157C24.6966 9.53468 24.677 9.53468 24.6579 9.53105C24.6771 9.52798 24.6966 9.52798 24.7157 9.53105L24.887 9.51948C25.0397 9.51948 25.2642 9.4894 25.5511 9.49634C26.3683 9.48822 27.1843 9.55951 27.9876 9.70922C28.4967 9.80178 29.0474 9.92673 29.6352 10.0887C30.2229 10.2507 30.8384 10.452 31.4863 10.6788C32.7752 11.13 34.1681 11.683 35.6514 12.1828C38.1855 13.0688 40.7936 13.727 43.4447 14.1496C44.2483 14.2704 45.0594 14.3338 45.872 14.3394C46.1612 14.3394 46.3834 14.3394 46.5338 14.3255H46.7073L46.7698 14.3209Z" fill="#263238"/>
<path d="M29.457 3.30658C29.4983 3.29396 29.5411 3.28695 29.5843 3.28575C29.6699 3.28575 29.7949 3.2603 29.9545 3.25336C30.4105 3.23191 30.8674 3.25205 31.3197 3.31352C31.9917 3.40589 32.6489 3.58477 33.275 3.84572C33.6446 3.99985 34.0013 4.18323 34.3417 4.39412C34.5282 4.50074 34.7021 4.62803 34.86 4.77361C35.0284 4.9297 35.1474 5.13157 35.2025 5.3544C35.2997 5.81719 35.1609 6.24758 35.0752 6.64558C34.9896 7.04357 34.8901 7.43694 34.8045 7.80254C34.6287 8.53837 34.4713 9.1909 34.3417 9.76706C34.2122 10.3432 34.1103 10.7621 34.0178 11.0906C33.9808 11.2341 33.9484 11.3544 33.9229 11.4493C33.9129 11.4911 33.8997 11.5321 33.8836 11.5719C33.8836 11.5282 33.8891 11.4847 33.8998 11.4424C33.9183 11.3475 33.9437 11.2272 33.9715 11.0791L34.2584 9.74855C34.3857 9.18164 34.5361 8.51523 34.7004 7.77709C34.7852 7.40686 34.8732 7.0212 34.9642 6.62012C35.0521 6.21981 35.1794 5.79636 35.0891 5.38449C34.9989 4.97261 34.6263 4.7065 34.2862 4.49594C33.9505 4.28869 33.6002 4.10618 33.238 3.94985C32.2028 3.50845 31.0867 3.28854 29.9615 3.30426C29.6352 3.30195 29.4593 3.31815 29.457 3.30658Z" fill="#263238"/>
<g opacity="0.3">
<path d="M48.9102 13.8928L41.2927 12.442C41.0613 13.3051 41.4616 14.2422 42.1026 14.8646C42.7435 15.4871 43.5951 15.8388 44.4512 16.0887C45.2602 16.3274 46.09 16.4886 46.9294 16.57C47.3375 16.6265 47.7522 16.6132 48.1558 16.5307C48.3567 16.4877 48.5467 16.4039 48.7138 16.2845C48.881 16.1651 49.0219 16.0126 49.1277 15.8365C49.4424 15.2349 49.1763 14.5106 48.9102 13.8928Z" fill="black"/>
</g>
<path d="M46.4459 6.85383C47.2852 6.84752 48.1126 7.052 48.8524 7.44851C49.6831 7.91129 50.5045 8.72811 50.4721 10.1211C50.3888 12.8978 49.0676 15.1863 47.2511 15.4917C45.4347 15.7972 43.646 14.6217 42.9056 14.1959C42.1651 13.7702 40.7745 12.5415 41.0406 10.725C41.1254 10.0194 41.3848 9.34612 41.7953 8.76596C42.2058 8.18581 42.7544 7.7171 43.3915 7.40223C44.1584 7.02313 45.0051 6.83348 45.8605 6.8492L46.4459 6.85383Z" fill="#455A64"/>
<path d="M46.4458 6.85382H46.3718H46.1543C45.9622 6.85382 45.6799 6.85383 45.319 6.88391C44.8816 6.925 44.4505 7.01742 44.0347 7.15926C43.7766 7.248 43.5272 7.36032 43.2896 7.49478C43.0192 7.64021 42.7655 7.81479 42.533 8.01542C41.9984 8.47343 41.5898 9.06047 41.3459 9.72078C41.0937 10.415 40.9364 11.2642 41.2094 12.0717C41.5081 12.9137 42.0895 13.626 42.8546 14.0872C43.6582 14.6164 44.5321 15.03 45.4509 15.3159C45.9168 15.4446 46.4004 15.4977 46.8832 15.4732C47.3509 15.4518 47.8049 15.3082 48.1998 15.0567C48.5794 14.8116 48.9097 14.4977 49.174 14.1311C49.4298 13.7787 49.6448 13.3983 49.8149 12.9973C50.1195 12.2477 50.3106 11.4569 50.3818 10.651C50.3818 10.4612 50.4073 10.2761 50.4142 10.0933C50.418 9.91525 50.4064 9.73719 50.3795 9.56112C50.3295 9.2299 50.2172 8.91113 50.0486 8.62167C49.7382 8.13191 49.304 7.7328 48.7899 7.4647C48.4047 7.25214 47.9909 7.09627 47.5612 7.00192C47.2897 6.94308 47.0144 6.90364 46.7374 6.88391L46.5199 6.87002H46.4458C46.4705 6.86805 46.4952 6.86805 46.5199 6.87002H46.7374C47.0172 6.88062 47.2957 6.91311 47.5704 6.96721C48.0074 7.05137 48.4293 7.20034 48.8222 7.40917C49.3525 7.67749 49.8009 8.0835 50.1204 8.58465C50.2958 8.87531 50.4151 9.19634 50.4721 9.53104C50.5005 9.71242 50.5137 9.89586 50.5114 10.0794C50.5114 10.2646 50.4929 10.452 50.4813 10.644C50.4139 11.4608 50.2236 12.2628 49.9167 13.0228C49.7444 13.4318 49.5263 13.8199 49.2665 14.1797C48.9956 14.5612 48.6548 14.8878 48.2623 15.1423C47.852 15.4059 47.3795 15.5567 46.8924 15.5797C46.3963 15.6064 45.8992 15.5517 45.4208 15.4177C44.4466 15.1631 43.5951 14.6656 42.7945 14.189C42.0056 13.7127 41.4074 12.9762 41.103 12.1064C40.9719 11.6998 40.9285 11.27 40.9757 10.8454C41.0188 10.4495 41.1121 10.0607 41.2534 9.68839C41.627 8.72455 42.3373 7.92879 43.2526 7.44851C43.4953 7.31427 43.7502 7.20347 44.0139 7.11762C44.4358 6.97789 44.8734 6.89084 45.3166 6.85845C45.5956 6.84259 45.8753 6.84259 46.1543 6.85845H46.3718C46.3962 6.85395 46.4211 6.8524 46.4458 6.85382Z" fill="#263238"/>
<path d="M44.5114 10.644C44.1111 13.0968 45.2056 14.3186 46.6217 14.6171C48.0379 14.9156 49.2642 13.1454 49.4586 11.3961C49.6576 9.60046 49.572 8.48283 48.1605 8.18665C46.749 7.89047 44.7961 8.90628 44.5114 10.644Z" fill="white"/>
<path d="M44.5114 10.644C44.5177 10.5818 44.5277 10.5199 44.5415 10.4589C44.5773 10.2801 44.634 10.1061 44.7104 9.94058C44.8287 9.67865 44.9846 9.43542 45.1732 9.21864C45.4309 8.93582 45.7335 8.69738 46.0687 8.51289C46.4754 8.286 46.9243 8.14502 47.3877 8.0987C47.9262 8.03264 48.4709 8.15795 48.9264 8.45273C49.1653 8.62595 49.3454 8.86822 49.4424 9.14691C49.5365 9.4346 49.5857 9.73509 49.5882 10.0378C49.5958 10.3467 49.585 10.6557 49.5558 10.9633C49.5353 11.2816 49.4912 11.598 49.4239 11.9097C49.3549 12.2228 49.2549 12.5282 49.1254 12.8214C49.0002 13.107 48.8451 13.3784 48.6626 13.6313C48.4879 13.8786 48.2774 14.0986 48.0379 14.2838C47.8088 14.4672 47.5403 14.5947 47.2534 14.6564C46.979 14.7127 46.6948 14.6983 46.4274 14.6147C46.176 14.5477 45.9353 14.4456 45.7124 14.3116C45.3092 14.0719 44.9813 13.724 44.766 13.3074C44.4708 12.7028 44.3467 12.029 44.4073 11.359C44.4168 11.1782 44.4377 10.9981 44.4698 10.8199C44.477 10.7574 44.4886 10.6956 44.5045 10.6348C44.5063 10.6982 44.5025 10.7617 44.4929 10.8245C44.479 10.9471 44.4605 11.1276 44.4559 11.3613C44.4134 12.0197 44.5459 12.6775 44.84 13.268C45.0529 13.667 45.3736 13.9981 45.7656 14.2237C45.9818 14.3525 46.2157 14.4491 46.4598 14.5106C46.7107 14.589 46.9776 14.6017 47.2349 14.5476C47.5053 14.4879 47.7581 14.3659 47.9731 14.1913C48.2023 14.0124 48.4035 13.8002 48.5701 13.5619C48.7476 13.3161 48.8973 13.0515 49.0167 12.7728C49.1435 12.4872 49.2412 12.1895 49.3082 11.8843C49.374 11.5793 49.4173 11.27 49.4378 10.9587C49.4676 10.655 49.4792 10.3498 49.4725 10.0447C49.4702 9.75409 49.4242 9.46547 49.336 9.18856C49.2516 8.92906 49.0902 8.70144 48.8732 8.53603C48.6562 8.38757 48.4114 8.28447 48.1536 8.2329C47.9081 8.18669 47.6575 8.17346 47.4085 8.19357C46.9573 8.23436 46.5194 8.36747 46.1219 8.58462C45.7906 8.75949 45.4904 8.98777 45.2334 9.26029C45.0483 9.4696 44.8926 9.70314 44.7706 9.95446C44.6907 10.1146 44.6286 10.2829 44.5855 10.4566C44.5665 10.5212 44.5417 10.5839 44.5114 10.644Z" fill="#263238"/>
<path d="M44.0533 14.8253C44.0201 14.8074 43.9897 14.7848 43.963 14.7582C43.8801 14.687 43.8028 14.6097 43.7316 14.5268C43.4728 14.2224 43.2685 13.8756 43.1277 13.5017C42.9177 12.9474 42.7974 12.3631 42.7714 11.7709C42.7327 11.044 42.8413 10.3167 43.0907 9.63283C43.344 8.94765 43.7657 8.33729 44.3171 7.85805C44.7635 7.46395 45.2889 7.1697 45.8581 6.99495C46.2407 6.87838 46.6421 6.83597 47.0406 6.87C47.149 6.87798 47.2566 6.895 47.3622 6.92091C47.3991 6.92635 47.435 6.93727 47.4686 6.9533C47.4319 6.95943 47.3943 6.95943 47.3576 6.9533C47.2519 6.93667 47.1452 6.92663 47.0382 6.92322C46.6462 6.90835 46.2546 6.96239 45.8813 7.08288C45.3294 7.26527 44.8212 7.55992 44.3888 7.94829C43.8557 8.41974 43.4479 9.01602 43.2018 9.68374C42.958 10.3498 42.8486 11.0577 42.8801 11.7663C42.8997 12.3475 43.0098 12.922 43.2064 13.4693C43.3374 13.8393 43.5264 14.1861 43.7664 14.4967C43.9422 14.7142 44.0602 14.8183 44.0533 14.8253Z" fill="#263238"/>
<g opacity="0.3">
<path d="M29.7856 3.30888L29.0104 3.27186C30.756 2.85168 32.5875 2.96535 34.2677 3.59813C34.8127 3.76076 35.2963 4.08318 35.656 4.5237C35.9962 5.00962 36.0564 5.64132 36.0355 6.236C35.9777 8.02467 35.1447 9.78557 33.9831 11.1462C34.3186 9.66062 34.8068 8.17508 35.14 6.68953C35.2604 6.16196 35.3714 5.56265 35.0591 5.11837C34.8554 4.82451 34.0803 4.32007 33.7725 4.14421C32.6803 3.52177 31.9561 3.39681 30.6811 3.33897" fill="black"/>
</g>
<path d="M43.3151 11.329C43.2995 11.2749 43.2925 11.2187 43.2943 11.1624C43.289 11.0079 43.2952 10.8532 43.3128 10.6996C43.4317 9.68159 43.9269 8.74483 44.7012 8.07328C44.8162 7.97238 44.9392 7.88106 45.0691 7.80024C45.1617 7.74239 45.2149 7.71462 45.2195 7.72157C45.2241 7.72851 45.0344 7.87429 44.7567 8.13576C44.4001 8.47947 44.0995 8.87687 43.8659 9.31355C43.6399 9.74927 43.4837 10.2178 43.4031 10.7019C43.336 11.0906 43.336 11.329 43.3151 11.329Z" fill="white"/>
<path d="M40.7374 9.76244C40.6893 9.64355 40.6672 9.51573 40.6726 9.38759C40.6677 9.07645 40.7243 8.76741 40.8392 8.47821C40.9538 8.18934 41.1253 7.92649 41.3437 7.70536C41.5126 7.53876 41.6398 7.47397 41.6491 7.47397C41.3454 7.76983 41.1072 8.12626 40.9502 8.52011C40.7931 8.91397 40.7206 9.33645 40.7374 9.76013V9.76244Z" fill="white"/>
<path d="M42.3757 2.25836C42.4484 2.27095 42.5191 2.29272 42.5863 2.32315C42.7724 2.39543 42.9547 2.4773 43.1324 2.56843C44.3141 3.17007 45.3141 4.07582 46.0294 5.19242C46.1377 5.35954 46.2366 5.53259 46.3256 5.71074C46.3638 5.77415 46.3926 5.84273 46.4112 5.91437C46.3927 5.91437 46.2446 5.65058 45.9484 5.2387C45.5754 4.70549 45.1447 4.21506 44.6642 3.7763C44.1806 3.34039 43.6497 2.96007 43.0815 2.64247C42.6534 2.39951 42.3665 2.27687 42.3757 2.25836Z" fill="white"/>
<path d="M0.000685053 54.1899C0.000685053 54.1899 -0.147408 40.1721 3.91122 37.326C7.74772 34.6372 16.7119 32.9573 20.2383 32.4667L22.3347 29.8242C22.3347 29.8242 30.9148 34.0842 34.4481 35.8173C35.9985 36.5786 35.1423 38.5153 35.1423 38.5153C35.1423 38.5153 42.6973 42.3888 43.8103 45.4733C44.9233 48.5578 45.8604 54.0927 45.8604 54.0927L0.000685053 54.1899Z" fill="#263238"/>
<path d="M24.01 33.744C24.131 32.7761 24.5783 31.8783 25.278 31.1987C25.3081 31.2218 24.8824 31.71 24.5353 32.4181C24.1882 33.1262 24.047 33.7509 24.01 33.744Z" fill="#455A64"/>
<path d="M28.3671 35.9214C28.8288 35.052 29.0402 34.0716 28.978 33.0891C29.0322 33.2262 29.0604 33.3722 29.0613 33.5195C29.1133 34.2289 28.9599 34.9383 28.6193 35.5627C28.5573 35.6964 28.4719 35.8178 28.3671 35.9214Z" fill="#455A64"/>
<path d="M31.6344 37.6314C31.8481 37.1828 32.0081 36.7106 32.1111 36.2245C32.1736 35.7316 32.179 35.2331 32.1273 34.739C32.1915 34.8743 32.2307 35.0201 32.243 35.1694C32.2956 35.5264 32.2917 35.8895 32.2314 36.2454C32.1715 36.6009 32.0551 36.9446 31.8866 37.2635C31.8252 37.4002 31.7398 37.5248 31.6344 37.6314Z" fill="#455A64"/>
<path d="M57.6453 19.1061C57.5628 19.0637 57.4853 19.0125 57.4139 18.9533C57.2658 18.8492 57.0529 18.6942 56.7961 18.4906C56.2801 18.0972 55.5813 17.5326 54.8362 16.8708C54.0911 16.209 53.4478 15.5935 52.985 15.1307C52.7536 14.8993 52.5755 14.7119 52.4528 14.5777C52.3844 14.5119 52.3231 14.4389 52.27 14.3602C52.3482 14.4131 52.4204 14.4744 52.4852 14.543L53.0406 15.0845C53.5033 15.531 54.1674 16.1396 54.9079 16.7945C55.6484 17.4493 56.3402 18.0185 56.8423 18.4281L57.4347 18.9163C57.512 18.9713 57.5826 19.0349 57.6453 19.1061Z" fill="#263238"/>
<path d="M61.7987 13.9738C61.7987 14.0085 59.862 13.717 57.4879 13.3259C55.1138 12.9348 53.1909 12.5901 53.1956 12.5554C53.2002 12.5207 55.13 12.8145 57.5064 13.2056C59.8828 13.5966 61.8034 13.9414 61.7987 13.9738Z" fill="#263238"/>
<path d="M59.5589 8.91323C59.5589 8.94563 58.1219 9.34825 56.3333 9.81335C54.5446 10.2785 53.0938 10.6302 53.0799 10.5978C53.066 10.5654 54.5145 10.1628 56.3032 9.69765C58.0918 9.23256 59.5496 8.88084 59.5589 8.91323Z" fill="#263238"/>
<path d="M21.6729 37.8096C21.062 38.785 20.176 39.5577 19.1266 40.0304C18.0771 40.503 16.9113 40.6543 15.7759 40.4654C14.6406 40.2764 13.5867 39.7555 12.7469 38.9684C11.9072 38.1813 11.3193 37.1633 11.0573 36.0425C10.7953 34.9218 10.8709 33.7486 11.2747 32.6708C11.6785 31.593 12.3923 30.6589 13.3262 29.9862C14.2601 29.3135 15.3722 28.9323 16.5224 28.8907C17.6726 28.8491 18.8094 29.149 19.7894 29.7525C20.4439 30.1562 21.012 30.6854 21.4613 31.3095C21.9105 31.9337 22.2318 32.6405 22.4069 33.3893C22.5819 34.1381 22.6072 34.9141 22.4812 35.6727C22.3553 36.4313 22.0806 37.1575 21.6729 37.8096Z" fill="#0AC389"/>
<g opacity="0.1">
<path d="M19.7894 29.7525C19.1363 29.3499 18.4103 29.08 17.6528 28.9584C16.8953 28.8368 16.1212 28.8659 15.375 29.0438C14.6287 29.2218 13.9249 29.5452 13.3038 29.9956C12.6827 30.446 12.1565 31.0144 11.7554 31.6684C11.7554 31.6684 15.1407 33.9823 16.8461 33.0915C18.5514 32.2006 19.7894 29.7525 19.7894 29.7525Z" fill="white"/>
</g>
<path d="M20.4535 36.9465C19.9882 37.6874 19.314 38.2741 18.5158 38.6325C17.7176 38.9908 16.8312 39.1049 15.9683 38.9602C15.1054 38.8156 14.3046 38.4187 13.6669 37.8197C13.0292 37.2206 12.5831 36.4462 12.3849 35.594C12.1867 34.7418 12.2451 33.85 12.553 33.031C12.8608 32.212 13.4042 31.5025 14.1146 30.9918C14.8251 30.4812 15.6708 30.1923 16.5452 30.1616C17.4196 30.1309 18.2835 30.3597 19.0281 30.8192C19.5255 31.1266 19.9572 31.5293 20.2984 32.0042C20.6395 32.479 20.8833 33.0167 21.0158 33.5862C21.1483 34.1557 21.1668 34.7458 21.0703 35.3225C20.9738 35.8992 20.7642 36.4511 20.4535 36.9465Z" fill="#0AC389"/>
<g opacity="0.2">
<path d="M20.4535 36.9465C19.9882 37.6874 19.314 38.2741 18.5158 38.6325C17.7176 38.9908 16.8312 39.1049 15.9683 38.9602C15.1054 38.8156 14.3046 38.4187 13.6669 37.8197C13.0292 37.2206 12.5831 36.4462 12.3849 35.594C12.1867 34.7418 12.2451 33.85 12.553 33.031C12.8608 32.212 13.4042 31.5025 14.1146 30.9918C14.8251 30.4812 15.6708 30.1923 16.5452 30.1616C17.4196 30.1309 18.2835 30.3597 19.0281 30.8192C19.5255 31.1266 19.9572 31.5293 20.2984 32.0042C20.6395 32.479 20.8833 33.0167 21.0158 33.5862C21.1483 34.1557 21.1668 34.7458 21.0703 35.3225C20.9738 35.8992 20.7642 36.4511 20.4535 36.9465Z" fill="black"/>
</g>
<path d="M20.4627 37.1709C20.0039 37.9027 19.3387 38.4822 18.5509 38.8364C17.7632 39.1906 16.8882 39.3036 16.0363 39.1611C15.1844 39.0187 14.3938 38.6272 13.7641 38.036C13.1344 37.4448 12.6939 36.6804 12.4981 35.8391C12.3023 34.9979 12.3599 34.1176 12.6638 33.3091C12.9677 32.5006 13.5041 31.8002 14.2055 31.2961C14.9069 30.7921 15.7419 30.5071 16.6051 30.477C17.4683 30.4469 18.321 30.673 19.0559 31.1269C19.5463 31.4303 19.972 31.8276 20.3084 32.296C20.6448 32.7644 20.8853 33.2947 21.0161 33.8564C21.1468 34.4181 21.1652 35.0001 21.0703 35.5689C20.9753 36.1377 20.7688 36.6822 20.4627 37.1709Z" fill="#0AC389"/>
<g opacity="0.2">
<path d="M20.4627 37.1709C20.0039 37.9027 19.3387 38.4822 18.5509 38.8364C17.7632 39.1906 16.8882 39.3036 16.0363 39.1611C15.1844 39.0187 14.3938 38.6272 13.7641 38.036C13.1344 37.4448 12.6939 36.6804 12.4981 35.8391C12.3023 34.9979 12.3599 34.1176 12.6638 33.3091C12.9677 32.5006 13.5041 31.8002 14.2055 31.2961C14.9069 30.7921 15.7419 30.5071 16.6051 30.477C17.4683 30.4469 18.321 30.673 19.0559 31.1269C19.5463 31.4303 19.972 31.8276 20.3084 32.296C20.6448 32.7644 20.8853 33.2947 21.0161 33.8564C21.1468 34.4181 21.1652 35.0001 21.0703 35.5689C20.9753 36.1377 20.7688 36.6822 20.4627 37.1709Z" fill="white"/>
</g>
<path d="M18.0077 36.8794C18.3524 36.3888 18.3409 35.9075 18.0863 35.5373C18.2847 35.5399 18.4804 35.4915 18.6546 35.3967C18.8289 35.3019 18.9758 35.1638 19.0813 34.9959C19.2482 34.7779 19.3283 34.5058 19.3061 34.2323C19.2838 33.9587 19.1609 33.7031 18.961 33.5149L19.3775 32.9203L18.8291 32.5338L18.4404 33.0869L18.128 32.8694L18.5167 32.3163L17.966 31.9322L17.5796 32.4852L17.0798 32.1335L16.7304 31.8906L16.3463 32.439L16.6934 32.6842L14.8237 35.3545L14.4373 35.0861L14.0532 35.6345L14.4396 35.9052L14.9417 36.2546L14.4789 36.8979L15.0296 37.282L15.4785 36.6387L15.7909 36.8701L15.3397 37.5134L15.8904 37.8975L16.3532 37.2334C17.0451 37.5689 17.6166 37.4371 18.0077 36.8794ZM17.3898 33.1771L18.1349 33.7001C18.5468 33.987 18.6602 34.3248 18.4149 34.6742C18.1696 35.0236 17.8202 35.0283 17.406 34.739L16.5615 34.1466L17.2904 33.1077L17.3898 33.1771ZM16.3833 36.4536L15.4832 35.8242L15.4184 35.7803L16.182 34.6904L17.1446 35.3661C17.5935 35.6808 17.7207 36.0186 17.457 36.3958C17.1932 36.773 16.8322 36.7614 16.3833 36.4467V36.4536Z" fill="#0AC389"/>
<g opacity="0.3">
<path d="M18.0077 36.8794C18.3524 36.3888 18.3409 35.9075 18.0863 35.5373C18.2847 35.5399 18.4804 35.4915 18.6546 35.3967C18.8289 35.3019 18.9758 35.1638 19.0813 34.9959C19.2482 34.7779 19.3283 34.5058 19.3061 34.2323C19.2838 33.9587 19.1609 33.7031 18.961 33.5149L19.3775 32.9203L18.8291 32.5338L18.4404 33.0869L18.128 32.8694L18.5167 32.3163L17.966 31.9322L17.5796 32.4852L17.0798 32.1335L16.7304 31.8906L16.3463 32.439L16.6934 32.6842L14.8237 35.3545L14.4373 35.0861L14.0532 35.6345L14.4396 35.9052L14.9417 36.2546L14.4789 36.8979L15.0296 37.282L15.4785 36.6387L15.7909 36.8701L15.3397 37.5134L15.8904 37.8975L16.3532 37.2334C17.0451 37.5689 17.6166 37.4371 18.0077 36.8794ZM17.3898 33.1771L18.1349 33.7001C18.5468 33.987 18.6602 34.3248 18.4149 34.6742C18.1696 35.0236 17.8202 35.0283 17.406 34.739L16.5615 34.1466L17.2904 33.1077L17.3898 33.1771ZM16.3833 36.4536L15.4832 35.8242L15.4184 35.7803L16.182 34.6904L17.1446 35.3661C17.5935 35.6808 17.7207 36.0186 17.457 36.3958C17.1932 36.773 16.8322 36.7614 16.3833 36.4467V36.4536Z" fill="black"/>
</g>
<path d="M17.7416 36.692C18.084 36.2014 18.0724 35.7201 17.8202 35.3499C18.0183 35.3539 18.2139 35.3063 18.388 35.2118C18.562 35.1173 18.7085 34.979 18.8129 34.8107C18.9802 34.5927 19.0608 34.3204 19.039 34.0464C19.0172 33.7725 18.8946 33.5163 18.6949 33.3275L19.1114 32.7328L18.5607 32.3487L18.1696 32.9017L17.8572 32.6819L18.2437 32.1289L17.7068 31.7448L17.3204 32.2978L16.8183 31.9461L16.4712 31.7031L16.0871 32.2515L16.4365 32.4968L14.5645 35.1671L14.1804 34.8987L13.787 35.4471L14.1712 35.7178L14.671 36.0672L14.2221 36.7105L14.7705 37.0969L15.2217 36.4536L15.5341 36.6711L15.0828 37.3144L15.6312 37.6985L16.094 37.0344C16.7813 37.3815 17.3505 37.2496 17.7416 36.692ZM17.1237 32.9897L17.8665 33.5103C18.2807 33.7995 18.3941 34.1351 18.1488 34.4845C17.9035 34.8339 17.5518 34.8385 17.1399 34.5493L16.2953 33.9592L17.0242 32.9179L17.1237 32.9897ZM16.1149 36.2639L15.2171 35.6345L15.1523 35.5905L15.9135 34.503L16.8785 35.1763C17.3274 35.491 17.4523 35.8289 17.1885 36.206C16.9247 36.5832 16.5661 36.5739 16.1149 36.2593V36.2639Z" fill="#0AC389"/>
<path d="M24.1026 50.793H9.32812V54.0927H24.1026V50.793Z" fill="#0AC389"/>
<path d="M23.7138 44.2886H8.93933V47.5882H23.7138V44.2886Z" fill="#0AC389"/>
<path d="M25.8264 47.4934H11.052V50.793H25.8264V47.4934Z" fill="#0AC389"/>
<path d="M23.9406 47.5882C23.9406 47.6206 20.5808 47.6484 16.4388 47.6484C12.2969 47.6484 8.93475 47.6206 8.93475 47.5882C8.93475 47.5558 12.2946 47.5281 16.4388 47.5281C20.5831 47.5281 23.9406 47.5558 23.9406 47.5882Z" fill="#263238"/>
<path d="M25.8264 50.793C25.8264 50.8254 22.1241 50.8532 17.5379 50.8532C12.9517 50.8532 9.24475 50.8254 9.24475 50.793C9.24475 50.7606 12.947 50.7329 17.5379 50.7329C22.1287 50.7329 25.8264 50.7606 25.8264 50.793Z" fill="#263238"/>
<path d="M10.5337 47.5119C10.4535 46.4389 10.4535 45.3615 10.5337 44.2886C10.6139 45.3615 10.6139 46.4389 10.5337 47.5119Z" fill="#263238"/>
<path d="M12.1882 47.5119C12.1079 46.4389 12.1079 45.3615 12.1882 44.2886C12.2684 45.3615 12.2684 46.4389 12.1882 47.5119Z" fill="#263238"/>
<path d="M13.8449 47.5119C13.7647 46.4389 13.7647 45.3615 13.8449 44.2886C13.9251 45.3615 13.9251 46.4389 13.8449 47.5119Z" fill="#263238"/>
<path d="M15.4994 47.5119C15.4192 46.4389 15.4192 45.3615 15.4994 44.2886C15.5796 45.3615 15.5796 46.4389 15.4994 47.5119Z" fill="#263238"/>
<path d="M17.1562 47.5119C17.076 46.4389 17.076 45.3615 17.1562 44.2886C17.2364 45.3615 17.2364 46.4389 17.1562 47.5119Z" fill="#263238"/>
<path d="M18.8129 47.5119C18.7327 46.4389 18.7327 45.3615 18.8129 44.2886C18.8931 45.3615 18.8931 46.4389 18.8129 47.5119Z" fill="#263238"/>
<path d="M20.4673 47.5119C20.3871 46.4389 20.3871 45.3615 20.4673 44.2886C20.5475 45.3615 20.5475 46.4389 20.4673 47.5119Z" fill="#263238"/>
<path d="M22.1241 47.5119C22.0439 46.4389 22.0439 45.3615 22.1241 44.2886C22.2043 45.3615 22.2043 46.4389 22.1241 47.5119Z" fill="#263238"/>
<path d="M12.6162 50.8902C12.536 49.8181 12.536 48.7414 12.6162 47.6693C12.6964 48.7414 12.6964 49.8181 12.6162 50.8902Z" fill="#263238"/>
<path d="M14.273 50.8902C14.1928 49.8181 14.1928 48.7414 14.273 47.6693C14.3532 48.7414 14.3532 49.8181 14.273 50.8902Z" fill="#263238"/>
<path d="M15.9297 50.8902C15.8464 49.8182 15.8464 48.7413 15.9297 47.6693C16.0099 48.7414 16.0099 49.8181 15.9297 50.8902Z" fill="#263238"/>
<path d="M17.5842 50.8902C17.504 49.8181 17.504 48.7414 17.5842 47.6693C17.6644 48.7414 17.6644 49.8181 17.5842 50.8902Z" fill="#263238"/>
<path d="M19.241 50.8902C19.1608 49.8181 19.1608 48.7414 19.241 47.6693C19.3212 48.7414 19.3212 49.8181 19.241 50.8902Z" fill="#263238"/>
<path d="M20.8977 50.8902C20.8175 49.8181 20.8175 48.7414 20.8977 47.6693C20.978 48.7414 20.978 49.8181 20.8977 50.8902Z" fill="#263238"/>
<path d="M22.5522 50.8902C22.472 49.8181 22.472 48.7414 22.5522 47.6693C22.6324 48.7414 22.6324 49.8181 22.5522 50.8902Z" fill="#263238"/>
<path d="M24.209 50.8902C24.1288 49.8181 24.1288 48.7414 24.209 47.6693C24.2892 48.7414 24.2892 49.8181 24.209 50.8902Z" fill="#263238"/>
<path d="M10.89 54.0534C10.8098 52.9812 10.8098 51.9045 10.89 50.8324C10.9702 51.9045 10.9702 52.9812 10.89 54.0534Z" fill="#263238"/>
<path d="M12.5468 54.0534C12.4666 52.9812 12.4666 51.9045 12.5468 50.8324C12.627 51.9045 12.627 52.9812 12.5468 54.0534Z" fill="#263238"/>
<path d="M14.2036 54.0534C14.1234 52.9812 14.1234 51.9045 14.2036 50.8324C14.2838 51.9045 14.2838 52.9812 14.2036 54.0534Z" fill="#263238"/>
<path d="M15.8557 54.0534C15.7755 52.9812 15.7755 51.9045 15.8557 50.8324C15.939 51.9044 15.939 52.9813 15.8557 54.0534Z" fill="#263238"/>
<path d="M17.5148 54.0534C17.4346 52.9812 17.4346 51.9045 17.5148 50.8324C17.595 51.9045 17.595 52.9812 17.5148 54.0534Z" fill="#263238"/>
<path d="M19.1715 54.0534C19.0913 52.9812 19.0913 51.9045 19.1715 50.8324C19.2518 51.9045 19.2518 52.9812 19.1715 54.0534Z" fill="#263238"/>
<path d="M20.8283 54.0534C20.7481 52.9812 20.7481 51.9045 20.8283 50.8324C20.9086 51.9045 20.9086 52.9812 20.8283 54.0534Z" fill="#263238"/>
<path d="M22.4828 54.0534C22.4026 52.9812 22.4026 51.9045 22.4828 50.8324C22.563 51.9045 22.563 52.9812 22.4828 54.0534Z" fill="#263238"/>
<path d="M93.9514 24.8594C92.1285 24.8594 90.717 25.5469 89.717 26.9219C88.717 28.2865 88.217 30.1927 88.217 32.6406C88.217 37.7344 90.1285 40.2812 93.9514 40.2812C95.5556 40.2812 97.4983 39.8802 99.7795 39.0781V43.1406C97.9045 43.9219 95.8108 44.3125 93.4983 44.3125C90.1754 44.3125 87.6337 43.3073 85.8733 41.2969C84.1129 39.276 83.2327 36.3802 83.2327 32.6094C83.2327 30.2344 83.665 28.1562 84.5295 26.375C85.3941 24.5833 86.6337 23.2135 88.2483 22.2656C89.8733 21.3073 91.7743 20.8281 93.9514 20.8281C96.1702 20.8281 98.3993 21.3646 100.639 22.4375L99.0764 26.375C98.2222 25.9688 97.3629 25.6146 96.4983 25.3125C95.6337 25.0104 94.7847 24.8594 93.9514 24.8594ZM125.389 32.5469C125.389 36.3281 124.451 39.2344 122.576 41.2656C120.701 43.2969 118.014 44.3125 114.514 44.3125C111.014 44.3125 108.326 43.2969 106.451 41.2656C104.576 39.2344 103.639 36.3177 103.639 32.5156C103.639 28.7135 104.576 25.8125 106.451 23.8125C108.337 21.8021 111.035 20.7969 114.545 20.7969C118.056 20.7969 120.738 21.8073 122.592 23.8281C124.457 25.849 125.389 28.7552 125.389 32.5469ZM108.717 32.5469C108.717 35.099 109.201 37.0208 110.17 38.3125C111.139 39.6042 112.587 40.25 114.514 40.25C118.378 40.25 120.311 37.6823 120.311 32.5469C120.311 27.401 118.389 24.8281 114.545 24.8281C112.618 24.8281 111.165 25.4792 110.186 26.7812C109.207 28.0729 108.717 29.9948 108.717 32.5469ZM130.123 44V21.1562H134.967V44H130.123ZM160.983 44H154.826L144.889 26.7188H144.748C144.946 29.7708 145.045 31.9479 145.045 33.25V44H140.717V21.1562H146.826L156.748 38.2656H156.858C156.701 35.2969 156.623 33.1979 156.623 31.9688V21.1562H160.983V44ZM185.467 44H180.639V34.1406H171.592V44H166.748V21.1562H171.592V30.1094H180.639V21.1562H185.467V44ZM205.233 44L203.576 38.5625H195.248L193.592 44H188.373L196.436 21.0625H202.358L210.451 44H205.233ZM202.42 34.5C200.889 29.5729 200.024 26.7865 199.826 26.1406C199.639 25.4948 199.503 24.9844 199.42 24.6094C199.076 25.9427 198.092 29.2396 196.467 34.5H202.42ZM226.826 37.6562C226.826 39.7188 226.082 41.3438 224.592 42.5312C223.113 43.7188 221.05 44.3125 218.405 44.3125C215.967 44.3125 213.811 43.8542 211.936 42.9375V38.4375C213.477 39.125 214.78 39.6094 215.842 39.8906C216.915 40.1719 217.894 40.3125 218.78 40.3125C219.842 40.3125 220.655 40.1094 221.217 39.7031C221.79 39.2969 222.076 38.6927 222.076 37.8906C222.076 37.4427 221.951 37.0469 221.701 36.7031C221.451 36.349 221.082 36.0104 220.592 35.6875C220.113 35.3646 219.128 34.849 217.639 34.1406C216.243 33.4844 215.196 32.8542 214.498 32.25C213.8 31.6458 213.243 30.9427 212.826 30.1406C212.41 29.3385 212.201 28.401 212.201 27.3281C212.201 25.3073 212.884 23.7188 214.248 22.5625C215.623 21.4062 217.519 20.8281 219.936 20.8281C221.123 20.8281 222.253 20.9688 223.326 21.25C224.41 21.5312 225.54 21.9271 226.717 22.4375L225.155 26.2031C223.936 25.7031 222.925 25.3542 222.123 25.1562C221.332 24.9583 220.55 24.8594 219.78 24.8594C218.863 24.8594 218.16 25.0729 217.67 25.5C217.181 25.9271 216.936 26.4844 216.936 27.1719C216.936 27.599 217.035 27.974 217.233 28.2969C217.431 28.6094 217.743 28.9167 218.17 29.2188C218.608 29.5104 219.634 30.0417 221.248 30.8125C223.384 31.8333 224.847 32.8594 225.639 33.8906C226.431 34.9115 226.826 36.1667 226.826 37.6562ZM249.686 44H244.858V34.1406H235.811V44H230.967V21.1562H235.811V30.1094H244.858V21.1562H249.686V44Z" fill="white"/>
<defs>
<linearGradient id="paint0_linear_5_431" x1="56.8733" y1="32.5" x2="42.8733" y2="44" gradientUnits="userSpaceOnUse">
<stop offset="0.234375" stop-color="#0AC389"/>
<stop offset="1" stop-color="#3EA4CC"/>
</linearGradient>
<linearGradient id="paint1_linear_5_431" x1="37.0722" y1="0.00866699" x2="37.0722" y2="14.7837" gradientUnits="userSpaceOnUse">
<stop stop-color="#3EA4CC"/>
<stop offset="1" stop-color="#0AC389"/>
</linearGradient>
<linearGradient id="paint2_linear_5_431" x1="37.0756" y1="0" x2="37.0756" y2="14.7883" gradientUnits="userSpaceOnUse">
<stop stop-color="#3EA4CC"/>
<stop offset="1" stop-color="#0AC389"/>
</linearGradient>
</defs>
</svg>
